Perun-ThinItalic.ufo
<glyph name="exclam" format="2">
  <advance width="333"/>
  <unicode hex="0021"/>
  <outline>
    <contour>
      <point x="102.542" y="0" type="line"/>
      <point x="80.8287" y="0" type="line"/>
      <point x="99.2967" y="95" type="line"/>
      <point x="121.01" y="95" type="line"/>
    </contour>
    <contour>
      <point x="252.186" y="722" type="line"/>
      <point x="129.682" y="169" type="line"/>
      <point x="119.682" y="169" type="line"/>
      <point x="212.186" y="722" type="line"/>
    </contour>
  </outline>
</glyph>
<glyph name="quotedbl" format="2">
  <advance width="449"/>
  <unicode hex="0022"/>
  <outline>
    <contour>
      <point x="80.1898" y="434" type="line"/>
      <point x="90.1898" y="434" type="line"/>
      <point x="161.171" y="722" type="line"/>
      <point x="121.171" y="722" type="line"/>
    </contour>
    <contour>
      <point x="287.19" y="434" type="line"/>
      <point x="297.19" y="434" type="line"/>
      <point x="368.171" y="722" type="line"/>
      <point x="328.171" y="722" type="line"/>
    </contour>
  </outline>
</glyph>
<glyph name="numbersign" format="2">
  <advance width="745"/>
  <unicode hex="0023"/>
  <outline>
    <contour>
      <point x="70.0978" y="0" type="line"/>
      <point x="90.9921" y="0" type="line"/>
      <point x="451.335" y="722" type="line"/>
      <point x="430.44" y="722" type="line"/>
    </contour>
    <contour>
      <point x="253.226" y="0" type="line"/>
      <point x="274.12" y="0" type="line"/>
      <point x="634.463" y="722" type="line"/>
      <point x="613.569" y="722" type="line"/>
    </contour>
    <contour>
      <point x="164.546" y="513" type="line"/>
      <point x="154.571" y="493" type="line"/>
      <point x="715.557" y="493" type="line"/>
      <point x="725.546" y="513" type="line"/>
    </contour>
    <contour>
      <point x="50.0684" y="287.744" type="line"/>
      <point x="40.0938" y="267.744" type="line"/>
      <point x="601.079" y="267.744" type="line"/>
      <point x="611.068" y="287.744" type="line"/>
    </contour>
  </outline>
  <guideline angle="253.054" x="545" y="722"/>
  <guideline angle="73.0535" x="399" y="0"/>
  <guideline angle="253.072" x="135" y="513"/>
  <guideline angle="73.0725" x="675" y="444"/>
  <guideline angle="0" x="0" y="513"/>
  <guideline angle="0" x="0" y="493"/>
</glyph>
<glyph name="dollar" format="2">
  <advance width="706"/>
  <unicode hex="0024"/>
  <outline>
    <component base="S"/>
    <contour>
      <point x="424.174" y="725" type="line"/>
      <point x="438.752" y="800" type="line"/>
      <point x="416.752" y="800" type="line"/>
      <point x="402.174" y="725" type="line"/>
    </contour>
    <contour>
      <point x="357.112" y="380" type="line"/>
      <point x="423.007" y="719" type="line"/>
      <point x="401.007" y="719" type="line"/>
      <point x="335.112" y="380" type="line"/>
    </contour>
    <contour>
      <point x="284.025" y="4" type="line"/>
      <point x="355.984" y="374.195" type="line"/>
      <point x="333.984" y="374.195" type="line"/>
      <point x="262.025" y="4" type="line"/>
    </contour>
    <contour>
      <point x="260.47" y="-4" type="line"/>
      <point x="246.475" y="-76" type="line"/>
      <point x="268.475" y="-76" type="line"/>
      <point x="282.47" y="-4" type="line"/>
    </contour>
  </outline>
  <guideline angle="90" x="350" y="0"/>
</glyph>
<glyph name="percent" format="2">
  <advance width="848"/>
  <unicode hex="0025"/>
  <outline>
    <contour>
      <point x="104.746" y="-14" type="line"/>
      <point x="127.746" y="-14" type="line"/>
      <point x="700.546" y="736" type="line"/>
      <point x="676.546" y="736" type="line"/>
    </contour>
    <contour>
      <point x="449.185" y="139.711" type="curve" smooth="yes"/>
      <point x="449.185" y="51.1283"/>
      <point x="503.317" y="-4"/>
      <point x="595.69" y="-4" type="curve" smooth="yes"/>
      <point x="729.35" y="-4"/>
      <point x="817.274" y="112.265"/>
      <point x="817.274" y="238.519" type="curve" smooth="yes"/>
      <point x="817.274" y="326.479"/>
      <point x="763.571" y="380"/>
      <point x="670.34" y="380" type="curve" smooth="yes"/>
      <point x="536.83" y="380"/>
      <point x="449.185" y="266.15"/>
    </contour>
    <contour>
      <point x="666.452" y="360" type="curve" smooth="yes"/>
      <point x="749.816" y="360"/>
      <point x="796.822" y="313.349"/>
      <point x="796.822" y="234.43" type="curve" smooth="yes"/>
      <point x="796.822" y="121.383"/>
      <point x="722.469" y="16"/>
      <point x="601.336" y="16" type="curve" smooth="yes"/>
      <point x="517.467" y="16"/>
      <point x="469.01" y="65.6429"/>
      <point x="469.01" y="145.042" type="curve" smooth="yes"/>
      <point x="469.01" y="258.178"/>
      <point x="546.822" y="360"/>
    </contour>
    <contour>
      <point x="35.4475" y="485.711" type="curve" smooth="yes"/>
      <point x="35.4475" y="397.128"/>
      <point x="89.5793" y="342"/>
      <point x="181.953" y="342" type="curve" smooth="yes"/>
      <point x="315.612" y="342"/>
      <point x="403.536" y="458.265"/>
      <point x="403.536" y="584.519" type="curve" smooth="yes"/>
      <point x="403.536" y="672.479"/>
      <point x="349.834" y="726"/>
      <point x="256.602" y="726" type="curve" smooth="yes"/>
      <point x="123.092" y="726"/>
      <point x="35.4475" y="612.15"/>
    </contour>
    <contour>
      <point x="252.714" y="706" type="curve" smooth="yes"/>
      <point x="336.078" y="706"/>
      <point x="383.084" y="659.349"/>
      <point x="383.084" y="580.43" type="curve" smooth="yes"/>
      <point x="383.084" y="467.383"/>
      <point x="308.731" y="362"/>
      <point x="187.598" y="362" type="curve" smooth="yes"/>
      <point x="103.729" y="362"/>
      <point x="55.272" y="411.643"/>
      <point x="55.272" y="491.042" type="curve" smooth="yes"/>
      <point x="55.272" y="604.178"/>
      <point x="133.084" y="706"/>
    </contour>
  </outline>
</glyph>
<glyph name="ampersand" format="2">
  <advance width="765"/>
  <unicode hex="0026"/>
  <outline>
    <contour>
      <point x="545.719" y="0" type="line"/>
      <point x="573.532" y="0" type="line"/>
      <point x="234.815" y="463.378" type="line" smooth="yes"/>
      <point x="208.604" y="499.236"/>
      <point x="200.914" y="528.432"/>
      <point x="200.914" y="558.648" type="curve" smooth="yes"/>
      <point x="200.914" y="658.868"/>
      <point x="285.516" y="716"/>
      <point x="388.244" y="716" type="curve" smooth="yes"/>
      <point x="464.478" y="716"/>
      <point x="504.149" y="684.537"/>
      <point x="504.149" y="622.168" type="curve" smooth="yes"/>
      <point x="504.149" y="568.351"/>
      <point x="474.612" y="521.464"/>
      <point x="425.344" y="494.137" type="curve" smooth="yes"/>
      <point x="267.153" y="406.397" type="line"/>
      <point x="275.133" y="390.97" type="line"/>
      <point x="435.644" y="484.056" type="line" smooth="yes"/>
      <point x="489.761" y="515.441"/>
      <point x="525.922" y="568.703"/>
      <point x="525.922" y="628.268" type="curve" smooth="yes"/>
      <point x="525.922" y="696.664"/>
      <point x="478.244" y="736"/>
      <point x="389.021" y="736" type="curve" smooth="yes"/>
      <point x="273.041" y="736"/>
      <point x="181" y="669.535"/>
      <point x="181" y="556.707" type="curve" smooth="yes"/>
      <point x="181" y="518.58"/>
      <point x="191.51" y="491.411"/>
      <point x="215.878" y="457.605" type="curve" smooth="yes"/>
    </contour>
    <contour>
      <point x="27.5404" y="130.645" type="curve" smooth="yes"/>
      <point x="27.5404" y="38.4805"/>
      <point x="91.7811" y="-9.85756"/>
      <point x="205.19" y="-9.85756" type="curve" smooth="yes"/>
      <point x="291.256" y="-9.85756"/>
      <point x="373.591" y="17.9819"/>
      <point x="480.679" y="103.306" type="curve"/>
      <point x="470.079" y="115.979" type="line"/>
      <point x="395.953" y="52.0202"/>
      <point x="291.84" y="10"/>
      <point x="225.046" y="10" type="curve" smooth="yes"/>
      <point x="105.825" y="10"/>
      <point x="47.4075" y="49.2924"/>
      <point x="47.4075" y="132.606" type="curve" smooth="yes"/>
      <point x="47.4075" y="226.97"/>
      <point x="122.351" y="297.265"/>
      <point x="200.02" y="344.928" type="curve" smooth="yes"/>
      <point x="272.079" y="389.149" type="line"/>
      <point x="262.948" y="404.114" type="line"/>
      <point x="185.215" y="355.595" type="line" smooth="yes"/>
      <point x="103.349" y="304.496"/>
      <point x="27.5404" y="230.765"/>
    </contour>
    <contour>
      <point x="484.029" y="106.584" type="line"/>
      <point x="571.68" y="186.652"/>
      <point x="639.011" y="306.321"/>
      <point x="661.497" y="422" type="curve"/>
      <point x="640.589" y="421.754" type="line"/>
      <point x="638.991" y="420.246" type="line"/>
      <point x="638.999" y="332.653"/>
      <point x="551.725" y="190.126"/>
      <point x="474.517" y="119.636" type="curve"/>
    </contour>
  </outline>
  <guideline angle="211.264" x="240" y="387.393"/>
  <guideline angle="133.02" x="643.942" y="0"/>
  <guideline angle="211.264" x="240" y="429"/>
  <guideline angle="33.9965" x="234" y="370.977"/>
</glyph>
<glyph name="parenleft" format="2">
  <advance width="303"/>
  <unicode hex="0028"/>
  <outline>
    <contour>
      <point x="105.615" y="-133" type="curve"/>
      <point x="115.615" y="-133" type="line"/>
      <point x="92.2076" y="-53.4739"/>
      <point x="81.8416" y="38.7207"/>
      <point x="81.8416" y="126.114" type="curve" smooth="yes"/>
      <point x="81.8416" y="348.845"/>
      <point x="160.206" y="552.049"/>
      <point x="284.532" y="736" type="curve"/>
      <point x="274.532" y="736" type="line"/>
      <point x="144.992" y="561.377"/>
      <point x="60.2145" y="351.063"/>
      <point x="60.2145" y="131.875" type="curve" smooth="yes"/>
      <point x="60.2145" y="40.5396"/>
      <point x="75.4603" y="-47.5905"/>
    </contour>
  </outline>
</glyph>
<glyph name="parenright" format="2">
  <advance width="359"/>
  <unicode hex="0029"/>
  <outline>
    <contour>
      <point x="49.0042" y="-130" type="curve"/>
      <point x="59.0042" y="-130" type="line"/>
      <point x="188.93" y="45.1426"/>
      <point x="272.995" y="253.293"/>
      <point x="272.995" y="472.957" type="curve" smooth="yes"/>
      <point x="272.995" y="564.402"/>
      <point x="257.825" y="652.75"/>
      <point x="227.726" y="738" type="curve"/>
      <point x="217.726" y="738" type="line"/>
      <point x="242.761" y="662.094"/>
      <point x="255.356" y="579.706"/>
      <point x="255.356" y="493.177" type="curve" smooth="yes"/>
      <point x="255.356" y="272.169"/>
      <point x="177.284" y="48.5204"/>
    </contour>
  </outline>
</glyph>
<glyph name="asterisk" format="2">
  <advance width="656"/>
  <unicode hex="002A"/>
  <outline>
    <contour>
      <point x="210.862" y="366.298" type="line"/>
      <point x="229.782" y="354.844" type="line"/>
      <point x="362.572" y="527" type="line"/>
      <point x="417.78" y="348.956" type="line"/>
      <point x="441.738" y="361.132" type="line"/>
      <point x="362.572" y="527" type="line"/>
      <point x="560.439" y="516.025" type="line"/>
      <point x="565.093" y="539.968" type="line"/>
      <point x="362.572" y="527" type="line"/>
      <point x="507.856" y="695.738" type="line"/>
      <point x="486.657" y="708.572" type="line"/>
      <point x="362.572" y="527" type="line"/>
      <point x="303.373" y="705.979" type="line"/>
      <point x="280.185" y="694.756" type="line"/>
      <point x="362.572" y="527" type="line"/>
      <point x="164.191" y="540.473" type="line"/>
      <point x="159.437" y="516.014" type="line"/>
      <point x="362.572" y="527" type="line"/>
    </contour>
  </outline>
  <guideline angle="28.1132" x="192" y="227.781"/>
  <guideline angle="28.1132" x="192" y="683"/>
  <guideline angle="90" x="128" y="0"/>
  <guideline angle="90" x="529" y="0"/>
  <guideline angle="331.557" x="393" y="266.375"/>
  <guideline angle="331.557" x="393" y="722"/>
  <guideline angle="90" x="329" y="0"/>
  <guideline angle="0" x="0" y="527"/>
</glyph>
<glyph name="plus" format="2">
  <advance width="724"/>
  <unicode hex="002B"/>
  <outline>
    <contour>
      <point x="60.0562" y="290" type="line"/>
      <point x="350.109" y="290" type="line"/>
      <point x="293.739" y="0" type="line"/>
      <point x="313.686" y="0" type="line"/>
      <point x="370.056" y="290" type="line"/>
      <point x="660.056" y="290" type="line"/>
      <point x="663.944" y="310" type="line"/>
      <point x="373.944" y="310" type="line"/>
      <point x="430.314" y="600" type="line"/>
      <point x="410.367" y="600" type="line"/>
      <point x="353.997" y="310" type="line"/>
      <point x="63.9438" y="310" type="line"/>
    </contour>
  </outline>
  <guideline angle="0" x="0" y="300"/>
  <guideline angle="90" x="362" y="0"/>
</glyph>
<glyph name="hyphen" format="2">
  <advance width="405"/>
  <unicode hex="002D"/>
  <outline>
    <contour>
      <point x="80.7987" y="234" type="line"/>
      <point x="320.799" y="234" type="line"/>
      <point x="324.686" y="254" type="line"/>
      <point x="84.6863" y="254" type="line"/>
    </contour>
  </outline>
</glyph>
<glyph name="period" format="2">
  <advance width="206"/>
  <unicode hex="002E"/>
  <outline>
    <contour>
      <point x="80.0456" y="0" type="line"/>
      <point x="102.046" y="0" type="line"/>
      <point x="125.957" y="123" type="line"/>
      <point x="103.957" y="123" type="line"/>
    </contour>
  </outline>
</glyph>
<glyph name="zero" format="2">
  <advance width="558"/>
  <unicode hex="0030"/>
  <outline>
    <contour>
      <point x="35.9651" y="218.299" type="curve" smooth="yes"/>
      <point x="35.9651" y="94.5562"/>
      <point x="76.4357" y="-10"/>
      <point x="211.913" y="-10" type="curve" smooth="yes"/>
      <point x="441.453" y="-10"/>
      <point x="527.036" y="327.81"/>
      <point x="527.036" y="516.429" type="curve" smooth="yes"/>
      <point x="527.036" y="636.218"/>
      <point x="484.528" y="732"/>
      <point x="348.143" y="732" type="curve" smooth="yes"/>
      <point x="111.598" y="732"/>
      <point x="35.9651" y="410.259"/>
    </contour>
    <contour>
      <point x="57.3045" y="226.302" type="curve" smooth="yes"/>
      <point x="57.3045" y="413.373"/>
      <point x="122.956" y="722.371"/>
      <point x="354.272" y="722.371" type="curve" smooth="yes"/>
      <point x="453.607" y="722.371"/>
      <point x="506.344" y="646.707"/>
      <point x="506.344" y="512.265" type="curve" smooth="yes"/>
      <point x="506.344" y="332.884"/>
      <point x="426.265" y="0.0250702"/>
      <point x="207.862" y="0.0250702" type="curve" smooth="yes"/>
      <point x="110.396" y="0.0250702"/>
      <point x="57.3045" y="83.1917"/>
    </contour>
  </outline>
</glyph>
<glyph name="one" format="2">
  <advance width="558"/>
  <unicode hex="0031"/>
  <outline>
    <contour>
      <point x="215.829" y="0" type="line"/>
      <point x="235.766" y="0" type="line"/>
      <point x="376.108" y="722" type="line"/>
      <point x="349.171" y="722" type="line"/>
      <point x="326.117" y="696"/>
      <point x="234.871" y="633"/>
      <point x="176.846" y="602" type="curve"/>
      <point x="174.903" y="592.005" type="line"/>
      <point x="247.54" y="621.005"/>
      <point x="308.723" y="662.428"/>
      <point x="352.572" y="703.486" type="curve"/>
    </contour>
  </outline>
</glyph>
<glyph name="two" format="2">
  <advance width="558"/>
  <unicode hex="0032"/>
  <outline>
    <contour>
      <point x="-11.1432" y="0" type="line"/>
      <point x="423.857" y="0" type="line"/>
      <point x="427.744" y="20" type="line"/>
      <point x="3.55395" y="20" type="line"/>
      <point x="8.92114" y="13.7163" type="line"/>
      <point x="160.949" y="111.188"/>
      <point x="531.29" y="374.324"/>
      <point x="531.29" y="573.116" type="curve" smooth="yes"/>
      <point x="531.29" y="668.917"/>
      <point x="461.272" y="732"/>
      <point x="355.143" y="732" type="curve" smooth="yes"/>
      <point x="222.143" y="732"/>
      <point x="137.314" y="666"/>
      <point x="99.1009" y="526" type="curve"/>
      <point x="119.101" y="526" type="line"/>
      <point x="158.718" y="653.893"/>
      <point x="232.231" y="712.054"/>
      <point x="354.266" y="712.054" type="curve" smooth="yes"/>
      <point x="449.021" y="712.054"/>
      <point x="510.127" y="651.813"/>
      <point x="510.127" y="565.092" type="curve" smooth="yes"/>
      <point x="510.127" y="390.638"/>
      <point x="124.792" y="99.7174"/>
      <point x="-7.25556" y="20" type="curve"/>
    </contour>
  </outline>
</glyph>
<glyph name="three" format="2">
  <advance width="558"/>
  <unicode hex="0033"/>
  <outline>
    <contour>
      <point x="11.7891" y="190" type="line"/>
      <point x="8.86477" y="174.956"/>
      <point x="7.43967" y="160.618"/>
      <point x="7.43967" y="147.036" type="curve" smooth="yes"/>
      <point x="7.43967" y="48.6878"/>
      <point x="82.167" y="-10"/>
      <point x="203.5" y="-10" type="curve" smooth="yes"/>
      <point x="342.716" y="-10"/>
      <point x="484.771" y="85.0223"/>
      <point x="484.771" y="235.687" type="curve" smooth="yes"/>
      <point x="484.771" y="301.524"/>
      <point x="442.139" y="359.59"/>
      <point x="376.376" y="380.924" type="curve"/>
      <point x="375.161" y="377.117" type="line"/>
      <point x="472.543" y="404.349"/>
      <point x="540.841" y="488.618"/>
      <point x="540.841" y="590.104" type="curve" smooth="yes"/>
      <point x="540.841" y="679.22"/>
      <point x="474.533" y="732"/>
      <point x="364.803" y="732" type="curve" smooth="yes"/>
      <point x="228.258" y="732"/>
      <point x="116.074" y="649.329"/>
      <point x="93.2671" y="532" type="curve"/>
      <point x="113.267" y="532" type="line"/>
      <point x="133.779" y="637.523"/>
      <point x="233.795" y="712.274"/>
      <point x="362.015" y="712.274" type="curve" smooth="yes"/>
      <point x="463.289" y="712.274"/>
      <point x="520.575" y="665.641"/>
      <point x="520.575" y="582.234" type="curve" smooth="yes"/>
      <point x="520.575" y="479.064"/>
      <point x="431.26" y="386"/>
      <point x="326.482" y="386" type="curve" smooth="yes"/>
      <point x="214.093" y="386" type="line"/>
      <point x="210.205" y="366" type="line"/>
      <point x="334.378" y="366" type="line" smooth="yes"/>
      <point x="407.533" y="366"/>
      <point x="464.473" y="304.592"/>
      <point x="464.473" y="233.693" type="curve" smooth="yes"/>
      <point x="464.473" y="96.3205"/>
      <point x="335.394" y="9.69203"/>
      <point x="208.544" y="9.69203" type="curve" smooth="yes"/>
      <point x="98.3503" y="9.69203"/>
      <point x="27.9929" y="62.8583"/>
      <point x="27.9929" y="152.42" type="curve" smooth="yes"/>
      <point x="27.9929" y="164.318"/>
      <point x="29.2345" y="176.857"/>
      <point x="31.7892" y="190" type="curve"/>
    </contour>
  </outline>
</glyph>
<glyph name="four" format="2">
  <advance width="558"/>
  <unicode hex="0034"/>
  <outline>
    <contour>
      <point x="29.3017" y="186.037" type="line"/>
      <point x="494.957" y="712.205" type="line"/>
      <point x="488.663" y="714.242" type="line"/>
      <point x="349.829" y="0" type="line"/>
      <point x="369.829" y="0" type="line"/>
      <point x="510.171" y="722" type="line"/>
      <point x="480.398" y="722" type="line"/>
      <point x="19.2879" y="203" type="line"/>
      <point x="14.0397" y="176" type="line"/>
      <point x="399.04" y="176" type="line"/>
      <point x="402.927" y="196" type="line"/>
      <point x="25.9273" y="196" type="line"/>
    </contour>
    <contour>
      <point x="389.04" y="176" type="line"/>
      <point x="493.04" y="176" type="line"/>
      <point x="496.927" y="196" type="line"/>
      <point x="392.927" y="196" type="line"/>
    </contour>
  </outline>
  <guideline angle="0" x="0" y="702"/>
</glyph>
<glyph name="five" format="2">
  <advance width="558"/>
  <unicode hex="0035"/>
  <outline>
    <contour>
      <point x="13.3697" y="139.483" type="curve" smooth="yes"/>
      <point x="13.3697" y="48.2589"/>
      <point x="87.3038" y="-10"/>
      <point x="210.528" y="-10" type="curve" smooth="yes"/>
      <point x="387.23" y="-10"/>
      <point x="491.227" y="153.08"/>
      <point x="491.227" y="315.92" type="curve" smooth="yes"/>
      <point x="491.227" y="420.937"/>
      <point x="432.002" y="480"/>
      <point x="337.258" y="480" type="curve" smooth="yes"/>
      <point x="228.254" y="480"/>
      <point x="143.537" y="432.941"/>
      <point x="86.6067" y="340.768" type="curve"/>
      <point x="92.1912" y="336.261" type="line"/>
      <point x="165.616" y="714" type="line"/>
      <point x="151.284" y="702" type="line"/>
      <point x="526.739" y="702" type="line"/>
      <point x="530.627" y="722" type="line"/>
      <point x="147.171" y="722" type="line"/>
      <point x="65.5316" y="302" type="line"/>
      <point x="75.5316" y="302" type="line"/>
      <point x="150.156" y="416.996"/>
      <point x="219.279" y="460"/>
      <point x="329.546" y="460" type="curve" smooth="yes"/>
      <point x="421.632" y="460"/>
      <point x="470.866" y="407.449"/>
      <point x="470.866" y="313.318" type="curve" smooth="yes"/>
      <point x="470.866" y="160.633"/>
      <point x="378.427" y="9.82132"/>
      <point x="211.19" y="9.82132" type="curve" smooth="yes"/>
      <point x="100.787" y="9.82132"/>
      <point x="33.7785" y="61.9938"/>
      <point x="33.7785" y="143.779" type="curve" smooth="yes"/>
      <point x="33.7785" y="154.066"/>
      <point x="34.8386" y="164.821"/>
      <point x="37.0057" y="176" type="curve"/>
      <point x="17.0397" y="176" type="line"/>
      <point x="14.576" y="163.325"/>
      <point x="13.3698" y="151.135"/>
    </contour>
  </outline>
</glyph>
<glyph name="six" format="2">
  <advance width="558"/>
  <unicode hex="0036"/>
  <outline>
    <contour>
      <point x="21.7258" y="179.986" type="curve" smooth="yes"/>
      <point x="21.7258" y="49.6208"/>
      <point x="80.3547" y="-10"/>
      <point x="201.975" y="-10" type="curve" smooth="yes"/>
      <point x="371.286" y="-10"/>
      <point x="489.872" y="113.032"/>
      <point x="489.872" y="279.444" type="curve" smooth="yes"/>
      <point x="489.872" y="383.913"/>
      <point x="424.061" y="446"/>
      <point x="301.414" y="446" type="curve" smooth="yes"/>
      <point x="181.075" y="446"/>
      <point x="93.1318" y="386.228"/>
      <point x="43.5912" y="269.369" type="curve"/>
      <point x="99.1971" y="555.169"/>
      <point x="203.126" y="712.169"/>
      <point x="363.074" y="712.169" type="curve" smooth="yes"/>
      <point x="458.2" y="712.169"/>
      <point x="511.705" y="666.245"/>
      <point x="511.705" y="588.56" type="curve" smooth="yes"/>
      <point x="511.705" y="576.459"/>
      <point x="510.407" y="563.588"/>
      <point x="507.766" y="550" type="curve"/>
      <point x="527.766" y="550" type="line"/>
      <point x="530.517" y="564.153"/>
      <point x="531.858" y="577.645"/>
      <point x="531.858" y="590.416" type="curve" smooth="yes"/>
      <point x="531.858" y="678.278"/>
      <point x="468.384" y="732"/>
      <point x="363.95" y="732" type="curve" smooth="yes"/>
      <point x="118.354" y="732"/>
      <point x="21.7257" y="382.887"/>
    </contour>
    <contour>
      <point x="303.107" y="426.159" type="curve" smooth="yes"/>
      <point x="411.035" y="426.159"/>
      <point x="470.095" y="372.762"/>
      <point x="470.095" y="278.307" type="curve" smooth="yes"/>
      <point x="470.095" y="129.112"/>
      <point x="365.071" y="9.66932"/>
      <point x="210.998" y="9.66932" type="curve" smooth="yes"/>
      <point x="100.324" y="9.66932"/>
      <point x="43" y="67.7453"/>
      <point x="43" y="161.189" type="curve" smooth="yes"/>
      <point x="43" y="311.044"/>
      <point x="149.601" y="426.159"/>
    </contour>
  </outline>
</glyph>
<glyph name="seven" format="2">
  <advance width="558"/>
  <unicode hex="0037"/>
  <outline>
    <contour>
      <point x="84.8287" y="0" type="line"/>
      <point x="106.891" y="0" type="line"/>
      <point x="567.93" y="700.179" type="line"/>
      <point x="572.171" y="722" type="line"/>
      <point x="127.171" y="722" type="line"/>
      <point x="123.284" y="702" type="line"/>
      <point x="558.888" y="702" type="line"/>
      <point x="554.194" y="713.152" type="line"/>
    </contour>
  </outline>
</glyph>
<glyph name="eight" format="2">
  <advance width="558"/>
  <unicode hex="0038"/>
  <outline>
    <contour>
      <point x="272.103" y="373.005" type="curve" smooth="yes"/>
      <point x="391.843" y="373.005"/>
      <point x="465.133" y="315.981"/>
      <point x="465.097" y="231.173" type="curve" smooth="yes"/>
      <point x="465.036" y="85.9969"/>
      <point x="341.618" y="10.4648"/>
      <point x="208.218" y="10.4648" type="curve" smooth="yes"/>
      <point x="85.1125" y="10.4648"/>
      <point x="21.4132" y="60.8574"/>
      <point x="21.4132" y="148.296" type="curve" smooth="yes"/>
      <point x="21.4132" y="290.735"/>
      <point x="136.115" y="373.005"/>
    </contour>
    <contour>
      <point x="275.644" y="392.991" type="curve" smooth="yes"/>
      <point x="172.524" y="392.991"/>
      <point x="114.845" y="440.505"/>
      <point x="114.845" y="516.643" type="curve" smooth="yes"/>
      <point x="114.845" y="642.247"/>
      <point x="227.95" y="712"/>
      <point x="344.256" y="712" type="curve" smooth="yes"/>
      <point x="449.645" y="712"/>
      <point x="514.548" y="662.587"/>
      <point x="514.548" y="584.959" type="curve" smooth="yes"/>
      <point x="514.548" y="459.379"/>
      <point x="388.061" y="392.991"/>
    </contour>
    <contour>
      <point x="483.617" y="229.871" type="curve" smooth="yes"/>
      <point x="483.617" y="307.043"/>
      <point x="436.547" y="359.684"/>
      <point x="354.313" y="384" type="curve"/>
      <point x="451.865" y="415.072"/>
      <point x="534.419" y="476.495"/>
      <point x="534.419" y="586.044" type="curve" smooth="yes"/>
      <point x="534.419" y="676.029"/>
      <point x="461.037" y="732"/>
      <point x="349.333" y="732" type="curve" smooth="yes"/>
      <point x="224.627" y="732"/>
      <point x="94.6317" y="652.609"/>
      <point x="94.6317" y="517.063" type="curve" smooth="yes"/>
      <point x="94.6317" y="457.753"/>
      <point x="127.287" y="408.207"/>
      <point x="199.466" y="383" type="curve"/>
      <point x="85.8287" y="353.258"/>
      <point x="1.11487" y="265.66"/>
      <point x="1.11487" y="145.406" type="curve" smooth="yes"/>
      <point x="1.11487" y="47.1278"/>
      <point x="76.3897" y="-10"/>
      <point x="202.913" y="-10" type="curve" smooth="yes"/>
      <point x="347.725" y="-10"/>
      <point x="483.617" y="73.9708"/>
    </contour>
  </outline>
  <guideline angle="0" x="0" y="383"/>
</glyph>
<glyph name="nine" format="2">
  <advance width="558"/>
  <unicode hex="0039"/>
  <outline>
    <contour>
      <point x="24.3533" y="124.263" type="curve" smooth="yes"/>
      <point x="24.3533" y="38.6763"/>
      <point x="78.8948" y="-10"/>
      <point x="182.705" y="-10" type="curve" smooth="yes"/>
      <point x="430.461" y="-10"/>
      <point x="540.309" y="348.111"/>
      <point x="540.309" y="551.344" type="curve" smooth="yes"/>
      <point x="540.309" y="671.903"/>
      <point x="475.419" y="732"/>
      <point x="348.815" y="732" type="curve" smooth="yes"/>
      <point x="177.273" y="732"/>
      <point x="68.7036" y="609.449"/>
      <point x="68.7036" y="444.092" type="curve" smooth="yes"/>
      <point x="68.7036" y="339.16"/>
      <point x="132.696" y="278"/>
      <point x="247.369" y="278" type="curve" smooth="yes"/>
      <point x="362.678" y="278"/>
      <point x="466.831" y="339.842"/>
      <point x="506.405" y="433.747" type="curve"/>
      <point x="449.23" y="142.877"/>
      <point x="345.229" y="9.8963"/>
      <point x="194.947" y="9.8963" type="curve" smooth="yes"/>
      <point x="95.9275" y="9.8963"/>
      <point x="44.6622" y="50.116"/>
      <point x="44.6622" y="128.427" type="curve" smooth="yes"/>
      <point x="44.6622" y="141.838"/>
      <point x="46.1656" y="156.366"/>
      <point x="49.1901" y="172" type="curve"/>
      <point x="29.2902" y="172" type="line"/>
      <point x="25.9898" y="155.021"/>
      <point x="24.3533" y="139.088"/>
    </contour>
    <contour>
      <point x="262.75" y="297.835" type="curve" smooth="yes"/>
      <point x="145.799" y="297.835"/>
      <point x="87.9012" y="348.521"/>
      <point x="87.9012" y="443.352" type="curve" smooth="yes"/>
      <point x="87.9012" y="595.754"/>
      <point x="183.952" y="712.028"/>
      <point x="343.261" y="712.028" type="curve" smooth="yes"/>
      <point x="458.239" y="712.028"/>
      <point x="520.143" y="657.424"/>
      <point x="520.143" y="561.811" type="curve" smooth="yes"/>
      <point x="520.143" y="416.104"/>
      <point x="411.745" y="297.835"/>
    </contour>
  </outline>
</glyph>
<glyph name="colon" format="2">
  <advance width="280"/>
  <unicode hex="003A"/>
  <outline>
    <contour>
      <point x="80.4049" y="0" type="line"/>
      <point x="102.405" y="0" type="line"/>
      <point x="126.314" y="123" type="line"/>
      <point x="104.314" y="123" type="line"/>
    </contour>
    <contour>
      <point x="153.686" y="377" type="line"/>
      <point x="175.686" y="377" type="line"/>
      <point x="199.595" y="500" type="line"/>
      <point x="177.595" y="500" type="line"/>
    </contour>
  </outline>
</glyph>
<glyph name="semicolon" format="2">
  <advance width="275"/>
  <unicode hex="003B"/>
  <outline>
    <contour>
      <point x="-75.2814" y="-127" type="line"/>
      <point x="-65.3406" y="-127" type="line"/>
      <point x="83.2544" y="123" type="line"/>
      <point x="53.3137" y="123" type="line"/>
    </contour>
    <contour>
      <point x="104.686" y="377" type="line"/>
      <point x="126.686" y="377" type="line"/>
      <point x="150.595" y="500" type="line"/>
      <point x="128.595" y="500" type="line"/>
    </contour>
  </outline>
  <guideline angle="90" x="80" y="0"/>
  <guideline angle="90" x="102" y="0"/>
</glyph>
<glyph name="less" format="2">
  <advance width="750"/>
  <unicode hex="003C"/>
  <outline>
    <contour>
      <point x="50.596" y="289" type="line"/>
      <point x="605.889" y="59" type="line"/>
      <point x="609.971" y="80" type="line"/>
      <point x="71.1308" y="304.421" type="line"/>
      <point x="69.6585" y="295.903" type="line"/>
      <point x="695.498" y="520" type="line"/>
      <point x="699.58" y="541" type="line"/>
      <point x="54.8724" y="311" type="line"/>
    </contour>
  </outline>
  <guideline angle="90" x="647" y="0"/>
</glyph>
<glyph name="equal" format="2">
  <advance width="700"/>
  <unicode hex="003D"/>
  <outline>
    <contour>
      <point x="49.7084" y="199" type="line"/>
      <point x="649.708" y="199" type="line"/>
      <point x="653.596" y="219" type="line"/>
      <point x="53.596" y="219" type="line"/>
    </contour>
    <contour>
      <point x="85.0856" y="381" type="line"/>
      <point x="685.086" y="381" type="line"/>
      <point x="688.973" y="401" type="line"/>
      <point x="88.9733" y="401" type="line"/>
    </contour>
  </outline>
</glyph>
<glyph name="greater" format="2">
  <advance width="700"/>
  <unicode hex="003E"/>
  <outline>
    <contour>
      <point x="653.596" y="289" type="line"/>
      <point x="657.872" y="311" type="line"/>
      <point x="102.58" y="541" type="line"/>
      <point x="98.4978" y="520" type="line"/>
      <point x="637.217" y="295.903" type="line"/>
      <point x="639.056" y="304.421" type="line"/>
      <point x="12.9705" y="80" type="line"/>
      <point x="8.88849" y="59" type="line"/>
    </contour>
  </outline>
</glyph>
<glyph name="question" format="2">
  <advance width="516"/>
  <unicode hex="003F"/>
  <outline>
    <contour>
      <point x="136.371" y="0" type="line"/>
      <point x="158.371" y="0" type="line"/>
      <point x="182.282" y="123" type="line"/>
      <point x="160.282" y="123" type="line"/>
    </contour>
    <contour>
      <point x="188.498" y="263" type="curve" smooth="yes"/>
      <point x="175.279" y="195" type="line"/>
      <point x="195.279" y="195" type="line"/>
      <point x="208.498" y="263" type="line" smooth="yes"/>
      <point x="243.693" y="444.046"/>
      <point x="461.131" y="399.375"/>
      <point x="461.131" y="603.317" type="curve" smooth="yes"/>
      <point x="461.131" y="691.541"/>
      <point x="404.921" y="737"/>
      <point x="306.644" y="737" type="curve" smooth="yes"/>
      <point x="211.5" y="737"/>
      <point x="140.674" y="684"/>
      <point x="79.553" y="598.776" type="curve"/>
      <point x="93.5208" y="588.633" type="line"/>
      <point x="142.326" y="656.628"/>
      <point x="207.945" y="717.044"/>
      <point x="303.764" y="717.044" type="curve" smooth="yes"/>
      <point x="393.268" y="717.044"/>
      <point x="441.221" y="675.458"/>
      <point x="441.221" y="600.217" type="curve" smooth="yes"/>
      <point x="441.221" y="410.067"/>
      <point x="226.886" y="460.47"/>
    </contour>
  </outline>
  <guideline angle="147.529" x="91" y="563"/>
  <guideline angle="0" x="0" y="717"/>
  <guideline angle="0" x="0" y="737"/>
  <guideline angle="62.5924" x="38.3704" y="605"/>
  <guideline angle="62.5603" x="37.6923" y="563"/>
  <guideline angle="90" x="209" y="0"/>
  <guideline angle="90" x="229" y="0"/>
</glyph>
<glyph name="at" format="2">
  <advance width="1000"/>
  <unicode hex="0040"/>
  <outline>
    <contour>
      <point x="72.8079" y="165.006" type="curve" smooth="yes"/>
      <point x="72.8079" y="-34.6299"/>
      <point x="202.029" y="-143"/>
      <point x="422.017" y="-143" type="curve" smooth="yes"/>
      <point x="480.467" y="-143"/>
      <point x="543.703" y="-123.542"/>
      <point x="597.514" y="-89" type="curve"/>
      <point x="601.013" y="-71" type="line"/>
      <point x="535.994" y="-109.815"/>
      <point x="490.327" y="-123"/>
      <point x="420.905" y="-123" type="curve" smooth="yes"/>
      <point x="216.207" y="-123"/>
      <point x="93.6438" y="-17.9406"/>
      <point x="93.6438" y="171.934" type="curve" smooth="yes"/>
      <point x="93.6438" y="442.77"/>
      <point x="280.596" y="661"/>
      <point x="562.299" y="661" type="curve" smooth="yes"/>
      <point x="764.787" y="661"/>
      <point x="882.119" y="556.48"/>
      <point x="882.119" y="384.344" type="curve" smooth="yes"/>
      <point x="882.119" y="277.958"/>
      <point x="823.818" y="41"/>
      <point x="699.514" y="41" type="curve" smooth="yes"/>
      <point x="642.652" y="41"/>
      <point x="615.52" y="72.7112"/>
      <point x="615.52" y="139.17" type="curve" smooth="yes"/>
      <point x="615.52" y="148.075"/>
      <point x="616.406" y="157.386"/>
      <point x="618.278" y="167.017" type="curve" smooth="yes"/>
      <point x="680.088" y="485" type="line"/>
      <point x="660.088" y="485" type="line"/>
      <point x="640.29" y="383.148" type="line"/>
      <point x="636.852" y="446.801"/>
      <point x="579.643" y="492"/>
      <point x="502.515" y="492" type="curve" smooth="yes"/>
      <point x="354.457" y="492"/>
      <point x="256.792" y="335.808"/>
      <point x="256.792" y="200.04" type="curve" smooth="yes"/>
      <point x="256.792" y="91.9778"/>
      <point x="317.206" y="26"/>
      <point x="410.393" y="26" type="curve" smooth="yes"/>
      <point x="481.749" y="26"/>
      <point x="561.948" y="91.9301"/>
      <point x="598.401" y="170.231" type="curve"/>
      <point x="583.181" y="91.9301"/>
      <point x="608.71" y="21"/>
      <point x="693.997" y="21" type="curve" smooth="yes"/>
      <point x="842.988" y="21"/>
      <point x="903.234" y="269.535"/>
      <point x="903.234" y="394.292" type="curve" smooth="yes"/>
      <point x="903.234" y="577.066"/>
      <point x="780.844" y="681"/>
      <point x="558.186" y="681" type="curve" smooth="yes"/>
      <point x="264.2" y="681"/>
      <point x="72.8079" y="445.484"/>
    </contour>
    <contour>
      <point x="419.755" y="46" type="curve" smooth="yes"/>
      <point x="329.435" y="46"/>
      <point x="277.236" y="106.529"/>
      <point x="277.236" y="203.857" type="curve" smooth="yes"/>
      <point x="277.236" y="328.379"/>
      <point x="366.424" y="472"/>
      <point x="502.415" y="472" type="curve" smooth="yes"/>
      <point x="580.702" y="472"/>
      <point x="625.04" y="424.507"/>
      <point x="625.04" y="335.648" type="curve" smooth="yes"/>
      <point x="625.04" y="229.145"/>
      <point x="538.038" y="46"/>
    </contour>
  </outline>
</glyph>
<glyph name="A" format="2">
  <advance width="707"/>
  <unicode hex="0041"/>
  <anchor x="508.75" y="797" name="top"/>
  <anchor x="653.773" y="10" name="ogonekUC"/>
  <anchor x="339.25" y="-75" name="bottom"/>
  <anchor x="333.171" y="722" name="tonos"/>
  <outline>
    <contour>
      <point x="40.8287" y="0" type="line"/>
      <point x="63.8287" y="0" type="line"/>
      <point x="489.969" y="702.23" type="line"/>
      <point x="643.829" y="0" type="line"/>
      <point x="666.829" y="0" type="line"/>
      <point x="504.185" y="722" type="line"/>
      <point x="484.185" y="722" type="line"/>
    </contour>
    <contour>
      <point x="600.04" y="248" type="line"/>
      <point x="205.04" y="248" type="line"/>
      <point x="193.541" y="230" type="line"/>
      <point x="603.541" y="230" type="line"/>
    </contour>
  </outline>
  <guideline angle="90" x="424" y="0"/>
  <guideline angle="0" x="0" y="230"/>
  <guideline angle="0" x="0" y="248"/>
  <guideline angle="292.446" x="434" y="702"/>
  <guideline angle="67.5542" x="124" y="0"/>
</glyph>
<glyph name="B" format="2">
  <advance width="625"/>
  <unicode hex="0042"/>
  <anchor x="342.75" y="797" name="top"/>
  <outline>
    <contour>
      <point x="70.8287" y="0" type="line"/>
      <point x="297.829" y="0" type="line" smooth="yes"/>
      <point x="443.693" y="0"/>
      <point x="540" y="114.676"/>
      <point x="540" y="255" type="curve" smooth="yes"/>
      <point x="540" y="320.341"/>
      <point x="502.35" y="367.575"/>
      <point x="434.085" y="383" type="curve"/>
      <point x="445.989" y="372.583" type="line"/>
      <point x="445.616" y="387.239" type="line"/>
      <point x="434.473" y="378.195" type="line"/>
      <point x="539.587" y="409.195"/>
      <point x="579.646" y="502.942"/>
      <point x="579.646" y="584.913" type="curve" smooth="yes"/>
      <point x="579.646" y="678.964"/>
      <point x="526.911" y="722"/>
      <point x="422.186" y="722" type="curve" smooth="yes"/>
      <point x="211.186" y="722" type="line"/>
      <point x="207.298" y="702" type="line"/>
      <point x="414.298" y="702" type="line" smooth="yes"/>
      <point x="515.458" y="702"/>
      <point x="557.587" y="661.392"/>
      <point x="557.587" y="584.612" type="curve" smooth="yes"/>
      <point x="557.587" y="490.251"/>
      <point x="493.957" y="390"/>
      <point x="384.645" y="390" type="curve" smooth="yes"/>
      <point x="146.645" y="390" type="line"/>
      <point x="142.757" y="370" type="line"/>
      <point x="382.101" y="370" type="line" smooth="yes"/>
      <point x="481.587" y="370"/>
      <point x="517.87" y="311.836"/>
      <point x="518" y="248" type="curve" smooth="yes"/>
      <point x="518.263" y="118.188"/>
      <point x="425.057" y="20"/>
      <point x="293.717" y="20" type="curve" smooth="yes"/>
      <point x="74.7167" y="20" type="line"/>
    </contour>
    <contour>
      <point x="60" y="0" type="line"/>
      <point x="82" y="0" type="line"/>
      <point x="222" y="722" type="line"/>
      <point x="200" y="722" type="line"/>
    </contour>
  </outline>
  <guideline angle="90" x="61" y="0"/>
</glyph>
<glyph name="C" format="2">
  <advance width="674"/>
  <unicode hex="0043"/>
  <anchor x="432.778" y="797" name="top"/>
  <anchor x="301.801" y="10" name="bottom"/>
  <anchor x="298" y="0" name="b.cedilla"/>
  <outline>
    <contour>
      <point x="60" y="233" type="curve" smooth="yes"/>
      <point x="60" y="86"/>
      <point x="126.63" y="-9.99"/>
      <point x="302" y="-10" type="curve" smooth="yes"/>
      <point x="459" y="-10"/>
      <point x="565.85" y="66"/>
      <point x="591" y="197" type="curve"/>
      <point x="571" y="197" type="line"/>
      <point x="548" y="81"/>
      <point x="452.42" y="9.89"/>
      <point x="310" y="10" type="curve" smooth="yes"/>
      <point x="145" y="10.11"/>
      <point x="82" y="104"/>
      <point x="82" y="242" type="curve" smooth="yes"/>
      <point x="82" y="457"/>
      <point x="191" y="712"/>
      <point x="445.482" y="712" type="curve" smooth="yes"/>
      <point x="570" y="712"/>
      <point x="635.1" y="650.95"/>
      <point x="634.992" y="562.323" type="curve" smooth="yes"/>
      <point x="634.98" y="552"/>
      <point x="634.08" y="539"/>
      <point x="631" y="525" type="curve"/>
      <point x="651" y="525" type="line"/>
      <point x="654" y="541"/>
      <point x="656.04" y="556.38"/>
      <point x="655.978" y="572.867" type="curve" smooth="yes"/>
      <point x="655.6" y="672.99"/>
      <point x="578" y="732"/>
      <point x="447.515" y="732" type="curve" smooth="yes"/>
      <point x="171" y="732"/>
      <point x="60" y="467"/>
    </contour>
  </outline>
</glyph>
<glyph name="D" format="2">
  <advance width="708"/>
  <unicode hex="0044"/>
  <anchor x="385.75" y="797" name="top"/>
  <anchor x="235" y="-50" name="b.commabelow"/>
  <outline>
    <contour>
      <point x="60" y="0" type="line"/>
      <point x="82" y="0" type="line"/>
      <point x="222" y="722" type="line"/>
      <point x="200" y="722" type="line"/>
    </contour>
    <contour>
      <point x="69.8287" y="0" type="line"/>
      <point x="277.866" y="0" type="line" smooth="yes"/>
      <point x="518.893" y="0"/>
      <point x="647.241" y="261.241"/>
      <point x="647.241" y="467.018" type="curve" smooth="yes"/>
      <point x="647.241" y="633.65"/>
      <point x="563.081" y="722"/>
      <point x="428.185" y="722" type="curve" smooth="yes"/>
      <point x="210.185" y="722" type="line"/>
      <point x="206.297" y="702" type="line"/>
      <point x="416.297" y="702" type="line" smooth="yes"/>
      <point x="550.376" y="702"/>
      <point x="623.768" y="609.096"/>
      <point x="623.768" y="465.437" type="curve" smooth="yes"/>
      <point x="623.768" y="279.972"/>
      <point x="501.447" y="20"/>
      <point x="293.717" y="20" type="curve" smooth="yes"/>
      <point x="73.7167" y="20" type="line"/>
    </contour>
  </outline>
</glyph>
<glyph name="E" format="2">
  <advance width="549"/>
  <unicode hex="0045"/>
  <anchor x="381.75" y="797" name="top"/>
  <anchor x="101.171" y="722" name="tonos"/>
  <anchor x="229" y="0" name="b.cedilla"/>
  <outline>
    <contour>
      <point x="64.3279" y="18" type="line"/>
      <point x="60.8287" y="0" type="line"/>
      <point x="418.829" y="0" type="line"/>
      <point x="422.328" y="18" type="line"/>
    </contour>
    <contour>
      <point x="60" y="0" type="line"/>
      <point x="82" y="0" type="line"/>
      <point x="222" y="722" type="line"/>
      <point x="200" y="722" type="line"/>
    </contour>
    <contour>
      <point x="134.29" y="377.889" type="line"/>
      <point x="130.427" y="358.018" type="line"/>
      <point x="468.427" y="358.018" type="line"/>
      <point x="472.29" y="377.889" type="line"/>
    </contour>
    <contour>
      <point x="201.186" y="722" type="line"/>
      <point x="197.686" y="704" type="line"/>
      <point x="545.686" y="704" type="line"/>
      <point x="549.186" y="722" type="line"/>
    </contour>
  </outline>
  <guideline angle="90" x="479" y="0"/>
  <guideline angle="90" x="109" y="0"/>
  <guideline angle="61.0736" x="109" y="0"/>
  <guideline angle="117.759" x="489" y="0"/>
  <guideline angle="90" x="297" y="0"/>
</glyph>
<glyph name="F" format="2">
  <advance width="549"/>
  <unicode hex="0046"/>
  <anchor x="330.75" y="797" name="top"/>
  <outline>
    <contour>
      <point x="60" y="0" type="line"/>
      <point x="82" y="0" type="line"/>
      <point x="222" y="722" type="line"/>
      <point x="200" y="722" type="line"/>
    </contour>
    <contour>
      <point x="133.29" y="377.889" type="line"/>
      <point x="129.427" y="358.018" type="line"/>
      <point x="467.427" y="358.018" type="line"/>
      <point x="471.29" y="377.889" type="line"/>
    </contour>
    <contour>
      <point x="201.186" y="722" type="line"/>
      <point x="197.686" y="704" type="line"/>
      <point x="545.686" y="704" type="line"/>
      <point x="549.186" y="722" type="line"/>
    </contour>
  </outline>
</glyph>
<glyph name="G" format="2">
  <advance width="743"/>
  <unicode hex="0047"/>
  <anchor x="455.778" y="797" name="top"/>
  <anchor x="265" y="-50" name="b.commabelow"/>
  <outline>
    <contour>
      <point x="60.28" y="232.66" type="curve" smooth="yes"/>
      <point x="60.28" y="85.3"/>
      <point x="127.85" y="-10"/>
      <point x="299.91" y="-10" type="curve" smooth="yes"/>
      <point x="418.14" y="-10"/>
      <point x="515.29" y="4.26"/>
      <point x="578.88" y="31" type="curve"/>
      <point x="636.23" y="326" type="line"/>
      <point x="371.23" y="326" type="line"/>
      <point x="367.39" y="306.26" type="line"/>
      <point x="610.39" y="306.26" type="line"/>
      <point x="559.21" y="43.32" type="line"/>
      <point x="493.15" y="20.44"/>
      <point x="413.76" y="10.11"/>
      <point x="303.82" y="10.11" type="curve" smooth="yes"/>
      <point x="145.689" y="10.11"/>
      <point x="83.47" y="104.06"/>
      <point x="83.47" y="242.38" type="curve" smooth="yes"/>
      <point x="83.47" y="457.64"/>
      <point x="191.98" y="712"/>
      <point x="448.484" y="712" type="curve" smooth="yes"/>
      <point x="574.98" y="712"/>
      <point x="660.11" y="650.14"/>
      <point x="660.11" y="557.11" type="curve" smooth="yes"/>
      <point x="660.11" y="546.78"/>
      <point x="659.05" y="536.05"/>
      <point x="656.91" y="525" type="curve"/>
      <point x="678.91" y="525" type="line"/>
      <point x="681.47" y="538.13"/>
      <point x="682.72" y="550.79"/>
      <point x="682.72" y="562.96" type="curve" smooth="yes"/>
      <point x="682.72" y="666.06"/>
      <point x="592.66" y="732"/>
      <point x="452.797" y="732" type="curve" smooth="yes"/>
      <point x="172.13" y="732"/>
      <point x="60.28" y="466.46"/>
    </contour>
  </outline>
  <guideline angle="90" x="373" y="0"/>
</glyph>
<glyph name="H" format="2">
  <advance width="742"/>
  <unicode hex="0048"/>
  <anchor x="385.75" y="797" name="top"/>
  <anchor x="269.25" y="-75" name="bottom"/>
  <anchor x="53.1713" y="722" name="tonos"/>
  <anchor x="64" y="0" name="b.cedilla"/>
  <outline>
    <contour>
      <point x="146.506" y="379" type="line"/>
      <point x="143.007" y="361" type="line"/>
      <point x="600.007" y="361" type="line"/>
      <point x="603.506" y="379" type="line"/>
    </contour>
    <contour>
      <point x="60" y="0" type="line"/>
      <point x="82" y="0" type="line"/>
      <point x="222" y="722" type="line"/>
      <point x="200" y="722" type="line"/>
    </contour>
    <contour>
      <point x="520" y="0" type="line"/>
      <point x="542" y="0" type="line"/>
      <point x="682" y="722" type="line"/>
      <point x="660" y="722" type="line"/>
    </contour>
  </outline>
  <guideline angle="90" x="60" y="0"/>
  <guideline angle="90" x="541" y="0"/>
  <guideline angle="56.3832" x="61" y="0"/>
  <guideline angle="123.617" x="541" y="0"/>
  <guideline angle="90" x="301" y="0"/>
  <guideline angle="90" x="682" y="0"/>
</glyph>
<glyph name="I" format="2">
  <advance width="282"/>
  <unicode hex="0049"/>
  <anchor x="225.75" y="797" name="top"/>
  <anchor x="112.171" y="722" name="tonos"/>
  <outline>
    <contour>
      <point x="60" y="0" type="line"/>
      <point x="82" y="0" type="line"/>
      <point x="222" y="722" type="line"/>
      <point x="200" y="722" type="line"/>
    </contour>
  </outline>
  <guideline angle="90" x="60" y="0"/>
  <guideline angle="90" x="222" y="0"/>
</glyph>
<glyph name="J" format="2">
  <advance width="491"/>
  <unicode hex="004A"/>
  <anchor x="486.75" y="797" name="top"/>
  <outline>
    <contour>
      <point x="46.1097" y="174" type="line"/>
      <point x="42.5226" y="155.847"/>
      <point x="40.8336" y="139.007"/>
      <point x="40.8336" y="123.481" type="curve" smooth="yes"/>
      <point x="40.8336" y="31.8696"/>
      <point x="99.639" y="-14"/>
      <point x="174.292" y="-14" type="curve" smooth="yes"/>
      <point x="264.287" y="-14"/>
      <point x="349.666" y="35.1732"/>
      <point x="374.398" y="162.395" type="curve" smooth="yes"/>
      <point x="483.186" y="722" type="line"/>
      <point x="461.186" y="722" type="line"/>
      <point x="352.398" y="162.395" type="line" smooth="yes"/>
      <point x="329.501" y="44.6117"/>
      <point x="258.727" y="5.90916"/>
      <point x="174.162" y="5.90916" type="curve" smooth="yes"/>
      <point x="113.321" y="5.90916"/>
      <point x="61.3503" y="50.4904"/>
      <point x="61.3503" y="131.593" type="curve" smooth="yes"/>
      <point x="61.3503" y="144.775"/>
      <point x="62.7233" y="158.923"/>
      <point x="65.6544" y="174" type="curve"/>
    </contour>
  </outline>
</glyph>
<glyph name="K" format="2">
  <advance width="528"/>
  <unicode hex="004B"/>
  <anchor x="403" y="797" name="top"/>
  <anchor x="205" y="-50" name="b.commabelow"/>
  <anchor x="232.25" y="-80" name="bottom"/>
  <outline>
    <contour>
      <point x="60" y="0" type="line"/>
      <point x="82" y="0" type="line"/>
      <point x="222" y="722" type="line"/>
      <point x="200" y="722" type="line"/>
    </contour>
    <contour>
      <point x="159.397" y="398.266" type="line"/>
      <point x="423.829" y="0" type="line"/>
      <point x="452.829" y="0" type="line"/>
      <point x="182.615" y="407.866" type="line"/>
      <point x="183.554" y="393.725" type="line"/>
      <point x="567.185" y="722" type="line"/>
      <point x="536.185" y="722" type="line"/>
    </contour>
  </outline>
  <guideline angle="220.663" x="536" y="722"/>
  <guideline angle="303.527" x="155" y="406"/>
  <guideline angle="79.0262" x="246" y="0"/>
</glyph>
<glyph name="L" format="2">
  <advance width="474"/>
  <unicode hex="004C"/>
  <anchor x="220.75" y="797" name="top"/>
  <anchor x="235" y="-50" name="b.commabelow"/>
  <outline>
    <contour>
      <point x="65.3279" y="18" type="line"/>
      <point x="61.8287" y="0" type="line"/>
      <point x="419.829" y="0" type="line"/>
      <point x="423.328" y="18" type="line"/>
    </contour>
    <contour>
      <point x="60" y="0" type="line"/>
      <point x="82" y="0" type="line"/>
      <point x="222" y="722" type="line"/>
      <point x="200" y="722" type="line"/>
    </contour>
  </outline>
</glyph>
<glyph name="M" format="2">
  <advance width="846"/>
  <unicode hex="004D"/>
  <outline>
    <contour>
      <point x="60.8287" y="0" type="line"/>
      <point x="82.8287" y="0" type="line"/>
      <point x="223.185" y="722" type="line"/>
      <point x="201.185" y="722" type="line"/>
    </contour>
    <contour>
      <point x="622.783" y="0" type="line"/>
      <point x="644.783" y="0" type="line"/>
      <point x="785.14" y="722" type="line"/>
      <point x="763.14" y="722" type="line"/>
    </contour>
    <contour>
      <point x="342.829" y="0" type="line"/>
      <point x="362.829" y="0" type="line"/>
      <point x="773.186" y="722" type="line"/>
      <point x="753.186" y="722" type="line"/>
      <point x="352.652" y="25.9373" type="line"/>
      <point x="363.044" y="25.9216" type="line"/>
      <point x="233.186" y="722" type="line"/>
      <point x="213.186" y="722" type="line"/>
    </contour>
  </outline>
  <guideline angle="90" x="423" y="0"/>
</glyph>
<glyph name="N" format="2">
  <advance width="782"/>
  <unicode hex="004E"/>
  <anchor x="500.75" y="797" name="top"/>
  <anchor x="305" y="-50" name="b.commabelow"/>
  <outline>
    <contour>
      <point x="213.41" y="722" type="line"/>
      <point x="545.829" y="0" type="line"/>
      <point x="568.482" y="0" type="line"/>
      <point x="235.186" y="722" type="line"/>
    </contour>
    <contour>
      <point x="223.048" y="722" type="line"/>
      <point x="201.186" y="722" type="line"/>
      <point x="60.8287" y="0" type="line"/>
      <point x="82.6908" y="0" type="line"/>
    </contour>
    <contour>
      <point x="558.932" y="0" type="line"/>
      <point x="580.932" y="0" type="line"/>
      <point x="721.289" y="722" type="line"/>
      <point x="699.289" y="722" type="line"/>
    </contour>
  </outline>
</glyph>
<glyph name="O" format="2">
  <advance width="742"/>
  <unicode hex="004F"/>
  <anchor x="475" y="797" name="top"/>
  <anchor x="135" y="722" name="tonos"/>
  <anchor x="290" y="0" name="b.cedilla"/>
  <anchor x="310" y="0" name="ogonekUC"/>
  <anchor x="290" y="-80" name="bottom"/>
  <outline>
    <contour>
      <point x="60" y="233" type="curve" smooth="yes"/>
      <point x="60" y="87.2"/>
      <point x="155.6" y="-10"/>
      <point x="299" y="-10" type="curve" smooth="yes"/>
      <point x="524.802" y="-10"/>
      <point x="682" y="194.809"/>
      <point x="682" y="489" type="curve" smooth="yes"/>
      <point x="682" y="649.117"/>
      <point x="602.212" y="732"/>
      <point x="448.074" y="732" type="curve" smooth="yes"/>
      <point x="218.546" y="732"/>
      <point x="60" y="528.136"/>
    </contour>
    <contour>
      <point x="82" y="242" type="curve" smooth="yes"/>
      <point x="81.6101" y="513.408"/>
      <point x="234.152" y="712"/>
      <point x="443.016" y="712" type="curve" smooth="yes"/>
      <point x="584.265" y="712"/>
      <point x="660" y="630.675"/>
      <point x="660" y="479" type="curve" smooth="yes"/>
      <point x="660" y="208.721"/>
      <point x="508.925" y="10.2495"/>
      <point x="303" y="10" type="curve" smooth="yes"/>
      <point x="170.676" y="9.8397"/>
      <point x="82.2001" y="102.72"/>
    </contour>
  </outline>
  <guideline angle="90" x="74" y="0"/>
  <guideline angle="90" x="96" y="0"/>
  <guideline angle="0" x="0" y="714"/>
</glyph>
<glyph name="P" format="2">
  <advance width="711"/>
  <unicode hex="0050"/>
  <anchor x="390.75" y="797" name="top"/>
  <outline>
    <contour>
      <point x="208.308" y="702.052" type="line"/>
      <point x="434.308" y="702.052" type="line" smooth="yes"/>
      <point x="565.423" y="702.052"/>
      <point x="627.345" y="659.421"/>
      <point x="627.254" y="566.633" type="curve" smooth="yes"/>
      <point x="627.091" y="398.932"/>
      <point x="524.746" y="326.315"/>
      <point x="361.264" y="326.315" type="curve" smooth="yes"/>
      <point x="135.264" y="326.315" type="line"/>
      <point x="131.315" y="306" type="line"/>
      <point x="344.315" y="306" type="line" smooth="yes"/>
      <point x="530.619" y="306"/>
      <point x="650.36" y="380.4"/>
      <point x="650.36" y="575.501" type="curve" smooth="yes"/>
      <point x="650.36" y="678.664"/>
      <point x="581.079" y="722"/>
      <point x="425.185" y="722" type="curve" smooth="yes"/>
      <point x="201.185" y="722" type="line"/>
      <point x="199.241" y="712" type="line"/>
    </contour>
    <contour>
      <point x="60.8287" y="0" type="line"/>
      <point x="82.8287" y="0" type="line"/>
      <point x="221.241" y="712" type="line"/>
      <point x="213.427" y="722" type="line"/>
      <point x="201.185" y="722" type="line"/>
    </contour>
  </outline>
</glyph>
<glyph name="Q" format="2">
  <advance width="742"/>
  <unicode hex="0051"/>
  <anchor x="452.778" y="797" name="top"/>
  <outline>
    <component base="O"/>
    <contour>
      <point x="424.257" y="10.1269" type="curve"/>
      <point x="332.896" y="-8.4" type="line"/>
      <point x="340.169" y="-7" type="line" smooth="yes"/>
      <point x="365.142" y="-2.1922"/>
      <point x="478.857" y="0"/>
      <point x="498.857" y="0" type="curve" smooth="yes"/>
      <point x="677.857" y="0" type="line"/>
      <point x="681.744" y="20" type="line"/>
      <point x="634.787" y="20"/>
      <point x="439.49" y="17.2674"/>
    </contour>
  </outline>
</glyph>
<glyph name="R" format="2">
  <advance width="712"/>
  <unicode hex="0052"/>
  <anchor x="416.75" y="797" name="top"/>
  <anchor x="309" y="-50" name="b.commabelow"/>
  <outline>
    <contour>
      <point x="208.298" y="702" type="line"/>
      <point x="444.298" y="702" type="line" smooth="yes"/>
      <point x="579.418" y="702"/>
      <point x="629.277" y="669.946"/>
      <point x="629.277" y="582.46" type="curve" smooth="yes"/>
      <point x="629.277" y="475.648"/>
      <point x="554.958" y="381"/>
      <point x="431.895" y="381" type="curve" smooth="yes"/>
      <point x="145.895" y="381" type="line"/>
      <point x="142.007" y="361" type="line"/>
      <point x="442.586" y="361" type="line" smooth="yes"/>
      <point x="498.875" y="361"/>
      <point x="536.401" y="325.723"/>
      <point x="536.401" y="272.807" type="curve" smooth="yes"/>
      <point x="536.401" y="143" type="line" smooth="yes"/>
      <point x="536.401" y="80.2093"/>
      <point x="535.633" y="35"/>
      <point x="538.829" y="0" type="curve"/>
      <point x="559.829" y="0" type="line"/>
      <point x="556.827" y="36"/>
      <point x="556.293" y="97.962"/>
      <point x="556.293" y="155" type="curve" smooth="yes"/>
      <point x="556.293" y="271.379" type="line" smooth="yes"/>
      <point x="556.293" y="324.477"/>
      <point x="524.156" y="364.325"/>
      <point x="475.951" y="371" type="curve"/>
      <point x="475.173" y="367" type="line"/>
      <point x="585.731" y="386.786"/>
      <point x="651.549" y="487.39"/>
      <point x="651.549" y="588.611" type="curve" smooth="yes"/>
      <point x="651.549" y="682.531"/>
      <point x="594.885" y="722"/>
      <point x="451.185" y="722" type="curve" smooth="yes"/>
      <point x="212.185" y="722" type="line"/>
    </contour>
    <contour>
      <point x="60" y="0" type="line"/>
      <point x="82" y="0" type="line"/>
      <point x="222" y="722" type="line"/>
      <point x="200" y="722" type="line"/>
    </contour>
  </outline>
  <guideline angle="0" x="0" y="371"/>
</glyph>
<glyph name="S" format="2">
  <advance width="706"/>
  <unicode hex="0053"/>
  <anchor x="433" y="797" name="top"/>
  <anchor x="313" y="0" name="b.cedilla"/>
  <anchor x="285" y="-50" name="b.commabelow"/>
  <anchor x="290" y="-80" name="bottom"/>
  <outline>
    <contour>
      <point x="60.7621" y="172.536" type="curve" smooth="yes"/>
      <point x="60.7621" y="60.4599"/>
      <point x="148.058" y="-10"/>
      <point x="286.913" y="-10" type="curve" smooth="yes"/>
      <point x="489.502" y="-10"/>
      <point x="604.601" y="72.4632"/>
      <point x="604.601" y="217.608" type="curve" smooth="yes"/>
      <point x="604.601" y="295.56"/>
      <point x="532.506" y="349.1"/>
      <point x="387.502" y="378.832" type="curve" smooth="yes"/>
      <point x="222.185" y="412.729"/>
      <point x="157.321" y="452.76"/>
      <point x="157.239" y="520.938" type="curve" smooth="yes"/>
      <point x="157.104" y="633.71"/>
      <point x="261.026" y="712.278"/>
      <point x="410.324" y="712.278" type="curve" smooth="yes"/>
      <point x="554.345" y="712.278"/>
      <point x="625.203" y="667.603"/>
      <point x="625.203" y="576.8" type="curve" smooth="yes"/>
      <point x="625.203" y="563.823"/>
      <point x="623.756" y="549.893"/>
      <point x="620.861" y="535" type="curve"/>
      <point x="640.861" y="535" type="line"/>
      <point x="643.77" y="549.966"/>
      <point x="645.227" y="564.209"/>
      <point x="645.227" y="577.687" type="curve" smooth="yes"/>
      <point x="645.227" y="676.685"/>
      <point x="566.584" y="732"/>
      <point x="425.832" y="732" type="curve" smooth="yes"/>
      <point x="248.687" y="732"/>
      <point x="136.337" y="650.16"/>
      <point x="136.337" y="521.121" type="curve" smooth="yes"/>
      <point x="136.337" y="442.667"/>
      <point x="200.696" y="395.246"/>
      <point x="346.115" y="366.552" type="curve" smooth="yes"/>
      <point x="513.199" y="333.582"/>
      <point x="581.91" y="289.161"/>
      <point x="581.91" y="214.108" type="curve" smooth="yes"/>
      <point x="581.91" y="84.6858"/>
      <point x="478.317" y="10"/>
      <point x="298.801" y="10" type="curve" smooth="yes"/>
      <point x="165.16" y="10"/>
      <point x="81.5031" y="74.3585"/>
      <point x="81.5031" y="177.17" type="curve" smooth="yes"/>
      <point x="81.5031" y="190.629"/>
      <point x="82.9429" y="204.603"/>
      <point x="85.8133" y="219" type="curve"/>
      <point x="65.4305" y="219" type="line"/>
      <point x="62.3218" y="203.009"/>
      <point x="60.7622" y="187.486"/>
    </contour>
  </outline>
  <guideline angle="346.485" x="53" y="448.094"/>
</glyph>
<glyph name="T" format="2">
  <advance width="617"/>
  <unicode hex="0054"/>
  <anchor x="343.75" y="797" name="top"/>
  <anchor x="182" y="0" name="b.cedilla"/>
  <anchor x="153" y="-50" name="b.commabelow"/>
  <outline>
    <contour>
      <point x="612.297" y="702" type="line"/>
      <point x="616.185" y="722" type="line"/>
      <point x="44.1855" y="722" type="line"/>
      <point x="40.2975" y="702" type="line"/>
      <point x="315.297" y="702" type="line"/>
      <point x="178.829" y="0" type="line"/>
      <point x="200.822" y="0" type="line"/>
      <point x="337.29" y="702" type="line"/>
    </contour>
  </outline>
  <guideline angle="90" x="260" y="0"/>
</glyph>
<glyph name="U" format="2">
  <advance width="729"/>
  <unicode hex="0055"/>
  <anchor x="425.75" y="797" name="top"/>
  <anchor x="261.11" y="-50" name="bottom"/>
  <outline>
    <contour>
      <point x="76.4255" y="322" type="line" smooth="yes"/>
      <point x="65.9698" y="268.216"/>
      <point x="60.5568" y="221.771"/>
      <point x="60.5568" y="182.077" type="curve" smooth="yes"/>
      <point x="60.5568" y="44.4969"/>
      <point x="125.582" y="-12"/>
      <point x="271.052" y="-12" type="curve" smooth="yes"/>
      <point x="451.125" y="-12"/>
      <point x="542.326" y="74.5723"/>
      <point x="590.426" y="322" type="curve" smooth="yes"/>
      <point x="668.186" y="722" type="line"/>
      <point x="646.186" y="722" type="line"/>
      <point x="566.482" y="312" type="line" smooth="yes"/>
      <point x="522.199" y="84.2099"/>
      <point x="435.358" y="7.63905"/>
      <point x="276.577" y="7.63905" type="curve" smooth="yes"/>
      <point x="147.765" y="7.63905"/>
      <point x="82.8436" y="58.0337"/>
      <point x="82.8436" y="189.813" type="curve" smooth="yes"/>
      <point x="82.8436" y="224.66"/>
      <point x="87.3832" y="265.198"/>
      <point x="96.4815" y="312" type="curve" smooth="yes"/>
      <point x="176.186" y="722" type="line"/>
      <point x="154.186" y="722" type="line"/>
    </contour>
  </outline>
  <guideline angle="90" x="341" y="0"/>
</glyph>
<glyph name="V" format="2">
  <advance width="553"/>
  <unicode hex="0056"/>
  <anchor x="340.75" y="797" name="top"/>
  <outline>
    <contour>
      <point x="176.829" y="0" type="line"/>
      <point x="194.829" y="0" type="line"/>
      <point x="592.185" y="722" type="line"/>
      <point x="571.711" y="722" type="line"/>
      <point x="185.769" y="19.3611" type="line"/>
      <point x="193.416" y="19.3611" type="line"/>
      <point x="79.7292" y="722" type="line"/>
      <point x="60.1855" y="722" type="line"/>
    </contour>
  </outline>
  <guideline angle="90" x="256" y="0"/>
  <guideline angle="109.593" x="247" y="0"/>
  <guideline angle="250.407" x="502.288" y="722"/>
  <guideline angle="109.593" x="266.508" y="0"/>
  <guideline angle="250.407" x="522" y="722"/>
</glyph>
<glyph name="W" format="2">
  <advance width="820"/>
  <unicode hex="0057"/>
  <anchor x="474" y="797" name="top"/>
  <anchor x="309" y="-80" name="bottom"/>
  <outline>
    <contour>
      <point x="111.02" y="0" type="line"/>
      <point x="134.673" y="0" type="line"/>
      <point x="459.015" y="702.563" type="line"/>
      <point x="453.015" y="702.563" type="line"/>
      <point x="501.829" y="0" type="line"/>
      <point x="525.721" y="0" type="line"/>
      <point x="859.818" y="722" type="line"/>
      <point x="840.185" y="722" type="line"/>
      <point x="514.733" y="19.4075" type="line"/>
      <point x="520.732" y="19.4025" type="line"/>
      <point x="471.753" y="722" type="line"/>
      <point x="447.808" y="722" type="line"/>
      <point x="123.519" y="19.4025" type="line"/>
      <point x="129.702" y="19.4075" type="line"/>
      <point x="79.3551" y="722" type="line"/>
      <point x="60.3971" y="722" type="line"/>
    </contour>
  </outline>
  <guideline angle="90" x="390" y="0"/>
</glyph>
<glyph name="X" format="2">
  <advance width="644"/>
  <unicode hex="0058"/>
  <anchor x="391.75" y="797" name="top"/>
  <outline>
    <contour>
      <point x="472.829" y="0" type="line"/>
      <point x="492.829" y="0" type="line"/>
      <point x="141.563" y="722" type="line"/>
      <point x="121.186" y="722" type="line"/>
    </contour>
    <contour>
      <point x="302.314" y="369.086" type="line"/>
      <point x="-19.1713" y="0" type="line"/>
      <point x="0.828705" y="0" type="line"/>
      <point x="309.41" y="354.499" type="line"/>
    </contour>
    <contour>
      <point x="312.689" y="353.683" type="line"/>
      <point x="633.493" y="722" type="line"/>
      <point x="613.493" y="722" type="line"/>
      <point x="305.67" y="368.358" type="line"/>
    </contour>
  </outline>
  <guideline angle="90" x="307" y="0"/>
  <guideline angle="0" x="0" y="371"/>
</glyph>
<glyph name="Y" format="2">
  <advance width="577"/>
  <unicode hex="0059"/>
  <anchor x="342" y="797" name="top"/>
  <anchor x="53" y="722" name="tonos"/>
  <anchor x="165" y="-80" name="bottom"/>
  <outline>
    <contour>
      <point x="247.442" y="255.692" type="line"/>
      <point x="616.185" y="722" type="line"/>
      <point x="596.185" y="722" type="line"/>
      <point x="253.777" y="288.453" type="line"/>
      <point x="80.4246" y="722" type="line"/>
      <point x="60.1855" y="722" type="line"/>
    </contour>
    <contour>
      <point x="186.829" y="0" type="line"/>
      <point x="208.823" y="0" type="line"/>
      <point x="263.21" y="279.768" type="line"/>
      <point x="241.216" y="279.768" type="line"/>
    </contour>
  </outline>
  <guideline angle="90" x="268" y="0"/>
  <guideline angle="259.084" x="252" y="280"/>
</glyph>
<glyph name="Z" format="2">
  <advance width="618"/>
  <unicode hex="005A"/>
  <anchor x="373" y="797" name="top"/>
  <anchor x="250" y="0" name="b.cedilla"/>
  <anchor x="234" y="-80" name="bottom"/>
  <outline>
    <contour>
      <point x="-49.1713" y="0" type="line"/>
      <point x="476.829" y="0" type="line"/>
      <point x="480.717" y="20" type="line"/>
      <point x="-18.037" y="20" type="line"/>
      <point x="603.325" y="702.141" type="line"/>
      <point x="607.185" y="722" type="line"/>
      <point x="111.185" y="722" type="line"/>
      <point x="107.297" y="702" type="line"/>
      <point x="576.855" y="702" type="line"/>
      <point x="-45.2543" y="20.1497" type="line"/>
    </contour>
  </outline>
  <guideline angle="90" x="289" y="0"/>
</glyph>
<glyph name="bracketleft" format="2">
  <advance width="396"/>
  <unicode hex="005B"/>
  <outline>
    <contour>
      <point x="183.341" y="-198" type="line"/>
      <point x="187.229" y="-178" type="line"/>
      <point x="23.0903" y="-178" type="line"/>
      <point x="194.145" y="702" type="line"/>
      <point x="358.284" y="702" type="line"/>
      <point x="362.171" y="722" type="line"/>
      <point x="176.171" y="722" type="line"/>
      <point x="-2.6586" y="-198" type="line"/>
    </contour>
  </outline>
</glyph>
<glyph name="backslash" format="2">
  <advance width="186"/>
  <unicode hex="005C"/>
  <outline>
    <contour>
      <point x="145.789" y="-52" type="line"/>
      <point x="62.9605" y="736" type="line"/>
      <point x="40.532" y="736" type="line"/>
      <point x="123.36" y="-52" type="line"/>
    </contour>
  </outline>
</glyph>
<glyph name="bracketright" format="2">
  <advance width="396"/>
  <unicode hex="005D"/>
  <outline>
    <contour>
      <point x="183.341" y="-198" type="line"/>
      <point x="362.171" y="722" type="line"/>
      <point x="176.171" y="722" type="line"/>
      <point x="172.287" y="702.015" type="line"/>
      <point x="336.293" y="702.015" type="line"/>
      <point x="165.235" y="-178" type="line"/>
      <point x="1.229" y="-178" type="line"/>
      <point x="-2.65861" y="-198" type="line"/>
    </contour>
  </outline>
</glyph>
<glyph name="asciicircum" format="2">
  <advance width="551"/>
  <unicode hex="005E"/>
  <outline>
    <contour>
      <point x="510.658" y="10" type="line"/>
      <point x="404.872" y="610" type="line"/>
      <point x="379.7" y="610" type="line"/>
      <point x="40.2187" y="10" type="line"/>
      <point x="60.322" y="10" type="line"/>
      <point x="388.398" y="590" type="line"/>
      <point x="490.658" y="10" type="line"/>
    </contour>
  </outline>
  <guideline angle="90" x="333" y="0"/>
  <guideline angle="110.339" x="548" y="10"/>
  <guideline angle="249.661" x="333" y="590"/>
  <guideline angle="110.339" x="568" y="10"/>
  <guideline angle="249.661" x="313" y="590"/>
  <guideline angle="249.661" x="333" y="590"/>
  <guideline angle="110.339" x="548" y="10"/>
</glyph>
<glyph name="underscore" format="2">
  <advance width="500"/>
  <unicode hex="005F"/>
  <outline>
    <contour>
      <point x="487.365" y="-110" type="line"/>
      <point x="491.253" y="-90" type="line"/>
      <point x="-8.74713" y="-90" type="line"/>
      <point x="-12.6347" y="-110" type="line"/>
    </contour>
  </outline>
</glyph>
<glyph name="grave" format="2">
  <advance width="180"/>
  <unicode hex="0060"/>
  <outline>
    <contour>
      <point x="150" y="580" type="line"/>
      <point x="160" y="580" type="line"/>
      <point x="50" y="750" type="line"/>
      <point x="20" y="750" type="line"/>
    </contour>
  </outline>
</glyph>
<glyph name="a" format="2">
  <advance width="504"/>
  <unicode hex="0061"/>
  <anchor x="312.979" y="580" name="top"/>
  <anchor x="371.182" y="10" name="ogonekLC"/>
  <anchor x="190.52" y="-50" name="bottom"/>
  <outline>
    <contour>
      <point x="20.3355" y="100.434" type="curve" smooth="yes"/>
      <point x="20.3355" y="31.2611"/>
      <point x="64.1856" y="-10"/>
      <point x="167.775" y="-10" type="curve" smooth="yes"/>
      <point x="264.269" y="-10"/>
      <point x="343.564" y="25.8013"/>
      <point x="394.44" y="79.8601" type="curve"/>
      <point x="386.048" y="78.3064" type="line"/>
      <point x="383.412" y="61.5987"/>
      <point x="382.323" y="45.8175"/>
      <point x="382.206" y="31.8035" type="curve" smooth="yes"/>
      <point x="382.106" y="19.7048"/>
      <point x="382.731" y="8.92333"/>
      <point x="383.712" y="0" type="curve"/>
      <point x="404.239" y="0" type="line"/>
      <point x="403.128" y="6.14957"/>
      <point x="402.472" y="13.7787"/>
      <point x="402.472" y="24.0476" type="curve" smooth="yes"/>
      <point x="402.472" y="58.7654"/>
      <point x="409.973" y="115.957"/>
      <point x="423.62" y="182" type="curve" smooth="yes"/>
      <point x="457.181" y="344.417" type="line" smooth="yes"/>
      <point x="461.341" y="364.55"/>
      <point x="463.459" y="382.708"/>
      <point x="463.459" y="398.976" type="curve" smooth="yes"/>
      <point x="463.459" y="477.514"/>
      <point x="414.089" y="512"/>
      <point x="310.022" y="512" type="curve" smooth="yes"/>
      <point x="184.125" y="512"/>
      <point x="114.96" y="461.53"/>
      <point x="96.1947" y="365" type="curve"/>
      <point x="116.195" y="365" type="line"/>
      <point x="132.955" y="451.213"/>
      <point x="189.74" y="492"/>
      <point x="302.883" y="492" type="curve" smooth="yes"/>
      <point x="399.99" y="492"/>
      <point x="443.95" y="462.797"/>
      <point x="443.95" y="395.173" type="curve" smooth="yes"/>
      <point x="443.95" y="381.402"/>
      <point x="442.126" y="366.036"/>
      <point x="438.558" y="349" type="curve" smooth="yes"/>
      <point x="390.658" y="120.332" type="line" smooth="yes"/>
      <point x="378.44" y="62.0053"/>
      <point x="275.017" y="10"/>
      <point x="165.802" y="10" type="curve" smooth="yes"/>
      <point x="82.8788" y="10"/>
      <point x="40.5927" y="39.9798"/>
      <point x="40.5927" y="104.672" type="curve" smooth="yes"/>
      <point x="40.5927" y="257.667"/>
      <point x="182.494" y="288.16"/>
      <point x="309.454" y="288.16" type="curve" smooth="yes"/>
      <point x="342.544" y="288.16"/>
      <point x="402.253" y="283.941"/>
      <point x="436.581" y="279.752" type="curve"/>
      <point x="438.403" y="300.67" type="line"/>
      <point x="405.841" y="304.221"/>
      <point x="348.347" y="308"/>
      <point x="308.114" y="308" type="curve" smooth="yes"/>
      <point x="168.824" y="308"/>
      <point x="20.3356" y="264.021"/>
    </contour>
  </outline>
  <guideline angle="90" x="250" y="0"/>
</glyph>
<glyph name="b" format="2">
  <advance width="562"/>
  <unicode hex="0062"/>
  <anchor x="320.391" y="754" name="top"/>
  <anchor x="171.723" y="-88" name="bottom"/>
  <outline>
    <contour>
      <point x="20.8762" y="0" type="line"/>
      <point x="40.8287" y="0" type="line"/>
      <point x="76.2624" y="182.272" type="line"/>
      <point x="69.8325" y="182.55" type="line"/>
      <point x="99.0773" y="328.45" type="line"/>
      <point x="104.655" y="328.323" type="line"/>
      <point x="181.185" y="722" type="line"/>
      <point x="161.233" y="722" type="line"/>
    </contour>
    <contour>
      <point x="63.9743" y="170.895" type="line"/>
      <point x="76.2624" y="59.0867"/>
      <point x="127.297" y="-10"/>
      <point x="235.85" y="-10" type="curve" smooth="yes"/>
      <point x="411.251" y="-10"/>
      <point x="511.196" y="170.378"/>
      <point x="511.196" y="322.672" type="curve" smooth="yes"/>
      <point x="511.196" y="450.707"/>
      <point x="440.556" y="512"/>
      <point x="330.361" y="512" type="curve" smooth="yes"/>
      <point x="236.342" y="512"/>
      <point x="136.715" y="443.73"/>
      <point x="96.4383" y="337.891" type="curve"/>
    </contour>
    <contour>
      <point x="323.731" y="492" type="curve" smooth="yes"/>
      <point x="426.448" y="492"/>
      <point x="491.268" y="439.041"/>
      <point x="491.268" y="320.589" type="curve" smooth="yes"/>
      <point x="491.268" y="180.654"/>
      <point x="400.802" y="10"/>
      <point x="237.285" y="10" type="curve" smooth="yes"/>
      <point x="138.231" y="10"/>
      <point x="83.3917" y="72.6221"/>
      <point x="83.3917" y="181.853" type="curve" smooth="yes"/>
      <point x="83.3917" y="318.187"/>
      <point x="168.328" y="492"/>
    </contour>
  </outline>
</glyph>
<glyph name="c" format="2">
  <advance width="554"/>
  <unicode hex="0063"/>
  <anchor x="337.979" y="580" name="top"/>
  <anchor x="219" y="0" name="b.cedilla"/>
  <outline>
    <contour>
      <point x="50.0759" y="174.827" type="curve" smooth="yes"/>
      <point x="50.0757" y="333.715"/>
      <point x="155.412" y="512"/>
      <point x="342.661" y="512" type="curve" smooth="yes"/>
      <point x="444.529" y="512"/>
      <point x="503.484" y="459.234"/>
      <point x="503.328" y="368.918" type="curve" smooth="yes"/>
      <point x="503.312" y="359.975"/>
      <point x="502.717" y="350.664"/>
      <point x="501.529" y="341" type="curve"/>
      <point x="481.529" y="341" type="line"/>
      <point x="482.675" y="347.113"/>
      <point x="482.735" y="355.368"/>
      <point x="482.786" y="362.235" type="curve" smooth="yes"/>
      <point x="483.37" y="441.549"/>
      <point x="434.582" y="492"/>
      <point x="328.883" y="492" type="curve" smooth="yes"/>
      <point x="162.813" y="492"/>
      <point x="69.7635" y="314.322"/>
      <point x="69.7635" y="173.274" type="curve" smooth="yes"/>
      <point x="69.7635" y="64.6746"/>
      <point x="124.926" y="10"/>
      <point x="228.529" y="10" type="curve" smooth="yes"/>
      <point x="342.765" y="10"/>
      <point x="434.18" y="76.4717"/>
      <point x="451.914" y="169" type="curve"/>
      <point x="472.092" y="169" type="line"/>
      <point x="444.933" y="60.1205"/>
      <point x="349.429" y="-10"/>
      <point x="228.295" y="-10" type="curve" smooth="yes"/>
      <point x="112.375" y="-10"/>
      <point x="50.0759" y="52.6352"/>
    </contour>
  </outline>
</glyph>
<glyph name="d" format="2">
  <advance width="582"/>
  <unicode hex="0064"/>
  <anchor x="462.225" y="748" name="top"/>
  <anchor x="660.171" y="722" name="caron_TR"/>
  <anchor x="212" y="-50" name="b.commabelow"/>
  <outline>
    <contour>
      <point x="50.0795" y="170.278" type="curve" smooth="yes"/>
      <point x="50.0795" y="54.8529"/>
      <point x="112.329" y="-10"/>
      <point x="233.885" y="-10" type="curve" smooth="yes"/>
      <point x="328.885" y="-10"/>
      <point x="431.337" y="59.1489"/>
      <point x="473.295" y="169.878" type="curve"/>
      <point x="502.923" y="324.509" type="line"/>
      <point x="502.977" y="422.029"/>
      <point x="446.645" y="512"/>
      <point x="331.362" y="512" type="curve" smooth="yes"/>
      <point x="144.129" y="512"/>
      <point x="50.0795" y="337.976"/>
    </contour>
    <contour>
      <point x="70.5122" y="174.138" type="curve" smooth="yes"/>
      <point x="70.5122" y="330.981"/>
      <point x="152.035" y="492"/>
      <point x="329.1" y="492" type="curve" smooth="yes"/>
      <point x="425.366" y="492"/>
      <point x="484.569" y="418.64"/>
      <point x="484.7" y="311.334" type="curve" smooth="yes"/>
      <point x="484.867" y="174.268"/>
      <point x="388.617" y="10"/>
      <point x="240.279" y="10" type="curve" smooth="yes"/>
      <point x="131.302" y="10"/>
      <point x="70.5122" y="63.7008"/>
    </contour>
    <contour>
      <point x="430.829" y="0" type="line"/>
      <point x="450.829" y="0" type="line"/>
      <point x="591.186" y="722" type="line"/>
      <point x="571.186" y="722" type="line"/>
    </contour>
  </outline>
  <guideline angle="90" x="590" y="0"/>
</glyph>
<glyph name="e" format="2">
  <advance width="576"/>
  <unicode hex="0065"/>
  <anchor x="349.979" y="580" name="top"/>
  <anchor x="219.939" y="-89" name="bottom"/>
  <anchor x="243" y="0" name="b.cedilla"/>
  <outline>
    <contour>
      <point x="50.6248" y="188.588" type="curve" smooth="yes"/>
      <point x="50.6248" y="348.316"/>
      <point x="156.385" y="512"/>
      <point x="340.771" y="512" type="curve" smooth="yes"/>
      <point x="457.903" y="512"/>
      <point x="525.015" y="447.089"/>
      <point x="525.015" y="340.27" type="curve" smooth="yes"/>
      <point x="525.015" y="322.03"/>
      <point x="523.058" y="302.569"/>
      <point x="519.059" y="282" type="curve" smooth="yes"/>
      <point x="512.061" y="246" type="line"/>
      <point x="64.061" y="246" type="line"/>
      <point x="67.949" y="266" type="line"/>
      <point x="495.687" y="266" type="line"/>
      <point x="500.66" y="291.197"/>
      <point x="503.108" y="314.42"/>
      <point x="503.108" y="335.603" type="curve" smooth="yes"/>
      <point x="503.108" y="437.344"/>
      <point x="446.64" y="492"/>
      <point x="342.291" y="492" type="curve" smooth="yes"/>
      <point x="209.251" y="492"/>
      <point x="109.612" y="403.154"/>
      <point x="82.949" y="266" type="curve" smooth="yes"/>
      <point x="79.061" y="246" type="line" smooth="yes"/>
      <point x="74.5924" y="223.013"/>
      <point x="72.3965" y="201.476"/>
      <point x="72.3965" y="181.491" type="curve" smooth="yes"/>
      <point x="72.3965" y="72.751"/>
      <point x="137.412" y="10"/>
      <point x="255.061" y="10" type="curve" smooth="yes"/>
      <point x="358.807" y="10"/>
      <point x="431.901" y="58.7954"/>
      <point x="476.404" y="160" type="curve"/>
      <point x="496.343" y="160" type="line"/>
      <point x="453.83" y="50.166"/>
      <point x="363.228" y="-10"/>
      <point x="245.815" y="-10" type="curve" smooth="yes"/>
      <point x="119.185" y="-10"/>
      <point x="50.6248" y="59.9843"/>
    </contour>
  </outline>
  <guideline angle="90" x="287" y="0"/>
</glyph>
<glyph name="f" format="2">
  <advance width="301"/>
  <unicode hex="0066"/>
  <anchor x="268.003" y="757" name="top"/>
  <anchor x="50.2783" y="-75" name="bottom"/>
  <outline>
    <contour>
      <point x="172.964" y="622.98" type="curve" smooth="yes"/>
      <point x="51.8568" y="0" type="line"/>
      <point x="71.8568" y="0" type="line"/>
      <point x="192.575" y="620.98" type="line" smooth="yes"/>
      <point x="204.621" y="682.944"/>
      <point x="228.453" y="711.926"/>
      <point x="282.018" y="711.926" type="curve" smooth="yes"/>
      <point x="299.78" y="711.926"/>
      <point x="321.236" y="709.179"/>
      <point x="339.322" y="701.98" type="curve"/>
      <point x="343.214" y="722" type="line"/>
      <point x="322.597" y="729.348"/>
      <point x="307.203" y="732"/>
      <point x="276.182" y="732" type="curve" smooth="yes"/>
      <point x="221.909" y="732"/>
      <point x="186.473" y="692.469"/>
    </contour>
    <contour>
      <point x="159.057" y="500" type="line"/>
      <point x="49.0568" y="500" type="line"/>
      <point x="45.1688" y="480" type="line"/>
      <point x="155.169" y="480" type="line"/>
    </contour>
    <contour>
      <point x="155.663" y="480" type="line"/>
      <point x="290.663" y="480" type="line"/>
      <point x="294.551" y="500" type="line"/>
      <point x="159.551" y="500" type="line"/>
    </contour>
  </outline>
</glyph>
<glyph name="g" format="2">
  <advance width="564"/>
  <unicode hex="0067"/>
  <anchor x="328" y="580" name="t.cedilla"/>
  <anchor x="323.979" y="580" name="top"/>
  <outline>
    <contour>
      <point x="28.0775" y="196.731" type="curve" smooth="yes"/>
      <point x="28.0775" y="77.7863"/>
      <point x="88.7658" y="14"/>
      <point x="198.218" y="14" type="curve" smooth="yes"/>
      <point x="300.258" y="14"/>
      <point x="382.316" y="69.4402"/>
      <point x="440.372" y="175" type="curve"/>
      <point x="410.435" y="21" type="line" smooth="yes"/>
      <point x="385.562" y="-106.944"/>
      <point x="302.428" y="-178"/>
      <point x="178.994" y="-178" type="curve" smooth="yes"/>
      <point x="80.8517" y="-178"/>
      <point x="21.0928" y="-133.811"/>
      <point x="21.0928" y="-64.4532" type="curve" smooth="yes"/>
      <point x="21.0928" y="-56.3058"/>
      <point x="21.9296" y="-47.8111"/>
      <point x="23.6408" y="-39" type="curve"/>
      <point x="3.65704" y="-39" type="line"/>
      <point x="1.61454" y="-49.5069"/>
      <point x="0.616039" y="-59.6299"/>
      <point x="0.616039" y="-69.3258" type="curve" smooth="yes"/>
      <point x="0.616039" y="-147.566"/>
      <point x="64.7476" y="-198"/>
      <point x="175.456" y="-198" type="curve" smooth="yes"/>
      <point x="320.861" y="-198"/>
      <point x="404.774" y="-111"/>
      <point x="431.99" y="29" type="curve" smooth="yes"/>
      <point x="523.553" y="500" type="line"/>
      <point x="503.553" y="500" type="line"/>
      <point x="477.114" y="364" type="line"/>
      <point x="456.715" y="461.169"/>
      <point x="396.876" y="512"/>
      <point x="300.737" y="512" type="curve" smooth="yes"/>
      <point x="128.892" y="512"/>
      <point x="28.0776" y="349.594"/>
    </contour>
    <contour>
      <point x="218.962" y="34" type="curve" smooth="yes"/>
      <point x="106.437" y="34"/>
      <point x="48.0775" y="90.1732"/>
      <point x="48.0775" y="203.692" type="curve" smooth="yes"/>
      <point x="48.0775" y="345.539"/>
      <point x="139.199" y="492"/>
      <point x="302.761" y="492" type="curve" smooth="yes"/>
      <point x="400.617" y="492"/>
      <point x="462.296" y="410.068"/>
      <point x="462.296" y="316.477" type="curve" smooth="yes"/>
      <point x="462.296" y="188.482"/>
      <point x="346.935" y="34"/>
    </contour>
  </outline>
</glyph>
<glyph name="h" format="2">
  <advance width="512"/>
  <unicode hex="0068"/>
  <anchor x="254.25" y="-75" name="bottom"/>
  <anchor x="312" y="797" name="top"/>
  <anchor x="23" y="0" name="b.cedilla"/>
  <outline>
    <contour>
      <point x="102.959" y="376.185" type="line"/>
      <point x="112.923" y="376" type="line"/>
      <point x="135.012" y="441.097"/>
      <point x="230.949" y="490"/>
      <point x="304.62" y="490" type="curve" smooth="yes"/>
      <point x="397.93" y="490"/>
      <point x="451.22" y="447.49"/>
      <point x="451.22" y="363.727" type="curve" smooth="yes"/>
      <point x="451.22" y="349.047"/>
      <point x="449.583" y="333.1"/>
      <point x="446.238" y="315.893" type="curve" smooth="yes"/>
      <point x="384.829" y="0" type="line"/>
      <point x="404.829" y="0" type="line"/>
      <point x="465.482" y="312" type="line" smooth="yes"/>
      <point x="469.304" y="331.663"/>
      <point x="471.171" y="349.92"/>
      <point x="471.171" y="366.744" type="curve" smooth="yes"/>
      <point x="471.171" y="460.719"/>
      <point x="412.929" y="510"/>
      <point x="311.973" y="510" type="curve" smooth="yes"/>
      <point x="247.92" y="510"/>
      <point x="162.792" y="474.346"/>
      <point x="121.477" y="420" type="curve" smooth="yes"/>
      <point x="108.041" y="402.327" type="line"/>
    </contour>
    <contour>
      <point x="20.8287" y="0" type="line"/>
      <point x="40.8287" y="0" type="line"/>
      <point x="181.185" y="722" type="line"/>
      <point x="161.185" y="722" type="line"/>
    </contour>
  </outline>
  <guideline angle="90" x="210" y="0"/>
  <guideline angle="90" x="236" y="0"/>
</glyph>
<glyph name="k" format="2">
  <advance width="371"/>
  <unicode hex="006B"/>
  <anchor x="343.947" y="762" name="top"/>
  <anchor x="180.25" y="-75" name="bottom"/>
  <anchor x="155" y="-50" name="b.commabelow"/>
  <outline>
    <contour>
      <point x="20.8287" y="0" type="line"/>
      <point x="40.8287" y="0" type="line"/>
      <point x="181.185" y="722" type="line"/>
      <point x="161.185" y="722" type="line"/>
    </contour>
    <contour>
      <point x="338.829" y="0" type="line"/>
      <point x="117.994" y="287.753" type="line"/>
      <point x="115.191" y="272.384" type="line"/>
      <point x="410.029" y="500" type="line"/>
      <point x="377.029" y="500" type="line"/>
      <point x="94.1146" y="280.736" type="line"/>
      <point x="309.829" y="0" type="line"/>
    </contour>
  </outline>
  <guideline angle="90" x="160" y="0"/>
  <guideline angle="90" x="70" y="0"/>
</glyph>
<glyph name="l" format="2">
  <advance width="172"/>
  <unicode hex="006C"/>
  <anchor x="178.947" y="762" name="top"/>
  <anchor x="251.171" y="722" name="caron_TR"/>
  <anchor x="25" y="-50" name="b.commabelow"/>
  <outline>
    <contour>
      <point x="20.8287" y="0" type="line"/>
      <point x="40.8287" y="0" type="line"/>
      <point x="181.185" y="722" type="line"/>
      <point x="161.185" y="722" type="line"/>
    </contour>
  </outline>
  <guideline angle="90" x="101" y="0"/>
</glyph>
<glyph name="m" format="2">
  <advance width="830"/>
  <unicode hex="006D"/>
  <outline>
    <contour>
      <point x="457.631" y="346.667" type="line"/>
      <point x="461.778" y="368" type="line" smooth="yes"/>
      <point x="473.16" y="426.55"/>
      <point x="560.597" y="492"/>
      <point x="627.434" y="492" type="curve" smooth="yes"/>
      <point x="727.399" y="492"/>
      <point x="768.848" y="453.616"/>
      <point x="768.848" y="378.125" type="curve" smooth="yes"/>
      <point x="768.848" y="360.99"/>
      <point x="766.712" y="341.944"/>
      <point x="762.641" y="321" type="curve" smooth="yes"/>
      <point x="700.239" y="0" type="line"/>
      <point x="720.239" y="0" type="line"/>
      <point x="783.224" y="324" type="line" smooth="yes"/>
      <point x="787.173" y="344.315"/>
      <point x="789.144" y="363.006"/>
      <point x="789.144" y="380.062" type="curve" smooth="yes"/>
      <point x="789.144" y="467.54"/>
      <point x="737.307" y="512"/>
      <point x="634.771" y="512" type="curve" smooth="yes"/>
      <point x="566.496" y="512"/>
      <point x="494.522" y="466.685"/>
      <point x="447.157" y="393.878" type="curve"/>
      <point x="437.694" y="346.582" type="line"/>
    </contour>
    <contour>
      <point x="140.915" y="415" type="curve" smooth="yes"/>
      <point x="114.735" y="383.21" type="line"/>
      <point x="108.259" y="349.9" type="line"/>
      <point x="128.255" y="349.879" type="line"/>
      <point x="140.722" y="414.012"/>
      <point x="232.437" y="492"/>
      <point x="304.967" y="492" type="curve" smooth="yes"/>
      <point x="405.469" y="492"/>
      <point x="444.456" y="449.867"/>
      <point x="444.456" y="394.401" type="curve" smooth="yes"/>
      <point x="444.456" y="385.881"/>
      <point x="443.536" y="377.045"/>
      <point x="441.778" y="368" type="curve" smooth="yes"/>
      <point x="370.239" y="0" type="line"/>
      <point x="390.239" y="0" type="line"/>
      <point x="467.066" y="395.204" type="line"/>
      <point x="459.607" y="470"/>
      <point x="405.366" y="512"/>
      <point x="312.895" y="512" type="curve" smooth="yes"/>
      <point x="254.873" y="512"/>
      <point x="189.235" y="473.675"/>
    </contour>
    <contour>
      <point x="40.2386" y="0" type="line"/>
      <point x="60.2386" y="0" type="line"/>
      <point x="157.365" y="499.619" type="line"/>
      <point x="137.365" y="499.619" type="line"/>
    </contour>
  </outline>
</glyph>
<glyph name="n" format="2">
  <advance width="531"/>
  <unicode hex="006E"/>
  <anchor x="339.174" y="580" name="top"/>
  <anchor x="225.854" y="-75" name="bottom"/>
  <anchor x="215" y="-50" name="b.commabelow"/>
  <outline>
    <component base="dotlessi" xOffset="-60"/>
    <contour>
      <point x="122.563" y="376.185" type="line"/>
      <point x="132.527" y="376" type="line"/>
      <point x="154.617" y="441.097"/>
      <point x="250.554" y="490"/>
      <point x="324.224" y="490" type="curve" smooth="yes"/>
      <point x="417.534" y="490"/>
      <point x="470.825" y="447.49"/>
      <point x="470.825" y="363.727" type="curve" smooth="yes"/>
      <point x="470.825" y="349.047"/>
      <point x="469.188" y="333.1"/>
      <point x="465.843" y="315.893" type="curve" smooth="yes"/>
      <point x="404.433" y="0" type="line"/>
      <point x="424.433" y="0" type="line"/>
      <point x="485.086" y="312" type="line" smooth="yes"/>
      <point x="488.908" y="331.663"/>
      <point x="490.775" y="349.92"/>
      <point x="490.775" y="366.744" type="curve" smooth="yes"/>
      <point x="490.775" y="460.719"/>
      <point x="432.533" y="510"/>
      <point x="331.577" y="510" type="curve" smooth="yes"/>
      <point x="267.524" y="510"/>
      <point x="182.396" y="474.346"/>
      <point x="141.081" y="420" type="curve" smooth="yes"/>
      <point x="127.645" y="402.327" type="line"/>
    </contour>
  </outline>
</glyph>
<glyph name="o" format="2">
  <advance width="576"/>
  <unicode hex="006F"/>
  <anchor x="352.174" y="580" name="top"/>
  <anchor x="224.854" y="-75" name="bottom"/>
  <anchor x="352.174" y="580" name="tonos.top"/>
  <anchor x="240" y="0" name="b.cedilla"/>
  <outline>
    <contour>
      <point x="50.5256" y="186.559" type="curve" smooth="yes"/>
      <point x="50.5256" y="60.1144"/>
      <point x="117.156" y="-10"/>
      <point x="237.398" y="-10" type="curve" smooth="yes"/>
      <point x="422.308" y="-10"/>
      <point x="525.684" y="155.811"/>
      <point x="525.684" y="314.38" type="curve" smooth="yes"/>
      <point x="525.684" y="440.728"/>
      <point x="460.05" y="510"/>
      <point x="339.577" y="510" type="curve" smooth="yes"/>
      <point x="156.229" y="510"/>
      <point x="50.5256" y="345.819"/>
    </contour>
    <contour>
      <point x="334.69" y="490.005" type="curve" smooth="yes"/>
      <point x="441.211" y="490.005"/>
      <point x="502.77" y="423.77"/>
      <point x="502.77" y="309.464" type="curve" smooth="yes"/>
      <point x="502.77" y="165.563"/>
      <point x="405.208" y="9.95888"/>
      <point x="241.369" y="9.95888" type="curve" smooth="yes"/>
      <point x="135.985" y="9.95888"/>
      <point x="72.8116" y="75.269"/>
      <point x="72.8116" y="190.506" type="curve" smooth="yes"/>
      <point x="72.8116" y="334.439"/>
      <point x="171.366" y="490.005"/>
    </contour>
  </outline>
  <guideline angle="90" x="289" y="0"/>
</glyph>
<glyph name="p" format="2">
  <advance width="560"/>
  <unicode hex="0070"/>
  <outline>
    <contour>
      <point x="-19.6414" y="-200" type="line"/>
      <point x="0.358643" y="-200" type="line"/>
      <point x="121.081" y="421" type="line" smooth="yes"/>
      <point x="126.116" y="446.902"/>
      <point x="130.361" y="473.93"/>
      <point x="133.439" y="500" type="curve"/>
      <point x="113.439" y="500" type="line"/>
      <point x="110.361" y="473.93"/>
      <point x="106.116" y="446.902"/>
      <point x="101.081" y="421" type="curve" smooth="yes"/>
    </contour>
    <contour>
      <point x="62.3842" y="170.895" type="line"/>
      <point x="62.3842" y="64.8299"/>
      <point x="125.707" y="-10"/>
      <point x="236.949" y="-10" type="curve" smooth="yes"/>
      <point x="409.661" y="-10"/>
      <point x="509.606" y="170.378"/>
      <point x="509.606" y="322.672" type="curve" smooth="yes"/>
      <point x="509.606" y="450.707"/>
      <point x="438.966" y="512"/>
      <point x="328.771" y="512" type="curve" smooth="yes"/>
      <point x="234.752" y="512"/>
      <point x="135.125" y="443.73"/>
      <point x="94.8483" y="337.891" type="curve"/>
    </contour>
    <contour>
      <point x="81.8016" y="181.853" type="curve" smooth="yes"/>
      <point x="81.8016" y="318.994"/>
      <point x="166.335" y="492"/>
      <point x="322.141" y="492" type="curve" smooth="yes"/>
      <point x="424.857" y="492"/>
      <point x="489.678" y="439.041"/>
      <point x="489.678" y="320.589" type="curve" smooth="yes"/>
      <point x="489.678" y="180.654"/>
      <point x="399.212" y="10"/>
      <point x="235.694" y="10" type="curve" smooth="yes"/>
      <point x="136.641" y="10"/>
      <point x="81.8016" y="72.6221"/>
    </contour>
  </outline>
</glyph>
<glyph name="q" format="2">
  <advance width="589"/>
  <unicode hex="0071"/>
  <anchor x="327.979" y="580" name="top"/>
  <anchor x="236.784" y="-275" name="bottom"/>
  <outline>
    <contour>
      <point x="50.4894" y="170.278" type="curve" smooth="yes"/>
      <point x="50.4894" y="54.8529"/>
      <point x="112.739" y="-10"/>
      <point x="234.295" y="-10" type="curve" smooth="yes"/>
      <point x="329.295" y="-10"/>
      <point x="431.747" y="59.1489"/>
      <point x="473.704" y="169.878" type="curve"/>
      <point x="503.333" y="324.509" type="line"/>
      <point x="503.387" y="422.029"/>
      <point x="447.055" y="512"/>
      <point x="331.771" y="512" type="curve" smooth="yes"/>
      <point x="144.539" y="512"/>
      <point x="50.4894" y="337.976"/>
    </contour>
    <contour>
      <point x="70.9221" y="174.138" type="curve" smooth="yes"/>
      <point x="70.9221" y="330.981"/>
      <point x="152.445" y="492"/>
      <point x="329.51" y="492" type="curve" smooth="yes"/>
      <point x="425.776" y="492"/>
      <point x="484.979" y="418.64"/>
      <point x="485.11" y="311.334" type="curve" smooth="yes"/>
      <point x="485.277" y="174.268"/>
      <point x="389.027" y="10"/>
      <point x="240.689" y="10" type="curve" smooth="yes"/>
      <point x="131.712" y="10"/>
      <point x="70.9221" y="63.7008"/>
    </contour>
    <contour>
      <point x="528.349" y="499.587" type="line"/>
      <point x="392.363" y="-200" type="line"/>
      <point x="412.363" y="-200" type="line"/>
      <point x="548.349" y="499.587" type="line"/>
    </contour>
  </outline>
</glyph>
<glyph name="r" format="2">
  <advance width="312"/>
  <unicode hex="0072"/>
  <anchor x="253.174" y="580" name="top"/>
  <anchor x="12" y="-50" name="b.commabelow"/>
  <outline>
    <component base="dotlessi" xOffset="-60"/>
    <contour>
      <point x="156.358" y="442" type="curve" smooth="yes"/>
      <point x="130.377" y="411.233" type="line"/>
      <point x="118.411" y="349.682" type="line"/>
      <point x="128.473" y="350" type="line"/>
      <point x="146.56" y="443.038"/>
      <point x="216.739" y="490"/>
      <point x="337.689" y="490" type="curve"/>
      <point x="341.577" y="510" type="line"/>
      <point x="254.924" y="510"/>
      <point x="195.293" y="488.108"/>
    </contour>
  </outline>
  <guideline angle="90" x="156" y="0"/>
</glyph>
<glyph name="s" format="2">
  <advance width="484"/>
  <unicode hex="0073"/>
  <anchor x="296.979" y="580" name="top"/>
  <anchor x="177" y="0" name="b.cedilla"/>
  <anchor x="175" y="-50" name="b.commabelow"/>
  <outline>
    <contour>
      <point x="34.103" y="144" type="line"/>
      <point x="30.5061" y="130.033"/>
      <point x="30.1731" y="116.961"/>
      <point x="30.1731" y="110.355" type="curve" smooth="yes"/>
      <point x="30.1731" y="30.0566"/>
      <point x="80.4292" y="-10"/>
      <point x="177.522" y="-10" type="curve" smooth="yes"/>
      <point x="268.352" y="-10"/>
      <point x="394.073" y="25.0552"/>
      <point x="394.073" y="139.627" type="curve" smooth="yes"/>
      <point x="394.073" y="186.536"/>
      <point x="356.198" y="238.212"/>
      <point x="256.721" y="262.008" type="curve" smooth="yes"/>
      <point x="228.445" y="268.772" type="line" smooth="yes"/>
      <point x="144.457" y="288.863"/>
      <point x="113.092" y="323.423"/>
      <point x="113.092" y="373.964" type="curve" smooth="yes"/>
      <point x="113.092" y="462.222"/>
      <point x="208.738" y="492"/>
      <point x="293.029" y="492" type="curve" smooth="yes"/>
      <point x="379.355" y="492"/>
      <point x="413.727" y="460.569"/>
      <point x="413.727" y="403.164" type="curve" smooth="yes"/>
      <point x="413.727" y="391.783"/>
      <point x="412.348" y="379.381"/>
      <point x="409.75" y="366" type="curve"/>
      <point x="429.731" y="366" type="line"/>
      <point x="432.277" y="379.095"/>
      <point x="433.912" y="392.431"/>
      <point x="433.912" y="405.785" type="curve" smooth="yes"/>
      <point x="433.912" y="472.398"/>
      <point x="392.39" y="512"/>
      <point x="298.004" y="512" type="curve" smooth="yes"/>
      <point x="199.467" y="512"/>
      <point x="92.5592" y="469.688"/>
      <point x="92.5592" y="369.442" type="curve" smooth="yes"/>
      <point x="92.5592" y="317.133"/>
      <point x="121.668" y="274.263"/>
      <point x="209.657" y="252.813" type="curve" smooth="yes"/>
      <point x="235.522" y="246.508" type="line" smooth="yes"/>
      <point x="337.641" y="221.613"/>
      <point x="374.073" y="181.226"/>
      <point x="374.073" y="129.721" type="curve" smooth="yes"/>
      <point x="374.073" y="41.431"/>
      <point x="267.016" y="10"/>
      <point x="184.546" y="10" type="curve" smooth="yes"/>
      <point x="96.3373" y="10"/>
      <point x="50.1731" y="45.9572"/>
      <point x="50.1731" y="111.146" type="curve" smooth="yes"/>
      <point x="50.1731" y="121.385"/>
      <point x="51.3119" y="132.345"/>
      <point x="53.5844" y="144" type="curve"/>
    </contour>
  </outline>
  <guideline angle="344.863" x="56" y="306"/>
  <guideline angle="344.863" x="56" y="316"/>
  <guideline angle="344.863" x="56" y="296"/>
</glyph>
<glyph name="t" format="2">
  <advance width="295"/>
  <unicode hex="0074"/>
  <anchor x="242.391" y="711" name="top"/>
  <anchor x="108" y="0" name="b.cedilla"/>
  <anchor x="70" y="-50" name="b.commabelow"/>
  <outline>
    <contour>
      <point x="71.5329" y="73.7953" type="line" smooth="yes"/>
      <point x="69.3977" y="62.8118"/>
      <point x="68.3274" y="52.9143"/>
      <point x="68.3274" y="44.0991" type="curve" smooth="yes"/>
      <point x="68.3274" y="7.94798"/>
      <point x="86.3288" y="-10"/>
      <point x="122.71" y="-10" type="curve" smooth="yes"/>
      <point x="140.694" y="-10"/>
      <point x="169.029" y="-6.56984"/>
      <point x="187.198" y="0" type="curve"/>
      <point x="191.086" y="20" type="line"/>
      <point x="169.92" y="14"/>
      <point x="148.142" y="10"/>
      <point x="131.039" y="10" type="curve" smooth="yes"/>
      <point x="101.598" y="10"/>
      <point x="88.4358" y="21.8522"/>
      <point x="88.4358" y="47.9581" type="curve" smooth="yes"/>
      <point x="88.4358" y="54.627"/>
      <point x="89.2947" y="62.2261"/>
      <point x="90.9606" y="70.7953" type="curve" smooth="yes"/>
      <point x="200.836" y="636" type="line"/>
      <point x="179.174" y="627.504" type="line"/>
    </contour>
    <contour>
      <point x="155.51" y="480" type="line"/>
      <point x="280.51" y="480" type="line"/>
      <point x="284.398" y="500" type="line"/>
      <point x="159.398" y="500" type="line"/>
    </contour>
    <contour>
      <point x="60.4991" y="480" type="line"/>
      <point x="165.499" y="480" type="line"/>
      <point x="169.387" y="500" type="line"/>
      <point x="64.3871" y="500" type="line"/>
    </contour>
  </outline>
  <guideline angle="202.348" x="209" y="664.956"/>
</glyph>
<glyph name="u" format="2">
  <advance width="524"/>
  <unicode hex="0075"/>
  <anchor x="317.146" y="580" name="top"/>
  <anchor x="187.494" y="-87" name="bottom"/>
  <outline>
    <contour>
      <point x="46.2305" y="174" type="line" smooth="yes"/>
      <point x="42.4337" y="154.469"/>
      <point x="40.5432" y="136.449"/>
      <point x="40.5432" y="119.961" type="curve" smooth="yes"/>
      <point x="40.5432" y="34.3063"/>
      <point x="91.5625" y="-10"/>
      <point x="191.372" y="-10" type="curve" smooth="yes"/>
      <point x="274.343" y="-10"/>
      <point x="357.476" y="48.5288"/>
      <point x="399.425" y="119" type="curve" smooth="yes"/>
      <point x="414.274" y="143.947" type="line"/>
      <point x="423.955" y="193.745" type="line"/>
      <point x="414.06" y="194.284" type="line"/>
      <point x="395.236" y="96.8939"/>
      <point x="283.972" y="9.98976"/>
      <point x="200.116" y="9.98976" type="curve" smooth="yes"/>
      <point x="106.316" y="9.98976"/>
      <point x="60.6127" y="46.7849"/>
      <point x="60.6127" y="122.84" type="curve" smooth="yes"/>
      <point x="60.6127" y="137.718"/>
      <point x="62.3617" y="154.099"/>
      <point x="65.8417" y="172" type="curve" smooth="yes"/>
      <point x="129.605" y="500" type="line"/>
      <point x="109.605" y="500" type="line"/>
    </contour>
    <contour>
      <point x="396.405" y="0" type="line"/>
      <point x="493.605" y="500" type="line"/>
      <point x="473.605" y="500" type="line"/>
      <point x="376.405" y="0" type="line"/>
    </contour>
  </outline>
  <guideline angle="90" x="253" y="0"/>
</glyph>
<glyph name="v" format="2">
  <advance width="454"/>
  <unicode hex="0076"/>
  <anchor x="279.146" y="580" name="top"/>
  <outline>
    <contour>
      <point x="483.605" y="500" type="line"/>
      <point x="463.248" y="500" type="line"/>
      <point x="163.73" y="8.65845" type="line"/>
      <point x="172.473" y="8.66815" type="line"/>
      <point x="59.527" y="500" type="line"/>
      <point x="40.0902" y="500" type="line"/>
      <point x="154.405" y="0" type="line"/>
      <point x="178.175" y="0" type="line"/>
    </contour>
  </outline>
  <guideline angle="90" x="215" y="0"/>
  <guideline angle="112.977" x="222.64" y="0"/>
  <guideline angle="67.3903" x="247.643" y="99"/>
  <guideline angle="0" x="0" y="20"/>
  <guideline angle="112.977" x="203" y="0"/>
  <guideline angle="67.3903" x="268" y="99"/>
</glyph>
<glyph name="w" format="2">
  <advance width="667"/>
  <unicode hex="0077"/>
  <anchor x="380.146" y="580" name="top"/>
  <outline>
    <contour>
      <point x="696.605" y="500" type="line"/>
      <point x="676.584" y="500" type="line"/>
      <point x="431.744" y="7.51422" type="line"/>
      <point x="440.008" y="7.51422" type="line"/>
      <point x="377.364" y="500" type="line"/>
      <point x="352.288" y="500" type="line"/>
      <point x="107.391" y="7.51422" type="line"/>
      <point x="114.341" y="7.51422" type="line"/>
      <point x="61.0716" y="500" type="line"/>
      <point x="40.5964" y="500" type="line"/>
      <point x="94.6785" y="0" type="line"/>
      <point x="123.332" y="0" type="line"/>
      <point x="369.102" y="494.725" type="line"/>
      <point x="357.811" y="494.725" type="line"/>
      <point x="420.405" y="0" type="line"/>
      <point x="447.922" y="0" type="line"/>
    </contour>
  </outline>
  <guideline angle="286.834" x="237.475" y="7.51422"/>
  <guideline angle="73.1661" x="230.525" y="7.51422"/>
  <guideline angle="252.23" x="336" y="415"/>
  <guideline angle="107.77" x="469" y="0"/>
  <guideline angle="73.1661" x="509.979" y="110"/>
  <guideline angle="90" x="158" y="0"/>
  <guideline angle="90" x="316" y="0"/>
  <guideline angle="90" x="514" y="0"/>
  <guideline angle="0" x="0" y="20"/>
  <guideline angle="0" x="0" y="480"/>
  <guideline angle="286.834" x="141" y="7.51422"/>
  <guideline angle="73.1661" x="155" y="7.51422"/>
  <guideline angle="73.1661" x="175" y="7.51422"/>
  <guideline angle="107.77" x="489" y="0"/>
  <guideline angle="73.1661" x="530" y="110"/>
</glyph>
<glyph name="x" format="2">
  <advance width="474"/>
  <unicode hex="0078"/>
  <anchor x="280.146" y="580" name="top"/>
  <outline>
    <contour>
      <point x="377.405" y="0" type="line"/>
      <point x="89.5338" y="500" type="line"/>
      <point x="66.719" y="500" type="line"/>
      <point x="355.405" y="0" type="line"/>
    </contour>
    <contour>
      <point x="208.279" y="261.064" type="line"/>
      <point x="-39.5951" y="0" type="line"/>
      <point x="-17.2523" y="0" type="line"/>
      <point x="216.732" y="249.721" type="line"/>
    </contour>
    <contour>
      <point x="221.552" y="254.152" type="line"/>
      <point x="453.605" y="500" type="line"/>
      <point x="431.185" y="500" type="line"/>
      <point x="213.044" y="265.622" type="line"/>
    </contour>
  </outline>
  <guideline angle="127.596" x="424" y="0"/>
  <guideline angle="127.596" x="404" y="0"/>
  <guideline angle="127.596" x="417.04" y="0"/>
  <guideline angle="52.3767" x="210" y="247"/>
  <guideline angle="234.349" x="385" y="500"/>
  <guideline angle="90" x="216" y="0"/>
</glyph>
<glyph name="y" format="2">
  <advance width="455"/>
  <unicode hex="0079"/>
  <anchor x="311.146" y="580" name="top"/>
  <outline>
    <contour>
      <point x="51.5249" y="-200" type="line"/>
      <point x="66.5249" y="-200" type="line"/>
      <point x="474.605" y="500" type="line"/>
      <point x="454.605" y="500" type="line"/>
    </contour>
    <contour>
      <point x="178.711" y="7.24025" type="line"/>
      <point x="66.6049" y="500" type="line"/>
      <point x="46.6049" y="500" type="line"/>
      <point x="166.831" y="-12.7858" type="line"/>
    </contour>
  </outline>
  <guideline angle="249.122" x="406" y="500"/>
  <guideline angle="68.7653" x="231" y="-200"/>
  <guideline angle="112.682" x="266" y="110"/>
  <guideline angle="293.212" x="-2" y="500"/>
  <guideline angle="68.6821" x="218" y="-13"/>
</glyph>
<glyph name="z" format="2">
  <advance width="568"/>
  <unicode hex="007A"/>
  <anchor x="369.146" y="580" name="top"/>
  <anchor x="220" y="0" name="b.cedilla"/>
  <outline>
    <contour>
      <point x="420.405" y="0" type="line"/>
      <point x="424.293" y="20" type="line"/>
      <point x="61.4901" y="20" type="line"/>
      <point x="64.0951" y="7.04761" type="line"/>
      <point x="513.694" y="479.884" type="line"/>
      <point x="517.605" y="500" type="line"/>
      <point x="169.605" y="500" type="line"/>
      <point x="165.717" y="480" type="line"/>
      <point x="506.596" y="480" type="line"/>
      <point x="501.97" y="491.191" type="line"/>
      <point x="54.3749" y="20.4217" type="line"/>
      <point x="50.4049" y="0" type="line"/>
    </contour>
  </outline>
  <guideline angle="53.2275" x="121" y="20"/>
</glyph>
<glyph name="braceleft" format="2">
  <advance width="487"/>
  <unicode hex="007B"/>
  <outline>
    <contour>
      <point x="100.695" y="-100" type="curve" smooth="yes"/>
      <point x="139.744" y="70" type="line" smooth="yes"/>
      <point x="144.017" y="88.6028"/>
      <point x="145.676" y="108.02"/>
      <point x="145.676" y="124.55" type="curve" smooth="yes"/>
      <point x="145.676" y="183.899"/>
      <point x="124.285" y="235.684"/>
      <point x="54.7355" y="250" type="curve"/>
      <point x="58.6235" y="270" type="line"/>
      <point x="165.289" y="294"/>
      <point x="202.351" y="379.585"/>
      <point x="213.616" y="450" type="curve" smooth="yes"/>
      <point x="241.503" y="624.317" type="line" smooth="yes"/>
      <point x="257.401" y="723.693"/>
      <point x="305.827" y="760"/>
      <point x="409.88" y="760" type="curve"/>
      <point x="405.992" y="740" type="line"/>
      <point x="313.927" y="740"/>
      <point x="275.577" y="712.294"/>
      <point x="261.503" y="624.317" type="curve" smooth="yes"/>
      <point x="233.616" y="450" type="line" smooth="yes"/>
      <point x="218.81" y="357.455"/>
      <point x="181.164" y="296.353"/>
      <point x="87.646" y="259.502" type="curve"/>
      <point x="144.991" y="243.874"/>
      <point x="164.995" y="196.562"/>
      <point x="164.995" y="130.876" type="curve" smooth="yes"/>
      <point x="164.995" y="107.522"/>
      <point x="162.466" y="77.7268"/>
      <point x="155.272" y="47" type="curve" smooth="yes"/>
      <point x="119.918" y="-104" type="line" smooth="yes"/>
      <point x="116.764" y="-117.471"/>
      <point x="115.894" y="-129.981"/>
      <point x="115.894" y="-139.207" type="curve" smooth="yes"/>
      <point x="115.894" y="-193.545"/>
      <point x="146.066" y="-220"/>
      <point x="219.367" y="-220" type="curve"/>
      <point x="215.479" y="-240" type="line"/>
      <point x="133.315" y="-240"/>
      <point x="95.6833" y="-211.132"/>
      <point x="95.6833" y="-144.028" type="curve" smooth="yes"/>
      <point x="95.6833" y="-132.462"/>
      <point x="96.8013" y="-116.954"/>
    </contour>
  </outline>
  <guideline angle="0" x="0" y="260"/>
</glyph>
<glyph name="asciitilde" format="2">
  <advance width="633"/>
  <unicode hex="007E"/>
  <outline>
    <contour>
      <point x="578.643" y="305" type="curve"/>
      <point x="558.643" y="305" type="line"/>
      <point x="543.812" y="275"/>
      <point x="488.634" y="227.763"/>
      <point x="445.1" y="227.763" type="curve" smooth="yes"/>
      <point x="377.809" y="227.763"/>
      <point x="314.498" y="303"/>
      <point x="244.254" y="303" type="curve" smooth="yes"/>
      <point x="172.029" y="303"/>
      <point x="121.381" y="253.726"/>
      <point x="91.205" y="205" type="curve"/>
      <point x="111.205" y="205" type="line"/>
      <point x="134.557" y="237.62"/>
      <point x="176.978" y="283.275"/>
      <point x="242.42" y="283.275" type="curve" smooth="yes"/>
      <point x="314.512" y="283.275"/>
      <point x="369.851" y="208"/>
      <point x="444.788" y="208" type="curve" smooth="yes"/>
      <point x="487.215" y="208"/>
      <point x="552.056" y="254.233"/>
    </contour>
  </outline>
</glyph>
<glyph name="cent" format="2">
  <advance width="558"/>
  <unicode hex="00A2"/>
  <outline>
    <component base="c" xOffset="5"/>
    <contour>
      <point x="119.531" y="-79.982" type="line"/>
      <point x="462.191" y="580.487" type="line"/>
      <point x="437.52" y="579.537" type="line"/>
      <point x="94.7711" y="-79.8208" type="line"/>
    </contour>
  </outline>
  <guideline angle="0" x="0" y="580"/>
  <guideline angle="0" x="0" y="-80"/>
</glyph>
<glyph name="sterling" format="2">
  <advance width="558"/>
  <unicode hex="00A3"/>
  <outline>
    <contour>
      <point x="77.7175" y="9" type="line"/>
      <point x="97.7175" y="9" type="line"/>
      <point x="200.739" y="539" type="line" smooth="yes"/>
      <point x="222.601" y="651.47"/>
      <point x="293.659" y="716"/>
      <point x="397.594" y="716" type="curve" smooth="yes"/>
      <point x="481.241" y="716"/>
      <point x="532.542" y="674.204"/>
      <point x="532.542" y="608.013" type="curve" smooth="yes"/>
      <point x="532.542" y="598.799"/>
      <point x="531.548" y="589.112"/>
      <point x="529.514" y="579" type="curve"/>
      <point x="549.514" y="579" type="line"/>
      <point x="551.707" y="590.282"/>
      <point x="552.778" y="601.113"/>
      <point x="552.778" y="611.44" type="curve" smooth="yes"/>
      <point x="552.778" y="687.361"/>
      <point x="494.895" y="736"/>
      <point x="401.165" y="736" type="curve" smooth="yes"/>
      <point x="286.144" y="736"/>
      <point x="204.794" y="662.753"/>
      <point x="180.739" y="539" type="curve" smooth="yes"/>
    </contour>
    <contour>
      <point x="455.356" y="20" type="line"/>
      <point x="-23.6443" y="20" type="line"/>
      <point x="-27.532" y="0" type="line"/>
      <point x="451.468" y="0" type="line"/>
    </contour>
    <contour>
      <point x="56.8291" y="434" type="line"/>
      <point x="52.9415" y="414" type="line"/>
      <point x="375.941" y="414" type="line"/>
      <point x="379.829" y="434" type="line"/>
    </contour>
  </outline>
</glyph>
<glyph name="currency" format="2">
  <advance width="619"/>
  <unicode hex="00A4"/>
  <outline>
    <contour>
      <point x="110.42" y="381.868" type="curve" smooth="yes"/>
      <point x="110.42" y="282.869"/>
      <point x="179.981" y="216"/>
      <point x="286.907" y="216" type="curve" smooth="yes"/>
      <point x="426.609" y="216"/>
      <point x="542.077" y="336.56"/>
      <point x="542.077" y="474.778" type="curve" smooth="yes"/>
      <point x="542.077" y="571.951"/>
      <point x="473.614" y="639"/>
      <point x="370.123" y="639" type="curve" smooth="yes"/>
      <point x="226.736" y="639"/>
      <point x="110.42" y="524.906"/>
    </contour>
    <contour>
      <point x="366.029" y="620.501" type="curve" smooth="yes"/>
      <point x="461.567" y="620.501"/>
      <point x="521.483" y="558.93"/>
      <point x="521.483" y="470.181" type="curve" smooth="yes"/>
      <point x="521.483" y="345.102"/>
      <point x="418.179" y="233.501"/>
      <point x="290.804" y="233.501" type="curve" smooth="yes"/>
      <point x="192.127" y="233.501"/>
      <point x="130.462" y="293.472"/>
      <point x="130.462" y="383.858" type="curve" smooth="yes"/>
      <point x="130.462" y="513.869"/>
      <point x="234.627" y="620.501"/>
    </contour>
    <contour>
      <point x="223.317" y="578.871" type="line"/>
      <point x="132.923" y="689.888" type="line"/>
      <point x="114.313" y="674.308" type="line"/>
      <point x="204.916" y="564.201" type="line"/>
    </contour>
    <contour>
      <point x="500.189" y="562.011" type="line"/>
      <point x="633.946" y="674" type="line"/>
      <point x="621.014" y="690.053" type="line"/>
      <point x="488.963" y="578.795" type="line"/>
    </contour>
    <contour>
      <point x="436.158" y="283.179" type="line"/>
      <point x="524.468" y="174.265" type="line"/>
      <point x="541.134" y="187.901" type="line"/>
      <point x="452.935" y="296.869" type="line"/>
    </contour>
    <contour>
      <point x="148.795" y="291.935" type="line"/>
      <point x="20.7411" y="183.948" type="line"/>
      <point x="31.9783" y="170" type="line"/>
      <point x="158.941" y="276.3" type="line"/>
    </contour>
  </outline>
  <guideline angle="135.246" x="193" y="563.863"/>
  <guideline angle="225.246" x="544" y="680.138"/>
  <guideline angle="45" x="465" y="569"/>
  <guideline angle="315.49" x="40" y="684.441"/>
  <guideline angle="225" x="76" y="700"/>
  <guideline angle="135" x="580" y="664"/>
  <guideline angle="44.2152" x="543" y="160"/>
  <guideline angle="315" x="40" y="196"/>
  <guideline angle="90" x="312" y="0"/>
  <guideline angle="0" x="0" y="431"/>
</glyph>
<glyph name="yen" format="2">
  <advance width="558"/>
  <unicode hex="00A5"/>
  <outline>
    <contour>
      <point x="585.171" y="722" type="line"/>
      <point x="563.357" y="722" type="line"/>
      <point x="263.907" y="294.367" type="line"/>
      <point x="271.861" y="294.367" type="line"/>
      <point x="137.171" y="722" type="line"/>
      <point x="115.171" y="722" type="line"/>
      <point x="250.381" y="287" type="line"/>
      <point x="255.616" y="287" type="line"/>
      <point x="199.829" y="0" type="line"/>
      <point x="219.829" y="0" type="line"/>
      <point x="275.616" y="287" type="line"/>
      <point x="279.116" y="287" type="line"/>
    </contour>
    <contour>
      <point x="258.629" y="307" type="line"/>
      <point x="3.50345" y="307" type="line"/>
      <point x="-0.384158" y="287" type="line"/>
      <point x="265.616" y="287" type="line"/>
    </contour>
    <contour>
      <point x="265.353" y="287" type="line"/>
      <point x="531.616" y="287" type="line"/>
      <point x="535.503" y="307" type="line"/>
      <point x="279.503" y="307" type="line"/>
    </contour>
    <contour>
      <point x="198.139" y="492.5" type="line"/>
      <point x="39.561" y="492.5" type="line"/>
      <point x="35.6734" y="472.5" type="line"/>
      <point x="204.956" y="472.5" type="line"/>
    </contour>
    <contour>
      <point x="398.992" y="472.5" type="line"/>
      <point x="567.673" y="472.5" type="line"/>
      <point x="571.561" y="492.5" type="line"/>
      <point x="412.765" y="492.5" type="line"/>
    </contour>
  </outline>
  <guideline angle="90" x="280" y="0"/>
  <guideline angle="90" x="270" y="0"/>
  <guideline angle="90" x="290" y="0"/>
  <guideline angle="116.937" x="254" y="354"/>
  <guideline angle="243.186" x="493" y="722"/>
</glyph>
<glyph name="section" format="2">
  <advance width="467"/>
  <unicode hex="00A7"/>
  <outline>
    <contour>
      <point x="36.765" y="329.959" type="curve" smooth="yes"/>
      <point x="36.6905" y="302.696"/>
      <point x="46.8806" y="276.402"/>
      <point x="67.5961" y="257.045" type="curve" smooth="yes"/>
      <point x="261.035" y="76.288" type="line" smooth="yes"/>
      <point x="278.308" y="60.1471"/>
      <point x="289.908" y="39.6564"/>
      <point x="289.908" y="5.065" type="curve" smooth="yes"/>
      <point x="289.908" y="-88.7226"/>
      <point x="204.64" y="-131"/>
      <point x="115.238" y="-131" type="curve" smooth="yes"/>
      <point x="66.3488" y="-131"/>
      <point x="14.4324" y="-103.587"/>
      <point x="-16.7944" y="-59" type="curve"/>
      <point x="-21.6539" y="-84" type="line"/>
      <point x="11.7002" y="-123.901"/>
      <point x="64.0787" y="-149"/>
      <point x="114.711" y="-149" type="curve" smooth="yes"/>
      <point x="214.793" y="-149"/>
      <point x="309.908" y="-94.0102"/>
      <point x="309.908" y="9.74092" type="curve" smooth="yes"/>
      <point x="309.908" y="46.7865"/>
      <point x="297.781" y="72.0056"/>
      <point x="280.33" y="88.597" type="curve" smooth="yes"/>
      <point x="87.5086" y="267.991" type="line" smooth="yes"/>
      <point x="66.8402" y="287.22"/>
      <point x="57.4667" y="308.94"/>
      <point x="57.4667" y="333.102" type="curve" smooth="yes"/>
      <point x="57.4667" y="416.056"/>
      <point x="167.95" y="447.878"/>
      <point x="236.171" y="454.772" type="curve"/>
      <point x="220.721" y="469.523" type="line"/>
      <point x="143.869" y="463.704"/>
      <point x="37.0053" y="417.886"/>
    </contour>
    <contour>
      <point x="145.068" y="568.361" type="curve" smooth="yes"/>
      <point x="145.068" y="532.711"/>
      <point x="157.529" y="509.738"/>
      <point x="179.355" y="490.262" type="curve" smooth="yes"/>
      <point x="369.395" y="319.803" type="line" smooth="yes"/>
      <point x="383.71" y="307.029"/>
      <point x="390.654" y="294.386"/>
      <point x="390.654" y="274.799" type="curve" smooth="yes"/>
      <point x="390.654" y="189.531"/>
      <point x="273.706" y="158.398"/>
      <point x="206.957" y="146.268" type="curve"/>
      <point x="223.782" y="131.951" type="line"/>
      <point x="295.725" y="149.12"/>
      <point x="411.031" y="184.007"/>
      <point x="411.031" y="274.899" type="curve" smooth="yes"/>
      <point x="411.031" y="300.031"/>
      <point x="402.215" y="321.322"/>
      <point x="384.05" y="337.385" type="curve" smooth="yes"/>
      <point x="192.507" y="507.629" type="line" smooth="yes"/>
      <point x="175.202" y="522.932"/>
      <point x="166.248" y="545.525"/>
      <point x="166.248" y="572.804" type="curve" smooth="yes"/>
      <point x="166.248" y="650.694"/>
      <point x="239.252" y="695"/>
      <point x="313.923" y="695" type="curve" smooth="yes"/>
      <point x="364.873" y="695"/>
      <point x="402.913" y="674.372"/>
      <point x="437.391" y="626.029" type="curve"/>
      <point x="442.245" y="651" type="line"/>
      <point x="408.758" y="693.933"/>
      <point x="369.356" y="713"/>
      <point x="315.721" y="713" type="curve" smooth="yes"/>
      <point x="225.309" y="713"/>
      <point x="145.068" y="658.822"/>
    </contour>
  </outline>
  <guideline angle="142.093" x="364" y="353.893"/>
  <guideline angle="324.09" x="174" y="466.241"/>
  <guideline angle="141.766" x="329" y="90.5152"/>
  <guideline angle="321.814" x="68" y="270.169"/>
</glyph>
<glyph name="dieresis" format="2">
  <advance width="261"/>
  <unicode hex="00A8"/>
  <outline>
    <contour>
      <point x="40.3007" y="630" type="line"/>
      <point x="62.3007" y="630" type="line"/>
      <point x="80.1855" y="722" type="line"/>
      <point x="58.1855" y="722" type="line"/>
    </contour>
    <contour>
      <point x="180.301" y="630" type="line"/>
      <point x="202.301" y="630" type="line"/>
      <point x="220.186" y="722" type="line"/>
      <point x="198.186" y="722" type="line"/>
    </contour>
  </outline>
  <guideline angle="0" x="0" y="722"/>
  <guideline angle="90" x="69" y="0"/>
</glyph>
<glyph name="copyright" format="2">
  <advance width="867"/>
  <unicode hex="00A9"/>
  <outline>
    <contour>
      <point x="242.265" y="280.356" type="curve" smooth="yes"/>
      <point x="242.265" y="186.801"/>
      <point x="290.848" y="141.5"/>
      <point x="389.177" y="141.5" type="curve" smooth="yes"/>
      <point x="489.065" y="141.5"/>
      <point x="552.631" y="188.249"/>
      <point x="580.109" y="284" type="curve"/>
      <point x="560.109" y="284" type="line"/>
      <point x="533.963" y="200.412"/>
      <point x="480.602" y="159.5"/>
      <point x="393.977" y="159.5" type="curve" smooth="yes"/>
      <point x="305.665" y="159.5"/>
      <point x="262.9" y="202.021"/>
      <point x="262.9" y="286.157" type="curve" smooth="yes"/>
      <point x="262.9" y="306.103"/>
      <point x="265.304" y="328.388"/>
      <point x="270.088" y="353" type="curve" smooth="yes"/>
      <point x="274.305" y="374.694" type="line" smooth="yes"/>
      <point x="296.05" y="486.561"/>
      <point x="370.191" y="558.5"/>
      <point x="461.876" y="558.5" type="curve" smooth="yes"/>
      <point x="547.486" y="558.5"/>
      <point x="588.583" y="526.877"/>
      <point x="588.583" y="469.53" type="curve" smooth="yes"/>
      <point x="588.583" y="460.632"/>
      <point x="587.593" y="451.115"/>
      <point x="585.627" y="441" type="curve"/>
      <point x="605.627" y="441" type="line"/>
      <point x="607.936" y="452.877"/>
      <point x="609.089" y="464.008"/>
      <point x="609.089" y="474.379" type="curve" smooth="yes"/>
      <point x="609.089" y="541.224"/>
      <point x="561.181" y="576.5"/>
      <point x="465.966" y="576.5" type="curve" smooth="yes"/>
      <point x="311.099" y="576.5"/>
      <point x="242.265" y="414.953"/>
    </contour>
    <contour>
      <point x="52.1189" y="286.856" type="curve" smooth="yes"/>
      <point x="52.1189" y="108.64"/>
      <point x="172.882" y="-12.502"/>
      <point x="358.976" y="-12.502" type="curve" smooth="yes"/>
      <point x="601.08" y="-12.502"/>
      <point x="812.516" y="193.75"/>
      <point x="812.516" y="429.183" type="curve" smooth="yes"/>
      <point x="812.516" y="608.639"/>
      <point x="689.671" y="731.502"/>
      <point x="503.596" y="731.502" type="curve" smooth="yes"/>
      <point x="262.706" y="731.502"/>
      <point x="52.1189" y="522.196"/>
    </contour>
    <contour>
      <point x="499.805" y="711.998" type="curve" smooth="yes"/>
      <point x="676.379" y="711.998"/>
      <point x="792.021" y="596.566"/>
      <point x="792.021" y="426.345" type="curve" smooth="yes"/>
      <point x="792.021" y="203.073"/>
      <point x="593.065" y="7"/>
      <point x="362.767" y="7" type="curve" smooth="yes"/>
      <point x="186.881" y="7"/>
      <point x="72.7152" y="121.797"/>
      <point x="72.7152" y="291.123" type="curve" smooth="yes"/>
      <point x="72.7152" y="514.117"/>
      <point x="270.721" y="711.998"/>
    </contour>
  </outline>
  <guideline angle="90" x="433" y="0"/>
  <guideline angle="0" x="0" y="360"/>
</glyph>
<glyph name="guillemotleft" format="2">
  <advance width="551"/>
  <unicode hex="00AB"/>
  <outline>
    <contour>
      <point x="199.636" y="57" type="line"/>
      <point x="113.237" y="262.22" type="line"/>
      <point x="109.264" y="241.78" type="line"/>
      <point x="275.444" y="447" type="line"/>
      <point x="255.444" y="447" type="line"/>
      <point x="80.5398" y="252" type="line"/>
      <point x="179.636" y="57" type="line"/>
    </contour>
    <contour>
      <point x="394.336" y="57" type="line"/>
      <point x="307.938" y="262.22" type="line"/>
      <point x="303.965" y="241.78" type="line"/>
      <point x="470.145" y="447" type="line"/>
      <point x="450.145" y="447" type="line"/>
      <point x="275.24" y="252" type="line"/>
      <point x="374.336" y="57" type="line"/>
    </contour>
  </outline>
  <guideline angle="301.576" x="164" y="262"/>
  <guideline angle="54.9095" x="95" y="252"/>
  <guideline angle="125.091" x="232" y="57"/>
</glyph>
<glyph name="logicalnot" format="2">
  <advance width="619"/>
  <unicode hex="00AC"/>
  <outline>
    <contour>
      <point x="557.862" y="189" type="line"/>
      <point x="598.876" y="400" type="line"/>
      <point x="78.8761" y="400" type="line"/>
      <point x="74.9885" y="380" type="line"/>
      <point x="574.988" y="380" type="line"/>
      <point x="537.862" y="189" type="line"/>
    </contour>
  </outline>
</glyph>
<glyph name="uni00AD" format="2">
  <advance width="310"/>
  <unicode hex="00AD"/>
  <outline>
    <contour>
      <point x="296.144" y="289" type="line"/>
      <point x="300.032" y="309" type="line"/>
      <point x="70.0318" y="309" type="line"/>
      <point x="66.1442" y="289" type="line"/>
    </contour>
  </outline>
</glyph>
<glyph name="registered" format="2">
  <advance width="867"/>
  <unicode hex="00AE"/>
  <outline>
    <contour>
      <point x="52.1189" y="286.856" type="curve" smooth="yes"/>
      <point x="52.1189" y="108.64"/>
      <point x="172.882" y="-12.502"/>
      <point x="358.976" y="-12.502" type="curve" smooth="yes"/>
      <point x="601.08" y="-12.502"/>
      <point x="812.516" y="193.75"/>
      <point x="812.516" y="429.183" type="curve" smooth="yes"/>
      <point x="812.516" y="608.639"/>
      <point x="689.671" y="731.502"/>
      <point x="503.596" y="731.502" type="curve" smooth="yes"/>
      <point x="262.706" y="731.502"/>
      <point x="52.1189" y="522.196"/>
    </contour>
    <contour>
      <point x="499.805" y="711.998" type="curve" smooth="yes"/>
      <point x="676.379" y="711.998"/>
      <point x="792.021" y="596.566"/>
      <point x="792.021" y="426.345" type="curve" smooth="yes"/>
      <point x="792.021" y="203.073"/>
      <point x="593.065" y="7"/>
      <point x="362.767" y="7" type="curve" smooth="yes"/>
      <point x="186.881" y="7"/>
      <point x="72.7152" y="121.797"/>
      <point x="72.7152" y="291.123" type="curve" smooth="yes"/>
      <point x="72.7152" y="514.117"/>
      <point x="270.721" y="711.998"/>
    </contour>
    <contour>
      <point x="341.998" y="582" type="line"/>
      <point x="517.238" y="582" type="line" smooth="yes"/>
      <point x="570.847" y="582"/>
      <point x="597.647" y="558.508"/>
      <point x="597.647" y="511.892" type="curve" smooth="yes"/>
      <point x="597.647" y="433.559"/>
      <point x="523.75" y="380.5"/>
      <point x="448.867" y="380.5" type="curve" smooth="yes"/>
      <point x="312.867" y="380.5" type="line"/>
      <point x="309.368" y="362.5" type="line"/>
      <point x="449.026" y="362.5" type="line" smooth="yes"/>
      <point x="522.41" y="362.5"/>
      <point x="531.499" y="328.785"/>
      <point x="531.499" y="260.921" type="curve" smooth="yes"/>
      <point x="531.499" y="243.573"/>
      <point x="527.322" y="207.272"/>
      <point x="527.31" y="188.466" type="curve" smooth="yes"/>
      <point x="527.296" y="165.113"/>
      <point x="527.209" y="150.593"/>
      <point x="529.175" y="130" type="curve"/>
      <point x="552.175" y="130" type="line"/>
      <point x="550.406" y="144.918"/>
      <point x="549.467" y="160.789"/>
      <point x="549.431" y="184.752" type="curve" smooth="yes"/>
      <point x="549.395" y="209.291"/>
      <point x="553.478" y="242.904"/>
      <point x="553.415" y="274.779" type="curve" smooth="yes"/>
      <point x="553.323" y="320.937"/>
      <point x="544.54" y="360.114"/>
      <point x="496.87" y="371.695" type="curve"/>
      <point x="565.69" y="393.103"/>
      <point x="618.015" y="441.401"/>
      <point x="618.015" y="513.609" type="curve" smooth="yes"/>
      <point x="618.015" y="579.043"/>
      <point x="575.046" y="600"/>
      <point x="523.736" y="600" type="curve" smooth="yes"/>
      <point x="345.532" y="600" type="line"/>
    </contour>
    <contour>
      <point x="254.369" y="131" type="line"/>
      <point x="274.369" y="131" type="line"/>
      <point x="365.534" y="600.001" type="line"/>
      <point x="345.533" y="600" type="line"/>
    </contour>
  </outline>
</glyph>
<glyph name="macron" format="2">
  <advance width="416"/>
  <unicode hex="00AF"/>
  <outline>
    <contour>
      <point x="60.7773" y="620.25" type="line"/>
      <point x="351.777" y="620.25" type="line"/>
      <point x="355.617" y="640" type="line"/>
      <point x="64.6167" y="640" type="line"/>
    </contour>
  </outline>
  <guideline angle="0" x="0" y="620"/>
  <guideline angle="90" x="208" y="0"/>
</glyph>
<glyph name="degree" format="2">
  <advance width="320"/>
  <unicode hex="00B0"/>
  <outline>
    <contour>
      <point x="230.473" y="720" type="curve" smooth="yes"/>
      <point x="162.202" y="720"/>
      <point x="96.528" y="658.097"/>
      <point x="96.528" y="589.021" type="curve" smooth="yes"/>
      <point x="96.528" y="538.145"/>
      <point x="134.271" y="500"/>
      <point x="187.71" y="500" type="curve" smooth="yes"/>
      <point x="255.369" y="500"/>
      <point x="320.701" y="563.184"/>
      <point x="320.701" y="631.353" type="curve" smooth="yes"/>
      <point x="320.701" y="682.042"/>
      <point x="283.781" y="720"/>
    </contour>
    <contour>
      <point x="190.406" y="520" type="curve" smooth="yes"/>
      <point x="147.209" y="520"/>
      <point x="116.652" y="550.925"/>
      <point x="116.652" y="591.781" type="curve" smooth="yes"/>
      <point x="116.652" y="648.251"/>
      <point x="172.429" y="700"/>
      <point x="227.98" y="700" type="curve" smooth="yes"/>
      <point x="270.446" y="700"/>
      <point x="300.347" y="669.273"/>
      <point x="300.347" y="627.746" type="curve" smooth="yes"/>
      <point x="300.347" y="571.148"/>
      <point x="246.43" y="520"/>
    </contour>
  </outline>
</glyph>
<glyph name="plusminus" format="2">
  <advance width="1000"/>
  <unicode hex="00B1"/>
  <outline>
    <contour>
      <point x="815.162" y="378" type="line"/>
      <point x="819.049" y="398" type="line"/>
      <point x="529.049" y="398" type="line"/>
      <point x="568.314" y="600" type="line"/>
      <point x="548.314" y="600" type="line"/>
      <point x="509.049" y="398" type="line"/>
      <point x="219.049" y="398" type="line"/>
      <point x="215.162" y="378" type="line"/>
      <point x="505.162" y="378" type="line"/>
      <point x="466.37" y="178.432" type="line"/>
      <point x="486.37" y="178.432" type="line"/>
      <point x="525.162" y="378" type="line"/>
    </contour>
    <contour>
      <point x="745.962" y="22" type="line"/>
      <point x="749.85" y="42" type="line"/>
      <point x="149.85" y="42" type="line"/>
      <point x="145.962" y="22" type="line"/>
    </contour>
  </outline>
</glyph>
<glyph name="twosuperior" format="2">
  <advance width="353"/>
  <unicode hex="00B2"/>
  <outline>
    <contour>
      <point x="27.6184" y="364" type="line"/>
      <point x="23.1472" y="341" type="line"/>
      <point x="296.147" y="341" type="line"/>
      <point x="300.035" y="361" type="line"/>
      <point x="38.7034" y="361" type="line"/>
      <point x="36.996" y="350.884" type="line"/>
      <point x="148.536" y="420.621" type="line" smooth="yes"/>
      <point x="220.132" y="465.384"/>
      <point x="360.215" y="550.687"/>
      <point x="360.215" y="651.531" type="curve" smooth="yes"/>
      <point x="360.215" y="705.081"/>
      <point x="320.714" y="732"/>
      <point x="255.073" y="732" type="curve" smooth="yes"/>
      <point x="168.513" y="732"/>
      <point x="104.243" y="685.191"/>
      <point x="86.024" y="613" type="curve"/>
      <point x="105.024" y="613" type="line"/>
      <point x="125.678" y="677.664"/>
      <point x="176.821" y="714"/>
      <point x="248.822" y="714" type="curve" smooth="yes"/>
      <point x="305.893" y="714"/>
      <point x="339.832" y="691.17"/>
      <point x="339.832" y="648.857" type="curve" smooth="yes"/>
      <point x="339.832" y="556.72"/>
      <point x="178.914" y="458.192"/>
      <point x="117.407" y="419.899" type="curve" smooth="yes"/>
    </contour>
  </outline>
  <guideline angle="0" x="0" y="-11"/>
</glyph>
<glyph name="threesuperior" format="2">
  <advance width="371"/>
  <unicode hex="00B3"/>
  <outline>
    <contour>
      <point x="57.6255" y="452" type="line"/>
      <point x="56.4785" y="443.656"/>
      <point x="55.926" y="435.717"/>
      <point x="55.9633" y="428.191" type="curve" smooth="yes"/>
      <point x="56.2605" y="365.026"/>
      <point x="99.2282" y="331"/>
      <point x="183.45" y="331" type="curve" smooth="yes"/>
      <point x="264.633" y="331"/>
      <point x="349.529" y="362.615"/>
      <point x="349.529" y="452.047" type="curve" smooth="yes"/>
      <point x="349.529" y="505.869"/>
      <point x="319.485" y="537.993"/>
      <point x="259.665" y="542.658" type="curve"/>
      <point x="258.992" y="538.626" type="line"/>
      <point x="323.523" y="547.351"/>
      <point x="370.619" y="587.51"/>
      <point x="370.619" y="650.523" type="curve" smooth="yes"/>
      <point x="370.619" y="704.279"/>
      <point x="336.336" y="732"/>
      <point x="265.92" y="732" type="curve" smooth="yes"/>
      <point x="175.172" y="732"/>
      <point x="117.524" y="686.426"/>
      <point x="104.898" y="622" type="curve"/>
      <point x="125.062" y="622" type="line"/>
      <point x="135.42" y="674.137"/>
      <point x="188.709" y="714.073"/>
      <point x="266.048" y="713.865" type="curve" smooth="yes"/>
      <point x="323.285" y="713.712"/>
      <point x="349.951" y="691.687"/>
      <point x="349.951" y="648.036" type="curve" smooth="yes"/>
      <point x="349.951" y="578.267"/>
      <point x="280.074" y="547.64"/>
      <point x="216.038" y="547.64" type="curve" smooth="yes"/>
      <point x="189.125" y="547.64" type="line"/>
      <point x="185.593" y="529.612" type="line"/>
      <point x="224.458" y="529.612" type="line" smooth="yes"/>
      <point x="309.456" y="529.612"/>
      <point x="329.951" y="486.825"/>
      <point x="329.951" y="447.309" type="curve" smooth="yes"/>
      <point x="329.951" y="371.524"/>
      <point x="254.568" y="349"/>
      <point x="188.325" y="349" type="curve" smooth="yes"/>
      <point x="112.863" y="349"/>
      <point x="75.9407" y="378.23"/>
      <point x="75.9634" y="437.731" type="curve" smooth="yes"/>
      <point x="75.9653" y="442.308"/>
      <point x="76.1858" y="447.064"/>
      <point x="76.6253" y="452" type="curve"/>
    </contour>
  </outline>
</glyph>
<glyph name="acute" format="2">
  <advance width="180"/>
  <unicode hex="00B4"/>
  <outline>
    <contour>
      <point x="20" y="580" type="line"/>
      <point x="30" y="580" type="line"/>
      <point x="160" y="750" type="line"/>
      <point x="130" y="750" type="line"/>
    </contour>
  </outline>
  <guideline angle="0" x="0" y="750"/>
</glyph>
<glyph name="periodcentered" format="2">
  <advance width="206"/>
  <unicode hex="00B7"/>
  <outline>
    <contour>
      <point x="102.014" y="298" type="line"/>
      <point x="125.925" y="421" type="line"/>
      <point x="103.925" y="421" type="line"/>
      <point x="80.0141" y="298" type="line"/>
    </contour>
  </outline>
</glyph>
<glyph name="cedilla" format="2">
  <advance width="268"/>
  <unicode hex="00B8"/>
  <outline>
    <contour>
      <point x="217.268" y="-118.642" type="curve" smooth="yes"/>
      <point x="217.268" y="-75.9472"/>
      <point x="186.222" y="-47.2741"/>
      <point x="139.653" y="-47" type="curve" smooth="yes"/>
      <point x="119.087" y="-46.8789"/>
      <point x="109.17" y="-48.9902"/>
      <point x="94.6647" y="-53.2057" type="curve"/>
      <point x="101.819" y="-65.5718" type="line"/>
      <point x="142.312" y="1.12547" type="line"/>
      <point x="122.312" y="1.12547" type="line"/>
      <point x="82.5342" y="-67" type="line"/>
      <point x="86.5972" y="-73.0548" type="line"/>
      <point x="101.418" y="-68.7308"/>
      <point x="114.789" y="-66.6021"/>
      <point x="129.832" y="-66.6375" type="curve" smooth="yes"/>
      <point x="169.977" y="-66.732"/>
      <point x="196.781" y="-89.679"/>
      <point x="196.842" y="-124.005" type="curve" smooth="yes"/>
      <point x="196.922" y="-169.42"/>
      <point x="151.881" y="-199.696"/>
      <point x="84.2393" y="-199.696" type="curve" smooth="yes"/>
      <point x="64.321" y="-199.696"/>
      <point x="48.0768" y="-198.316"/>
      <point x="33.8372" y="-195.009" type="curve"/>
      <point x="30.1567" y="-213" type="line"/>
      <point x="43.5335" y="-218.321"/>
      <point x="68.9804" y="-220"/>
      <point x="84.1353" y="-220" type="curve" smooth="yes"/>
      <point x="164.015" y="-220"/>
      <point x="217.267" y="-179.457"/>
    </contour>
  </outline>
  <guideline angle="0" x="0" y="-53"/>
  <guideline angle="0" x="0" y="-67"/>
</glyph>
<glyph name="onesuperior" format="2">
  <advance width="290"/>
  <unicode hex="00B9"/>
  <outline>
    <contour>
      <point x="169.508" y="343" type="line"/>
      <point x="243.186" y="722" type="line"/>
      <point x="223.186" y="722" type="line"/>
      <point x="207.657" y="710.526" type="line" smooth="yes"/>
      <point x="190.34" y="697.731"/>
      <point x="138.66" y="673"/>
      <point x="115.105" y="665" type="curve"/>
      <point x="112.189" y="650" type="line"/>
      <point x="142.333" y="656.964"/>
      <point x="180.102" y="672.853"/>
      <point x="218.52" y="698" type="curve"/>
      <point x="149.508" y="343" type="line"/>
    </contour>
  </outline>
</glyph>
<glyph name="ordmasculine" format="2">
  <advance width="418"/>
  <unicode hex="00BA"/>
  <outline>
    <contour>
      <point x="73.3973" y="470.601" type="curve" smooth="yes"/>
      <point x="73.3973" y="390.768"/>
      <point x="115.938" y="341"/>
      <point x="204.285" y="341" type="curve" smooth="yes"/>
      <point x="337.604" y="341"/>
      <point x="406.01" y="461.172"/>
      <point x="406.01" y="581.396" type="curve" smooth="yes"/>
      <point x="406.01" y="661.093"/>
      <point x="364.039" y="710"/>
      <point x="276.019" y="710" type="curve" smooth="yes"/>
      <point x="143.339" y="710"/>
      <point x="73.3973" y="590.815"/>
    </contour>
    <contour>
      <point x="271.617" y="692.5" type="curve" smooth="yes"/>
      <point x="349.154" y="692.5"/>
      <point x="385.372" y="645.769"/>
      <point x="385.372" y="574.962" type="curve" smooth="yes"/>
      <point x="385.372" y="469.398"/>
      <point x="326.044" y="359.5"/>
      <point x="208.101" y="359.5" type="curve" smooth="yes"/>
      <point x="129.89" y="359.5"/>
      <point x="93.6164" y="404.065"/>
      <point x="93.6164" y="474.444" type="curve" smooth="yes"/>
      <point x="93.6164" y="579.428"/>
      <point x="154.197" y="692.5"/>
    </contour>
    <contour>
      <point x="12.6922" y="250.5" type="line"/>
      <point x="365.692" y="250.5" type="line"/>
      <point x="369.58" y="270.5" type="line"/>
      <point x="16.5802" y="270.5" type="line"/>
    </contour>
  </outline>
</glyph>
<glyph name="guillemotright" format="2">
  <advance width="551"/>
  <unicode hex="00BB"/>
  <outline>
    <contour>
      <point x="80.6357" y="57" type="line"/>
      <point x="100.636" y="57" type="line"/>
      <point x="275.54" y="252" type="line"/>
      <point x="176.444" y="447" type="line"/>
      <point x="156.444" y="447" type="line"/>
      <point x="242.842" y="241.78" type="line"/>
      <point x="246.816" y="262.22" type="line"/>
    </contour>
    <contour>
      <point x="275.336" y="57" type="line"/>
      <point x="295.336" y="57" type="line"/>
      <point x="470.24" y="252" type="line"/>
      <point x="371.145" y="447" type="line"/>
      <point x="351.145" y="447" type="line"/>
      <point x="437.543" y="241.78" type="line"/>
      <point x="441.516" y="262.22" type="line"/>
    </contour>
  </outline>
</glyph>
<glyph name="onequarter" format="2">
  <advance width="799"/>
  <unicode hex="00BC"/>
  <outline>
    <component base="onesuperior"/>
    <contour>
      <point x="646.532" y="736" type="line"/>
      <point x="622.532" y="736" type="line"/>
      <point x="50.7468" y="-14" type="line"/>
      <point x="74.7468" y="-14" type="line"/>
    </contour>
    <contour>
      <point x="405.936" y="122.172" type="line"/>
      <point x="625.694" y="362.141" type="line"/>
      <point x="621.947" y="372.874" type="line"/>
      <point x="549.468" y="0" type="line"/>
      <point x="569.468" y="0" type="line"/>
      <point x="645.276" y="390" type="line"/>
      <point x="627.848" y="390" type="line"/>
      <point x="393.388" y="133.347" type="line"/>
      <point x="389.433" y="113" type="line"/>
      <point x="674.433" y="113" type="line"/>
      <point x="677.932" y="131" type="line"/>
      <point x="409.017" y="131" type="line"/>
    </contour>
  </outline>
  <guideline angle="53.8807" x="471" y="139"/>
  <guideline angle="234.284" x="593" y="390"/>
  <guideline angle="0" x="0" y="722"/>
</glyph>
<glyph name="threequarters" format="2">
  <advance width="799"/>
  <unicode hex="00BE"/>
  <outline>
    <contour>
      <point x="57.3279" y="452" type="line"/>
      <point x="56.1851" y="444.118"/>
      <point x="55.5769" y="436.599"/>
      <point x="55.5769" y="429.447" type="curve" smooth="yes"/>
      <point x="55.5769" y="365.477"/>
      <point x="99.4971" y="331"/>
      <point x="183.436" y="331" type="curve" smooth="yes"/>
      <point x="263.815" y="331"/>
      <point x="349.121" y="362.615"/>
      <point x="349.121" y="452.047" type="curve" smooth="yes"/>
      <point x="349.121" y="505.869"/>
      <point x="318.224" y="537.993"/>
      <point x="258.888" y="542.658" type="curve"/>
      <point x="258.22" y="538.626" type="line"/>
      <point x="322.23" y="547.351"/>
      <point x="370.23" y="587.51"/>
      <point x="370.23" y="650.523" type="curve" smooth="yes"/>
      <point x="370.23" y="704.279"/>
      <point x="335.296" y="732"/>
      <point x="265.093" y="732" type="curve" smooth="yes"/>
      <point x="175.078" y="732"/>
      <point x="117.896" y="686.426"/>
      <point x="105.373" y="622" type="curve"/>
      <point x="125.373" y="622" type="line"/>
      <point x="135.648" y="674.137"/>
      <point x="188.505" y="714.073"/>
      <point x="265.219" y="713.865" type="curve" smooth="yes"/>
      <point x="321.993" y="713.712"/>
      <point x="349.562" y="691.687"/>
      <point x="349.562" y="648.036" type="curve" smooth="yes"/>
      <point x="349.562" y="578.267"/>
      <point x="279.132" y="547.64"/>
      <point x="215.613" y="547.64" type="curve" smooth="yes"/>
      <point x="188.918" y="547.64" type="line"/>
      <point x="185.414" y="529.612" type="line"/>
      <point x="223.965" y="529.612" type="line" smooth="yes"/>
      <point x="308.276" y="529.612"/>
      <point x="328.605" y="486.825"/>
      <point x="328.605" y="447.309" type="curve" smooth="yes"/>
      <point x="328.605" y="371.524"/>
      <point x="253.831" y="349"/>
      <point x="188.127" y="349" type="curve" smooth="yes"/>
      <point x="116.171" y="349"/>
      <point x="74.8933" y="376.015"/>
      <point x="75.3948" y="431.295" type="curve" smooth="yes"/>
      <point x="75.4539" y="437.804"/>
      <point x="76.0922" y="444.705"/>
      <point x="77.3279" y="452" type="curve"/>
    </contour>
    <contour>
      <point x="709.532" y="736" type="line"/>
      <point x="685.532" y="736" type="line"/>
      <point x="113.747" y="-14" type="line"/>
      <point x="137.747" y="-14" type="line"/>
    </contour>
    <contour>
      <point x="405.936" y="122.172" type="line"/>
      <point x="625.694" y="362.141" type="line"/>
      <point x="621.947" y="372.874" type="line"/>
      <point x="549.468" y="0" type="line"/>
      <point x="569.468" y="0" type="line"/>
      <point x="645.276" y="390" type="line"/>
      <point x="627.848" y="390" type="line"/>
      <point x="393.388" y="133.347" type="line"/>
      <point x="389.433" y="113" type="line"/>
      <point x="674.433" y="113" type="line"/>
      <point x="677.932" y="131" type="line"/>
      <point x="409.017" y="131" type="line"/>
    </contour>
  </outline>
</glyph>
<glyph name="AE" format="2">
  <advance width="918"/>
  <unicode hex="00C6"/>
  <anchor x="599.75" y="797" name="top"/>
  <outline>
    <contour>
      <point x="40.8287" y="0" type="line"/>
      <point x="65.8287" y="0" type="line"/>
      <point x="563.184" y="687.409" type="line"/>
      <point x="570.327" y="722" type="line"/>
      <point x="564.185" y="722" type="line"/>
    </contour>
    <contour>
      <point x="217.958" y="227" type="line"/>
      <point x="488.958" y="227" type="line"/>
      <point x="492.846" y="247" type="line"/>
      <point x="234.846" y="247" type="line"/>
    </contour>
    <contour>
      <point x="439.829" y="0" type="line"/>
      <point x="787.829" y="0" type="line"/>
      <point x="791.328" y="18" type="line"/>
      <point x="443.328" y="18" type="line"/>
    </contour>
    <contour>
      <point x="509.622" y="359.018" type="line"/>
      <point x="837.622" y="359.018" type="line"/>
      <point x="841.485" y="378.889" type="line"/>
      <point x="513.485" y="378.889" type="line"/>
    </contour>
    <contour>
      <point x="576.686" y="704" type="line"/>
      <point x="914.686" y="704" type="line"/>
      <point x="918.185" y="722" type="line"/>
      <point x="580.185" y="722" type="line"/>
    </contour>
    <contour>
      <point x="429.829" y="0" type="line"/>
      <point x="451.829" y="0" type="line"/>
      <point x="592.186" y="722" type="line"/>
      <point x="570.186" y="722" type="line"/>
    </contour>
  </outline>
</glyph>
<glyph name="Oslash" format="2">
  <advance width="788"/>
  <unicode hex="00D8"/>
  <outline>
    <component base="O" xOffset="25"/>
    <contour>
      <point x="86.153" y="-10" type="line"/>
      <point x="727.075" y="732.018" type="line"/>
      <point x="701.261" y="732" type="line"/>
      <point x="60.3546" y="-10" type="line"/>
    </contour>
  </outline>
  <guideline angle="0" x="0" y="732"/>
  <guideline angle="0" x="0" y="-10"/>
</glyph>
<glyph name="Thorn" format="2">
  <advance width="606"/>
  <unicode hex="00DE"/>
  <outline>
    <contour>
      <point x="100.968" y="172" type="line"/>
      <point x="218.968" y="172" type="line" smooth="yes"/>
      <point x="412.016" y="172"/>
      <point x="545.257" y="233.376"/>
      <point x="545.257" y="442.761" type="curve" smooth="yes"/>
      <point x="545.257" y="547.42"/>
      <point x="472.763" y="588"/>
      <point x="299.831" y="588" type="curve" smooth="yes"/>
      <point x="181.831" y="588" type="line"/>
      <point x="177.943" y="568" type="line"/>
      <point x="298.943" y="568" type="line" smooth="yes"/>
      <point x="455.426" y="568"/>
      <point x="522.349" y="530.464"/>
      <point x="522.349" y="434.925" type="curve" smooth="yes"/>
      <point x="522.349" y="244.624"/>
      <point x="400.166" y="192"/>
      <point x="225.856" y="192" type="curve" smooth="yes"/>
      <point x="104.856" y="192" type="line"/>
    </contour>
    <contour>
      <point x="60.7315" y="0" type="line"/>
      <point x="82.5349" y="0" type="line"/>
      <point x="223.072" y="723" type="line"/>
      <point x="201.268" y="723" type="line"/>
    </contour>
  </outline>
</glyph>
<glyph name="germandbls" format="2">
  <advance width="578"/>
  <unicode hex="00DF"/>
  <outline>
    <contour>
      <point x="60.793" y="-0.3284" type="line"/>
      <point x="82.793" y="-0.3284" type="line"/>
      <point x="186.171" y="531.507" type="line" smooth="yes"/>
      <point x="209.011" y="649.009"/>
      <point x="271.174" y="712"/>
      <point x="384.618" y="712" type="curve" smooth="yes"/>
      <point x="466.969" y="712"/>
      <point x="511.453" y="675.355"/>
      <point x="511.453" y="611.992" type="curve" smooth="yes"/>
      <point x="511.453" y="602.225"/>
      <point x="510.395" y="591.823"/>
      <point x="508.257" y="580.822" type="curve" smooth="yes"/>
      <point x="481.89" y="445.177"/>
      <point x="354.69" y="449.29"/>
      <point x="342.456" y="386.352" type="curve" smooth="yes"/>
      <point x="328.171" y="312.862"/>
      <point x="508.758" y="328.603"/>
      <point x="508.758" y="179.453" type="curve" smooth="yes"/>
      <point x="508.758" y="75.9204"/>
      <point x="445.912" y="10"/>
      <point x="338.862" y="10" type="curve" smooth="yes"/>
      <point x="258.559" y="10"/>
      <point x="216.836" y="44.0109"/>
      <point x="216.836" y="108.205" type="curve" smooth="yes"/>
      <point x="216.836" y="119.046"/>
      <point x="218.026" y="130.747"/>
      <point x="220.421" y="143.29" type="curve"/>
      <point x="198.421" y="143.29" type="line"/>
      <point x="195.614" y="128.851"/>
      <point x="194.257" y="115.488"/>
      <point x="194.257" y="103.179" type="curve" smooth="yes"/>
      <point x="194.257" y="25.7519"/>
      <point x="247.957" y="-10"/>
      <point x="332.388" y="-10" type="curve" smooth="yes"/>
      <point x="454.114" y="-10"/>
      <point x="532.763" y="67.3549"/>
      <point x="532.763" y="188.272" type="curve" smooth="yes"/>
      <point x="532.763" y="332.69"/>
      <point x="354.089" y="333.019"/>
      <point x="365.018" y="389.242" type="curve" smooth="yes"/>
      <point x="373.576" y="433.272"/>
      <point x="502.116" y="441.196"/>
      <point x="528.703" y="577.973" type="curve" smooth="yes"/>
      <point x="531.227" y="590.959"/>
      <point x="532.467" y="603.224"/>
      <point x="532.467" y="614.729" type="curve" smooth="yes"/>
      <point x="532.467" y="689.336"/>
      <point x="480.353" y="732"/>
      <point x="388.484" y="732" type="curve" smooth="yes"/>
      <point x="265.489" y="732"/>
      <point x="190.432" y="666.608"/>
      <point x="165.356" y="537.604" type="curve" smooth="yes"/>
    </contour>
  </outline>
</glyph>
<glyph name="ae" format="2">
  <advance width="905"/>
  <unicode hex="00E6"/>
  <outline>
    <contour>
      <point x="31.5669" y="113.306" type="curve" smooth="yes"/>
      <point x="31.5669" y="34.01"/>
      <point x="85.0309" y="-10"/>
      <point x="181.36" y="-10" type="curve" smooth="yes"/>
      <point x="275.578" y="-10"/>
      <point x="381.792" y="66.6068"/>
      <point x="422.134" y="180.789" type="curve"/>
      <point x="422.735" y="51.0585"/>
      <point x="475.095" y="-10"/>
      <point x="585.741" y="-10" type="curve" smooth="yes"/>
      <point x="683.239" y="-10"/>
      <point x="754.636" y="49.0207"/>
      <point x="787.759" y="157" type="curve"/>
      <point x="767.759" y="157" type="line"/>
      <point x="738.799" y="59.8171"/>
      <point x="678.432" y="10"/>
      <point x="589.629" y="10" type="curve" smooth="yes"/>
      <point x="493.455" y="10"/>
      <point x="439.692" y="71.0586"/>
      <point x="439.692" y="180.284" type="curve" smooth="yes"/>
      <point x="439.692" y="205.429"/>
      <point x="442.547" y="233.067"/>
      <point x="448.366" y="263" type="curve"/>
      <point x="815.866" y="263" type="line"/>
      <point x="819.171" y="280" type="line" smooth="yes"/>
      <point x="824.125" y="305.484"/>
      <point x="826.626" y="329.378"/>
      <point x="826.626" y="351.417" type="curve" smooth="yes"/>
      <point x="826.626" y="450.435"/>
      <point x="776.137" y="512"/>
      <point x="670.771" y="512" type="curve" smooth="yes"/>
      <point x="592.956" y="512"/>
      <point x="499.627" y="458.642"/>
      <point x="456.911" y="343.881" type="curve"/>
      <point x="458.086" y="448.721"/>
      <point x="408.214" y="512"/>
      <point x="299.972" y="512" type="curve" smooth="yes"/>
      <point x="199.563" y="512"/>
      <point x="125.5" y="459.164"/>
      <point x="109.333" y="376" type="curve"/>
      <point x="128.989" y="376" type="line"/>
      <point x="138.109" y="432.82"/>
      <point x="204.278" y="492"/>
      <point x="295.841" y="492" type="curve" smooth="yes"/>
      <point x="391.307" y="492"/>
      <point x="437.351" y="438.97"/>
      <point x="437.351" y="342.759" type="curve" smooth="yes"/>
      <point x="437.351" y="324.39"/>
      <point x="435.673" y="304.448"/>
      <point x="432.254" y="283" type="curve"/>
      <point x="394.214" y="286.222"/>
      <point x="336.42" y="289"/>
      <point x="307.42" y="289" type="curve" smooth="yes"/>
      <point x="134.392" y="289"/>
      <point x="31.5669" y="257.215"/>
    </contour>
    <contour>
      <point x="52.3497" y="118.72" type="curve" smooth="yes"/>
      <point x="52.3497" y="256.769"/>
      <point x="181.973" y="269"/>
      <point x="307.788" y="269" type="curve" smooth="yes"/>
      <point x="328.788" y="269"/>
      <point x="398.689" y="265.625"/>
      <point x="428.366" y="263" type="curve"/>
      <point x="425.839" y="250" type="line" smooth="yes"/>
      <point x="400.996" y="122.211"/>
      <point x="290.18" y="10"/>
      <point x="188.821" y="10" type="curve" smooth="yes"/>
      <point x="99.6447" y="10"/>
      <point x="52.3497" y="47.6773"/>
    </contour>
    <contour>
      <point x="798.254" y="283" type="curve"/>
      <point x="452.254" y="283" type="line"/>
      <point x="497.137" y="423.031"/>
      <point x="577.403" y="492"/>
      <point x="661.883" y="492" type="curve" smooth="yes"/>
      <point x="749.542" y="492"/>
      <point x="805.444" y="448.26"/>
      <point x="805.444" y="350.036" type="curve" smooth="yes"/>
      <point x="805.444" y="329.99"/>
      <point x="803.116" y="307.675"/>
    </contour>
  </outline>
</glyph>
<glyph name="eth" format="2">
  <advance width="587"/>
  <unicode hex="00F0"/>
  <outline>
    <contour>
      <point x="38.0318" y="176.636" type="curve" smooth="yes"/>
      <point x="38.0318" y="59.0865"/>
      <point x="101.92" y="-10"/>
      <point x="218.955" y="-10" type="curve" smooth="yes"/>
      <point x="410.57" y="-10"/>
      <point x="505.374" y="175.191"/>
      <point x="505.374" y="344.449" type="curve" smooth="yes"/>
      <point x="505.374" y="514.815"/>
      <point x="409.326" y="652.816"/>
      <point x="210.338" y="734" type="curve"/>
      <point x="192.848" y="724.884" type="line"/>
      <point x="369.43" y="646.292"/>
      <point x="448.092" y="548.24"/>
      <point x="484.959" y="402.089" type="curve"/>
      <point x="485.744" y="429.254" type="line"/>
      <point x="442.908" y="489.656"/>
      <point x="396.813" y="513"/>
      <point x="325.802" y="513" type="curve" smooth="yes"/>
      <point x="134.786" y="513"/>
      <point x="38.0318" y="344.088"/>
    </contour>
    <contour>
      <point x="316.401" y="495" type="curve" smooth="yes"/>
      <point x="420.394" y="495"/>
      <point x="482.927" y="430.995"/>
      <point x="482.927" y="317.437" type="curve" smooth="yes"/>
      <point x="482.927" y="174.227"/>
      <point x="383.474" y="8"/>
      <point x="226.071" y="8" type="curve" smooth="yes"/>
      <point x="122.411" y="8"/>
      <point x="58.3052" y="80.0937"/>
      <point x="58.3052" y="186.492" type="curve" smooth="yes"/>
      <point x="58.3052" y="339.082"/>
      <point x="154.091" y="495"/>
    </contour>
    <contour>
      <point x="127.069" y="558.156" type="line"/>
      <point x="131.138" y="545.078" type="line"/>
      <point x="497.936" y="697.198" type="line"/>
      <point x="493.589" y="710.878" type="line"/>
    </contour>
  </outline>
  <guideline angle="210.114" x="139" y="734"/>
  <guideline angle="204.28" x="435" y="697.761"/>
  <guideline angle="204.28" x="435" y="713.821"/>
  <guideline angle="293.839" x="87.2791" y="566"/>
  <guideline angle="117.121" x="436.927" y="691"/>
</glyph>
<glyph name="divide" format="2">
  <advance width="1000"/>
  <unicode hex="00F7"/>
  <outline>
    <contour>
      <point x="805.663" y="290" type="line"/>
      <point x="809.55" y="310" type="line"/>
      <point x="209.55" y="310" type="line"/>
      <point x="205.663" y="290" type="line"/>
    </contour>
    <contour>
      <point x="453.492" y="77.7445" type="line"/>
      <point x="475.492" y="77.7445" type="line"/>
      <point x="499.401" y="200.745" type="line"/>
      <point x="477.401" y="200.745" type="line"/>
    </contour>
    <contour>
      <point x="515.887" y="398.738" type="line"/>
      <point x="537.887" y="398.738" type="line"/>
      <point x="561.795" y="521.738" type="line"/>
      <point x="539.795" y="521.738" type="line"/>
    </contour>
  </outline>
</glyph>
<glyph name="oslash" format="2">
  <advance width="591"/>
  <unicode hex="00F8"/>
  <outline>
    <contour>
      <point x="57.8072" y="-10" type="line"/>
      <point x="542.139" y="510" type="line"/>
      <point x="513.96" y="510.096" type="line"/>
      <point x="29.5379" y="-10" type="line"/>
    </contour>
    <contour>
      <point x="58.5162" y="177.228" type="curve" smooth="yes"/>
      <point x="58.5162" y="60.1144"/>
      <point x="125.146" y="-10"/>
      <point x="246.48" y="-10" type="curve" smooth="yes"/>
      <point x="430.299" y="-10"/>
      <point x="533.674" y="155.811"/>
      <point x="533.674" y="323.981" type="curve" smooth="yes"/>
      <point x="533.674" y="440.728"/>
      <point x="468.041" y="510"/>
      <point x="347.568" y="510" type="curve" smooth="yes"/>
      <point x="164.219" y="510"/>
      <point x="58.5162" y="345.819"/>
    </contour>
    <contour>
      <point x="342.681" y="490.005" type="curve" smooth="yes"/>
      <point x="449.202" y="490.005"/>
      <point x="510.761" y="423.77"/>
      <point x="510.761" y="315.723" type="curve" smooth="yes"/>
      <point x="510.761" y="165.563"/>
      <point x="413.198" y="9.95888"/>
      <point x="249.36" y="9.95888" type="curve" smooth="yes"/>
      <point x="143.976" y="9.95888"/>
      <point x="80.8022" y="75.269"/>
      <point x="80.8022" y="184.499" type="curve" smooth="yes"/>
      <point x="80.8022" y="334.439"/>
      <point x="179.357" y="490.005"/>
    </contour>
  </outline>
  <guideline angle="0" x="0" y="510"/>
  <guideline angle="0" x="0" y="-10"/>
</glyph>
<glyph name="thorn" format="2">
  <advance width="621"/>
  <unicode hex="00FE"/>
  <outline>
    <contour>
      <point x="40.9526" y="-200" type="line"/>
      <point x="60.9526" y="-200" type="line"/>
      <point x="240.171" y="722" type="line"/>
      <point x="220.171" y="722" type="line"/>
    </contour>
    <contour>
      <point x="122.971" y="170.895" type="line"/>
      <point x="126.61" y="60.0927"/>
      <point x="186.298" y="-10"/>
      <point x="295.335" y="-10" type="curve" smooth="yes"/>
      <point x="470.25" y="-10"/>
      <point x="570.19" y="170.374"/>
      <point x="570.19" y="322.666" type="curve" smooth="yes"/>
      <point x="570.19" y="450.705"/>
      <point x="499.548" y="512"/>
      <point x="389.351" y="512" type="curve" smooth="yes"/>
      <point x="295.332" y="512"/>
      <point x="195.706" y="443.73"/>
      <point x="155.432" y="337.891" type="curve"/>
    </contour>
    <contour>
      <point x="382.721" y="492" type="curve" smooth="yes"/>
      <point x="485.44" y="492"/>
      <point x="550.262" y="439.039"/>
      <point x="550.262" y="320.584" type="curve" smooth="yes"/>
      <point x="550.262" y="180.651"/>
      <point x="459.801" y="10"/>
      <point x="296.285" y="10" type="curve" smooth="yes"/>
      <point x="197.229" y="10"/>
      <point x="142.388" y="72.6245"/>
      <point x="142.388" y="181.859" type="curve"/>
      <point x="142" y="318.617"/>
      <point x="227.966" y="492"/>
    </contour>
  </outline>
</glyph>
<glyph name="hbar" format="2">
  <advance width="583"/>
  <unicode hex="0127"/>
  <outline>
    <component base="h" xOffset="49"/>
    <contour>
      <point x="97.4007" y="610" type="line"/>
      <point x="93.5131" y="590" type="line"/>
      <point x="458.513" y="590" type="line"/>
      <point x="462.401" y="610" type="line"/>
    </contour>
  </outline>
</glyph>
<glyph name="kgreenlandic" format="2">
  <advance width="371"/>
  <unicode hex="0138"/>
  <outline>
    <contour>
      <point x="40.4049" y="0" type="line"/>
      <point x="137.595" y="500" type="line"/>
      <point x="116.232" y="492.989" type="line"/>
      <point x="20.4049" y="0" type="line"/>
    </contour>
    <contour>
      <point x="339.405" y="0" type="line"/>
      <point x="118.565" y="287.753" type="line"/>
      <point x="115.762" y="272.384" type="line"/>
      <point x="410.595" y="500" type="line"/>
      <point x="377.595" y="500" type="line"/>
      <point x="94.6854" y="280.736" type="line"/>
      <point x="310.405" y="0" type="line"/>
    </contour>
  </outline>
  <guideline angle="198.435" x="124" y="511.667"/>
</glyph>
<glyph name="Lslash" format="2">
  <advance width="483"/>
  <unicode hex="0141"/>
  <outline>
    <component base="L" xOffset="9"/>
    <contour>
      <point x="137.002" y="273.864" type="line"/>
      <point x="285.8" y="395.984" type="line"/>
      <point x="291.595" y="425.797" type="line"/>
      <point x="142.434" y="301.806" type="line"/>
    </contour>
    <contour>
      <point x="138.471" y="298.379" type="line"/>
      <point x="12.043" y="193.285" type="line"/>
      <point x="6.8312" y="166.472" type="line"/>
      <point x="133.356" y="270.231" type="line"/>
    </contour>
  </outline>
</glyph>
<glyph name="lslash" format="2">
  <advance width="343"/>
  <unicode hex="0142"/>
  <outline>
    <contour>
      <point x="26.2271" y="285" type="line"/>
      <point x="20.3957" y="255" type="line"/>
      <point x="346.49" y="523" type="line"/>
      <point x="352.321" y="553" type="line"/>
    </contour>
    <contour>
      <point x="89.8287" y="0" type="line"/>
      <point x="111.829" y="0" type="line"/>
      <point x="252.171" y="722" type="line"/>
      <point x="230.171" y="722" type="line"/>
    </contour>
  </outline>
</glyph>
<glyph name="Eng" format="2">
  <advance width="782"/>
  <unicode hex="014A"/>
  <outline>
    <contour>
      <point x="213.41" y="722" type="line"/>
      <point x="545.829" y="0" type="line"/>
      <point x="568.482" y="0" type="line"/>
      <point x="235.186" y="722" type="line"/>
    </contour>
    <contour>
      <point x="223.048" y="722" type="line"/>
      <point x="201.186" y="722" type="line"/>
      <point x="60.8287" y="0" type="line"/>
      <point x="82.6908" y="0" type="line"/>
    </contour>
    <contour>
      <point x="558.932" y="0" type="line"/>
      <point x="580.932" y="0" type="line"/>
      <point x="721.289" y="722" type="line"/>
      <point x="699.289" y="722" type="line"/>
    </contour>
    <contour>
      <point x="584.786" y="20" type="line"/>
      <point x="563.034" y="20" type="line"/>
      <point x="547.095" y="-62" type="line" smooth="yes"/>
      <point x="533.244" y="-133.255"/>
      <point x="490.152" y="-180.094"/>
      <point x="425.383" y="-180.094" type="curve" smooth="yes"/>
      <point x="382.577" y="-180.094"/>
      <point x="347.28" y="-159.636"/>
      <point x="330.789" y="-128.133" type="curve"/>
      <point x="313.032" y="-143" type="line"/>
      <point x="335.974" y="-183.518"/>
      <point x="371.311" y="-200"/>
      <point x="431.392" y="-200" type="curve" smooth="yes"/>
      <point x="495.93" y="-200"/>
      <point x="553.158" y="-142.711"/>
      <point x="568.847" y="-62" type="curve" smooth="yes"/>
    </contour>
  </outline>
  <guideline angle="45" x="411" y="-143"/>
</glyph>
<glyph name="eng" format="2">
  <advance width="531"/>
  <unicode hex="014B"/>
  <outline>
    <contour>
      <point x="163.397" y="-143" type="line"/>
      <point x="179.518" y="-178.697"/>
      <point x="214.5" y="-200"/>
      <point x="256.997" y="-200" type="curve" smooth="yes"/>
      <point x="340.438" y="-200"/>
      <point x="394.944" y="-150.956"/>
      <point x="412.235" y="-62" type="curve" smooth="yes"/>
      <point x="434.005" y="50" type="line"/>
      <point x="414.152" y="50" type="line"/>
      <point x="392.381" y="-62" type="line" smooth="yes"/>
      <point x="377.064" y="-140.802"/>
      <point x="332.15" y="-180.054"/>
      <point x="259.806" y="-180.054" type="curve" smooth="yes"/>
      <point x="224.271" y="-180.054"/>
      <point x="199.567" y="-165.455"/>
      <point x="179.896" y="-129.387" type="curve"/>
    </contour>
    <contour>
      <point x="122.563" y="376.185" type="line"/>
      <point x="132.527" y="376" type="line"/>
      <point x="154.617" y="441.097"/>
      <point x="250.554" y="490"/>
      <point x="324.224" y="490" type="curve" smooth="yes"/>
      <point x="417.534" y="490"/>
      <point x="470.825" y="447.49"/>
      <point x="470.825" y="363.727" type="curve" smooth="yes"/>
      <point x="470.825" y="349.047"/>
      <point x="469.188" y="333.1"/>
      <point x="465.843" y="315.893" type="curve" smooth="yes"/>
      <point x="404.433" y="0" type="line"/>
      <point x="424.433" y="0" type="line"/>
      <point x="485.086" y="312" type="line" smooth="yes"/>
      <point x="488.908" y="331.663"/>
      <point x="490.775" y="349.92"/>
      <point x="490.775" y="366.744" type="curve" smooth="yes"/>
      <point x="490.775" y="460.719"/>
      <point x="432.533" y="510"/>
      <point x="331.577" y="510" type="curve" smooth="yes"/>
      <point x="267.524" y="510"/>
      <point x="182.396" y="474.346"/>
      <point x="141.081" y="420" type="curve" smooth="yes"/>
      <point x="127.645" y="402.327" type="line"/>
    </contour>
    <contour>
      <point x="40.4049" y="0" type="line"/>
      <point x="60.4049" y="0" type="line"/>
      <point x="157.605" y="500" type="line"/>
      <point x="137.605" y="500" type="line"/>
    </contour>
  </outline>
  <guideline angle="90" x="233" y="0"/>
  <guideline angle="90" x="213" y="0"/>
  <guideline angle="0" x="0" y="-200"/>
  <guideline angle="0" x="0" y="-180"/>
  <guideline angle="45" x="0" y="-143"/>
</glyph>
<glyph name="OE" format="2">
  <advance width="919"/>
  <unicode hex="0152"/>
  <outline>
    <component base="E" xOffset="369.832" yOffset="-1"/>
    <contour>
      <point x="60.2829" y="232.671" type="curve" smooth="yes"/>
      <point x="60.2829" y="85.3133"/>
      <point x="127.85" y="-10"/>
      <point x="299.913" y="-10" type="curve"/>
      <point x="303.71" y="9.53642" type="line"/>
      <point x="145.705" y="9.53642"/>
      <point x="83.469" y="104.072"/>
      <point x="83.469" y="242.389" type="curve" smooth="yes"/>
      <point x="83.469" y="457.646"/>
      <point x="191.97" y="712"/>
      <point x="440.256" y="712" type="curve"/>
      <point x="444.143" y="732" type="line"/>
      <point x="172.132" y="732"/>
      <point x="60.2828" y="466.474"/>
    </contour>
    <contour>
      <point x="440.256" y="712" type="line"/>
      <point x="497.236" y="712"/>
      <point x="545.242" y="708.538"/>
      <point x="584.727" y="700.679" type="curve"/>
      <point x="588.697" y="721.101" type="line"/>
      <point x="550.667" y="728.293"/>
      <point x="489.058" y="732"/>
      <point x="444.143" y="732" type="curve"/>
    </contour>
    <contour>
      <point x="299.913" y="-10" type="line"/>
      <point x="378.757" y="-10"/>
      <point x="410.828" y="-7.5536"/>
      <point x="447.792" y="0.943801" type="curve"/>
      <point x="452.235" y="24.7723" type="line"/>
      <point x="411.993" y="13.1756"/>
      <point x="374.801" y="10"/>
      <point x="303.801" y="10" type="curve"/>
    </contour>
  </outline>
</glyph>
<glyph name="oe" format="2">
  <advance width="1014"/>
  <unicode hex="0153"/>
  <outline>
    <contour>
      <point x="50.3277" y="177.235" type="curve" smooth="yes"/>
      <point x="50.3277" y="60.1168"/>
      <point x="116.959" y="-10"/>
      <point x="238.295" y="-10" type="curve" smooth="yes"/>
      <point x="422.113" y="-10"/>
      <point x="525.483" y="155.807"/>
      <point x="525.483" y="323.975" type="curve" smooth="yes"/>
      <point x="525.483" y="440.726"/>
      <point x="459.848" y="510"/>
      <point x="339.373" y="510" type="curve" smooth="yes"/>
      <point x="156.026" y="510"/>
      <point x="50.3277" y="345.824"/>
    </contour>
    <contour>
      <point x="334.486" y="490.005" type="curve" smooth="yes"/>
      <point x="441.009" y="490.005"/>
      <point x="502.569" y="423.767"/>
      <point x="502.569" y="315.717" type="curve" smooth="yes"/>
      <point x="502.569" y="165.559"/>
      <point x="405.012" y="9.95889"/>
      <point x="241.174" y="9.95889" type="curve" smooth="yes"/>
      <point x="135.789" y="9.95889"/>
      <point x="72.6136" y="75.2712"/>
      <point x="72.6136" y="184.505" type="curve" smooth="yes"/>
      <point x="72.6136" y="334.443"/>
      <point x="171.164" y="490.005"/>
    </contour>
    <contour>
      <point x="488.621" y="178.68" type="curve" smooth="yes"/>
      <point x="488.621" y="59.9867"/>
      <point x="557.183" y="-10"/>
      <point x="683.815" y="-10" type="curve" smooth="yes"/>
      <point x="801.228" y="-10"/>
      <point x="891.829" y="50.166"/>
      <point x="934.34" y="160" type="curve"/>
      <point x="914.401" y="160" type="line"/>
      <point x="869.9" y="58.7954"/>
      <point x="796.807" y="10"/>
      <point x="693.061" y="10" type="curve" smooth="yes"/>
      <point x="575.41" y="10"/>
      <point x="510.393" y="72.7531"/>
      <point x="510.393" y="181.497" type="curve" smooth="yes"/>
      <point x="510.393" y="201.479"/>
      <point x="512.588" y="223.015"/>
      <point x="517.056" y="246" type="curve"/>
      <point x="950.056" y="246" type="line"/>
      <point x="957.054" y="282" type="line" smooth="yes"/>
      <point x="961.052" y="302.567"/>
      <point x="963.008" y="322.027"/>
      <point x="963.008" y="340.265" type="curve" smooth="yes"/>
      <point x="963.008" y="447.087"/>
      <point x="895.895" y="512"/>
      <point x="778.761" y="512" type="curve" smooth="yes"/>
      <point x="594.376" y="512"/>
      <point x="488.621" y="348.32"/>
    </contour>
    <contour>
      <point x="520.944" y="266" type="line"/>
      <point x="547.604" y="403.154"/>
      <point x="647.241" y="492"/>
      <point x="780.282" y="492" type="curve" smooth="yes"/>
      <point x="884.632" y="492"/>
      <point x="941.101" y="437.342"/>
      <point x="941.101" y="335.598" type="curve" smooth="yes"/>
      <point x="941.101" y="314.416"/>
      <point x="938.654" y="291.194"/>
      <point x="933.682" y="266" type="curve"/>
    </contour>
  </outline>
</glyph>
<glyph name="Tbar" format="2">
  <advance width="622"/>
  <unicode hex="0166"/>
  <outline>
    <component base="T" xOffset="-20.5312"/>
    <contour>
      <point x="92.4515" y="342.745" type="line"/>
      <point x="392.452" y="342.745" type="line"/>
      <point x="396.389" y="363" type="line"/>
      <point x="96.3888" y="363" type="line"/>
    </contour>
  </outline>
</glyph>
<glyph name="tbar" format="2">
  <advance width="349"/>
  <unicode hex="0167"/>
  <outline>
    <contour>
      <point x="60.8641" y="271" type="line"/>
      <point x="300.864" y="271" type="line"/>
      <point x="304.752" y="291" type="line"/>
      <point x="64.7517" y="291" type="line"/>
    </contour>
    <contour>
      <point x="144.959" y="70.7953" type="curve" smooth="yes"/>
      <point x="254.824" y="636" type="line"/>
      <point x="233.161" y="627.504" type="line"/>
      <point x="125.531" y="73.7953" type="line" smooth="yes"/>
      <point x="123.397" y="62.8127"/>
      <point x="122.327" y="52.9159"/>
      <point x="122.327" y="44.1013" type="curve" smooth="yes"/>
      <point x="122.327" y="7.94869"/>
      <point x="140.328" y="-10"/>
      <point x="176.71" y="-10" type="curve" smooth="yes"/>
      <point x="194.694" y="-10"/>
      <point x="223.029" y="-6.56984"/>
      <point x="241.198" y="0" type="curve"/>
      <point x="245.086" y="20" type="line"/>
      <point x="223.919" y="14"/>
      <point x="202.142" y="10"/>
      <point x="185.038" y="10" type="curve" smooth="yes"/>
      <point x="155.597" y="10"/>
      <point x="142.435" y="21.8527"/>
      <point x="142.435" y="47.9597" type="curve" smooth="yes"/>
      <point x="142.435" y="54.6282"/>
      <point x="143.294" y="62.2267"/>
    </contour>
    <contour>
      <point x="209.5" y="480" type="line"/>
      <point x="334.5" y="480" type="line"/>
      <point x="338.388" y="500" type="line"/>
      <point x="213.388" y="500" type="line"/>
    </contour>
    <contour>
      <point x="223.377" y="500" type="line"/>
      <point x="118.377" y="500" type="line"/>
      <point x="114.49" y="480" type="line"/>
      <point x="219.49" y="480" type="line"/>
    </contour>
  </outline>
</glyph>
<glyph name="longs" format="2">
  <advance width="301"/>
  <unicode hex="017F"/>
  <outline>
    <contour>
      <point x="172.952" y="622.98" type="curve" smooth="yes"/>
      <point x="51.8568" y="0" type="line"/>
      <point x="71.8568" y="0" type="line"/>
      <point x="192.563" y="620.98" type="line" smooth="yes"/>
      <point x="204.608" y="682.944"/>
      <point x="228.439" y="711.926"/>
      <point x="282.004" y="711.926" type="curve" smooth="yes"/>
      <point x="299.766" y="711.926"/>
      <point x="321.222" y="709.179"/>
      <point x="339.308" y="701.98" type="curve"/>
      <point x="343.199" y="722" type="line"/>
      <point x="322.583" y="729.348"/>
      <point x="307.188" y="732"/>
      <point x="276.167" y="732" type="curve" smooth="yes"/>
      <point x="221.894" y="732"/>
      <point x="186.459" y="692.469"/>
    </contour>
    <contour>
      <point x="155.159" y="480" type="line"/>
      <point x="159.047" y="500" type="line"/>
      <point x="49.047" y="500" type="line"/>
      <point x="45.1594" y="480" type="line"/>
    </contour>
  </outline>
</glyph>
<glyph name="florin" format="2">
  <advance width="503"/>
  <unicode hex="0192"/>
  <outline>
    <contour>
      <point x="26.0936" y="-92.0962" type="line" smooth="yes"/>
      <point x="-7.57299" y="-164.687"/>
      <point x="-49.6219" y="-194"/>
      <point x="-117.087" y="-194" type="curve" smooth="yes"/>
      <point x="-139.853" y="-194"/>
      <point x="-165.146" y="-185.381"/>
      <point x="-172.396" y="-176.381" type="curve"/>
      <point x="-182.825" y="-199" type="line"/>
      <point x="-168.574" y="-208"/>
      <point x="-143.129" y="-212"/>
      <point x="-124.129" y="-212" type="curve" smooth="yes"/>
      <point x="-41.5852" y="-212"/>
      <point x="4.95489" y="-185.547"/>
      <point x="52.1671" y="-83.5375" type="curve" smooth="yes"/>
      <point x="329.243" y="515.128" type="line" smooth="yes"/>
      <point x="394.684" y="656.524"/>
      <point x="452.644" y="714"/>
      <point x="514.644" y="714" type="curve" smooth="yes"/>
      <point x="537.644" y="714"/>
      <point x="570.828" y="709.454"/>
      <point x="582.283" y="701.505" type="curve"/>
      <point x="590.416" y="718.314" type="line"/>
      <point x="570.877" y="728.487"/>
      <point x="548.847" y="732"/>
      <point x="525.143" y="732" type="curve" smooth="yes"/>
      <point x="444.532" y="732"/>
      <point x="385.34" y="682.497"/>
      <point x="318.253" y="537.847" type="curve" smooth="yes"/>
    </contour>
    <contour>
      <point x="170.017" y="499.846" type="line"/>
      <point x="160.9" y="479.846" type="line"/>
      <point x="469.9" y="479.846" type="line"/>
      <point x="479.017" y="499.846" type="line"/>
    </contour>
  </outline>
  <guideline angle="74.9736" x="160.9" y="-4"/>
  <guideline angle="254.922" x="257.142" y="435"/>
  <guideline angle="255.343" x="109.631" y="500"/>
  <guideline angle="0" x="0" y="500"/>
  <guideline angle="73.8557" x="501" y="646"/>
</glyph>
<glyph name="uni019E" format="2">
  <advance width="608"/>
  <unicode hex="019E"/>
  <outline>
    <contour>
      <point x="70.433" y="0" type="line"/>
      <point x="167.623" y="500" type="line"/>
      <point x="147.623" y="500" type="line"/>
      <point x="50.433" y="0" type="line"/>
    </contour>
    <contour>
      <point x="133.556" y="376.185" type="line"/>
      <point x="143.52" y="376" type="line"/>
      <point x="165.608" y="441.097"/>
      <point x="261.544" y="490"/>
      <point x="335.214" y="490" type="curve" smooth="yes"/>
      <point x="428.526" y="490"/>
      <point x="481.817" y="447.488"/>
      <point x="481.817" y="363.724" type="curve" smooth="yes"/>
      <point x="481.817" y="349.045"/>
      <point x="480.181" y="333.099"/>
      <point x="476.836" y="315.893" type="curve" smooth="yes"/>
      <point x="415.433" y="0" type="line"/>
      <point x="435.433" y="0" type="line"/>
      <point x="496.08" y="312" type="line" smooth="yes"/>
      <point x="499.901" y="331.661"/>
      <point x="501.768" y="349.916"/>
      <point x="501.768" y="366.739" type="curve" smooth="yes"/>
      <point x="501.768" y="460.718"/>
      <point x="443.525" y="510"/>
      <point x="342.567" y="510" type="curve" smooth="yes"/>
      <point x="278.514" y="510"/>
      <point x="193.387" y="474.346"/>
      <point x="152.073" y="420" type="curve" smooth="yes"/>
      <point x="138.637" y="402.327" type="line"/>
    </contour>
    <contour>
      <point x="454.871" y="100" type="line"/>
      <point x="434.871" y="100" type="line"/>
      <point x="376.557" y="-200" type="line"/>
      <point x="396.557" y="-200" type="line"/>
    </contour>
  </outline>
</glyph>
<glyph name="uni01C1" format="2">
  <advance width="688"/>
  <unicode hex="01C1"/>
  <outline>
    <contour>
      <point x="55.9865" y="-258" type="line"/>
      <point x="260.863" y="796" type="line"/>
      <point x="238.863" y="796" type="line"/>
      <point x="33.9865" y="-258" type="line"/>
    </contour>
    <contour>
      <point x="399.987" y="-258" type="line"/>
      <point x="604.863" y="796" type="line"/>
      <point x="582.863" y="796" type="line"/>
      <point x="377.987" y="-258" type="line"/>
    </contour>
  </outline>
</glyph>
<glyph name="uni01C2" format="2">
  <advance width="405"/>
  <unicode hex="01C2"/>
  <outline>
    <contour>
      <point x="119.968" y="0" type="line"/>
      <point x="141.968" y="0" type="line"/>
      <point x="285.032" y="736" type="line"/>
      <point x="263.032" y="736" type="line"/>
    </contour>
    <contour>
      <point x="34.6476" y="448.5" type="line"/>
      <point x="30.76" y="428.5" type="line"/>
      <point x="396.76" y="428.5" type="line"/>
      <point x="400.648" y="448.5" type="line"/>
    </contour>
    <contour>
      <point x="7.23999" y="307.5" type="line"/>
      <point x="3.35239" y="287.5" type="line"/>
      <point x="369.352" y="287.5" type="line"/>
      <point x="373.24" y="307.5" type="line"/>
    </contour>
  </outline>
</glyph>
<glyph name="uni01DD" format="2">
  <advance width="576"/>
  <unicode hex="01DD"/>
  <anchor x="225.688" y="-82" name="top"/>
  <anchor x="355.729" y="587" name="bottom"/>
  <anchor x="338.429" y="498" name="cedilla.bottom"/>
  <outline>
    <contour>
      <point x="525.052" y="319.326" type="curve" smooth="yes"/>
      <point x="525.052" y="438.016"/>
      <point x="456.493" y="508"/>
      <point x="329.862" y="508" type="curve" smooth="yes"/>
      <point x="212.449" y="508"/>
      <point x="121.847" y="447.834"/>
      <point x="79.3346" y="338" type="curve"/>
      <point x="99.2733" y="338" type="line"/>
      <point x="143.776" y="439.205"/>
      <point x="216.87" y="488"/>
      <point x="320.616" y="488" type="curve" smooth="yes"/>
      <point x="438.266" y="488"/>
      <point x="503.281" y="425.249"/>
      <point x="503.281" y="316.509" type="curve" smooth="yes"/>
      <point x="503.281" y="296.524"/>
      <point x="501.085" y="274.987"/>
      <point x="496.616" y="252" type="curve"/>
      <point x="63.6162" y="252" type="line"/>
      <point x="56.6178" y="216" type="line" smooth="yes"/>
      <point x="52.6192" y="195.431"/>
      <point x="50.6624" y="175.97"/>
      <point x="50.6624" y="157.73" type="curve" smooth="yes"/>
      <point x="50.6624" y="50.9111"/>
      <point x="117.774" y="-14"/>
      <point x="234.906" y="-14" type="curve" smooth="yes"/>
      <point x="419.292" y="-14"/>
      <point x="525.052" y="149.684"/>
    </contour>
    <contour>
      <point x="492.728" y="232" type="line"/>
      <point x="466.065" y="94.846"/>
      <point x="366.426" y="6"/>
      <point x="233.386" y="6" type="curve" smooth="yes"/>
      <point x="129.037" y="6"/>
      <point x="72.5691" y="60.6565"/>
      <point x="72.5691" y="162.397" type="curve" smooth="yes"/>
      <point x="72.5691" y="183.58"/>
      <point x="75.017" y="206.803"/>
      <point x="79.9903" y="232" type="curve"/>
    </contour>
  </outline>
</glyph>
<glyph name="dotlessj" format="2">
  <advance width="205"/>
  <unicode hex="0237"/>
  <anchor x="175" y="580" name="top"/>
  <outline>
    <contour>
      <point x="-47.4751" y="-200" type="line"/>
      <point x="-22.4751" y="-200" type="line" smooth="yes"/>
      <point x="12.7489" y="-200"/>
      <point x="33.56" y="-174.015"/>
      <point x="45.2269" y="-114" type="curve" smooth="yes"/>
      <point x="164.589" y="500" type="line"/>
      <point x="144.605" y="500" type="line"/>
      <point x="26.4451" y="-107.818" type="line" smooth="yes"/>
      <point x="16.1251" y="-160.904"/>
      <point x="2.18309" y="-180"/>
      <point x="-25.4405" y="-180" type="curve" smooth="yes"/>
      <point x="-43.5871" y="-180" type="line"/>
    </contour>
  </outline>
</glyph>
<glyph name="uni0251" format="2">
  <advance width="612"/>
  <unicode hex="0251"/>
  <outline>
    <contour>
      <point x="71.9422" y="194.695" type="curve" smooth="yes"/>
      <point x="71.9422" y="83.3917"/>
      <point x="136.609" y="10"/>
      <point x="243.784" y="10" type="curve" smooth="yes"/>
      <point x="400.302" y="10"/>
      <point x="501.889" y="166.526"/>
      <point x="501.889" y="311.947" type="curve" smooth="yes"/>
      <point x="501.889" y="426.066"/>
      <point x="439.329" y="489.971"/>
      <point x="325.22" y="489.971" type="curve" smooth="yes"/>
      <point x="172.512" y="489.971"/>
      <point x="71.9422" y="333.498"/>
    </contour>
    <contour>
      <point x="50.5232" y="195.357" type="curve" smooth="yes"/>
      <point x="50.5232" y="349.243"/>
      <point x="160.758" y="510"/>
      <point x="337.669" y="510" type="curve" smooth="yes"/>
      <point x="462.421" y="510"/>
      <point x="517.82" y="430.061"/>
      <point x="520.658" y="340.665" type="curve"/>
      <point x="551.633" y="500" type="line"/>
      <point x="571.59" y="499.778" type="line"/>
      <point x="474.506" y="0.375007" type="line"/>
      <point x="454.506" y="0.375007" type="line"/>
      <point x="486.605" y="165.493" type="line"/>
      <point x="432.112" y="45.6873"/>
      <point x="341.913" y="-10"/>
      <point x="242.715" y="-10" type="curve" smooth="yes"/>
      <point x="124.074" y="-10"/>
      <point x="50.5232" y="69.6569"/>
    </contour>
  </outline>
</glyph>
<glyph name="uni0255" format="2">
  <advance width="555"/>
  <unicode hex="0255"/>
  <outline>
    <contour>
      <point x="237.3" y="-10" type="curve" smooth="yes"/>
      <point x="339.462" y="-10"/>
      <point x="482.207" y="33.7385"/>
      <point x="482.207" y="141.346" type="curve" smooth="yes"/>
      <point x="482.207" y="200.087"/>
      <point x="439.67" y="234"/>
      <point x="377.707" y="234" type="curve" smooth="yes"/>
      <point x="245.109" y="234"/>
      <point x="81.4481" y="79.2874"/>
      <point x="-14.4301" y="-133" type="curve"/>
      <point x="4.20925" y="-140" type="line"/>
      <point x="88.4084" y="52.6551"/>
      <point x="241.887" y="214.157"/>
      <point x="374.753" y="214.157" type="curve" smooth="yes"/>
      <point x="431.718" y="214.157"/>
      <point x="461.404" y="184.469"/>
      <point x="461.404" y="139.357" type="curve" smooth="yes"/>
      <point x="461.404" y="48.7691"/>
      <point x="341.7" y="10"/>
      <point x="263.976" y="10" type="curve" smooth="yes"/>
      <point x="133.085" y="10"/>
      <point x="69.3112" y="62.5613"/>
      <point x="69.3112" y="169.048" type="curve" smooth="yes"/>
      <point x="69.3112" y="322.1"/>
      <point x="164.993" y="490.494"/>
      <point x="334.213" y="490.494" type="curve" smooth="yes"/>
      <point x="426.837" y="490.494"/>
      <point x="482.341" y="441.386"/>
      <point x="482.006" y="359.94" type="curve" smooth="yes"/>
      <point x="481.98" y="353.808"/>
      <point x="481.639" y="347.492"/>
      <point x="480.972" y="341" type="curve"/>
      <point x="500.717" y="341" type="line"/>
      <point x="501.824" y="350.003"/>
      <point x="502.411" y="358.665"/>
      <point x="502.411" y="366.982" type="curve" smooth="yes"/>
      <point x="502.411" y="460.158"/>
      <point x="437.032" y="510"/>
      <point x="338.436" y="510" type="curve" smooth="yes"/>
      <point x="153.044" y="510"/>
      <point x="49.4875" y="333.776"/>
      <point x="49.4875" y="166.909" type="curve" smooth="yes"/>
      <point x="49.4875" y="54.2835"/>
      <point x="113.446" y="-10"/>
    </contour>
  </outline>
  <guideline angle="341.222" x="61" y="-133"/>
</glyph>
<glyph name="uni0256" format="2">
  <advance width="654"/>
  <unicode hex="0256"/>
  <outline>
    <component base="d" xOffset="0.791577"/>
    <contour>
      <point x="489.876" y="134" type="line"/>
      <point x="449.245" y="-75.0251" type="line" smooth="yes"/>
      <point x="446.262" y="-90.3717"/>
      <point x="444.782" y="-104.36"/>
      <point x="444.782" y="-116.952" type="curve" smooth="yes"/>
      <point x="444.782" y="-170.685"/>
      <point x="471.738" y="-199"/>
      <point x="527.989" y="-199" type="curve" smooth="yes"/>
      <point x="568.465" y="-199"/>
      <point x="603.301" y="-184.339"/>
      <point x="640.8" y="-150.159" type="curve"/>
      <point x="629.531" y="-136.171" type="line"/>
      <point x="603.022" y="-164.193"/>
      <point x="569.321" y="-178.938"/>
      <point x="532.134" y="-178.938" type="curve" smooth="yes"/>
      <point x="487.186" y="-178.938"/>
      <point x="465.074" y="-157.397"/>
      <point x="465.074" y="-112.845" type="curve" smooth="yes"/>
      <point x="465.074" y="-101.954"/>
      <point x="466.395" y="-89.688"/>
      <point x="469.051" y="-76.0251" type="curve" smooth="yes"/>
      <point x="509.876" y="134" type="line"/>
    </contour>
  </outline>
  <guideline angle="135" x="718" y="-158"/>
  <guideline angle="0" x="0" y="-179"/>
</glyph>
<glyph name="uni0257" format="2">
  <advance width="611"/>
  <unicode hex="0257"/>
  <outline>
    <contour>
      <point x="244.208" y="10" type="curve" smooth="yes"/>
      <point x="137.03" y="10"/>
      <point x="72.3622" y="83.3941"/>
      <point x="72.3622" y="194.7" type="curve" smooth="yes"/>
      <point x="72.3622" y="333.502"/>
      <point x="172.927" y="489.971"/>
      <point x="325.634" y="489.971" type="curve" smooth="yes"/>
      <point x="439.745" y="489.971"/>
      <point x="502.307" y="426.064"/>
      <point x="502.307" y="311.942" type="curve" smooth="yes"/>
      <point x="502.307" y="166.522"/>
      <point x="400.724" y="10"/>
    </contour>
    <contour>
      <point x="474.93" y="0.375" type="line"/>
      <point x="572.004" y="499.778" type="line"/>
      <point x="552.047" y="500" type="line"/>
      <point x="521.075" y="340.665" type="line"/>
      <point x="514.349" y="429.28"/>
      <point x="457.41" y="510"/>
      <point x="335.105" y="510" type="curve" smooth="yes"/>
      <point x="161.173" y="510"/>
      <point x="50.9432" y="349.247"/>
      <point x="50.9432" y="195.362" type="curve" smooth="yes"/>
      <point x="50.9432" y="69.6594"/>
      <point x="124.496" y="-10"/>
      <point x="243.139" y="-10" type="curve" smooth="yes"/>
      <point x="342.337" y="-10"/>
      <point x="432.535" y="45.6873"/>
      <point x="487.025" y="165.493" type="curve"/>
      <point x="454.93" y="0.375" type="line"/>
    </contour>
    <contour>
      <point x="528.721" y="380" type="line"/>
      <point x="548.721" y="380" type="line"/>
      <point x="579.864" y="540.215" type="line" smooth="yes"/>
      <point x="601.067" y="649.294"/>
      <point x="677.135" y="712"/>
      <point x="796.448" y="712" type="curve" smooth="yes"/>
      <point x="852.533" y="712"/>
      <point x="894.485" y="698.145"/>
      <point x="920.518" y="668.318" type="curve"/>
      <point x="938.619" y="683" type="line"/>
      <point x="909.018" y="716.352"/>
      <point x="862.241" y="732"/>
      <point x="801.736" y="732" type="curve" smooth="yes"/>
      <point x="672.359" y="732"/>
      <point x="583.236" y="660.453"/>
      <point x="560.794" y="545" type="curve" smooth="yes"/>
    </contour>
  </outline>
</glyph>
<glyph name="uni025A" format="2">
  <advance width="766"/>
  <unicode hex="025A"/>
  <anchor x="242.688" y="-82" name="top"/>
  <anchor x="372.729" y="587" name="bottom"/>
  <anchor x="355.429" y="498" name="cedilla.bottom"/>
  <outline>
    <contour>
      <point x="512.057" y="309.389" type="curve" smooth="yes"/>
      <point x="512.057" y="438.883"/>
      <point x="442.512" y="508"/>
      <point x="316.852" y="508" type="curve" smooth="yes"/>
      <point x="198.471" y="508"/>
      <point x="108.493" y="446.943"/>
      <point x="66.328" y="338" type="curve"/>
      <point x="86.2667" y="338" type="line"/>
      <point x="130.536" y="438.678"/>
      <point x="203.315" y="488"/>
      <point x="307.606" y="488" type="curve" smooth="yes"/>
      <point x="426.18" y="488"/>
      <point x="489.946" y="425.856"/>
      <point x="489.946" y="304.281" type="curve" smooth="yes"/>
      <point x="489.946" y="154.924"/>
      <point x="393.707" y="6"/>
      <point x="219.096" y="6" type="curve" smooth="yes"/>
      <point x="119.607" y="6"/>
      <point x="57.4447" y="54.3476"/>
      <point x="57.2226" y="133.775" type="curve" smooth="yes"/>
      <point x="57.1972" y="142.855"/>
      <point x="57.9597" y="152.418"/>
      <point x="59.5634" y="162.462" type="curve"/>
      <point x="37.7048" y="152.946" type="line"/>
      <point x="37.0903" y="146.61"/>
      <point x="37.0903" y="137.767"/>
      <point x="37.0903" y="136.784" type="curve" smooth="yes"/>
      <point x="37.0903" y="41.8063"/>
      <point x="109.644" y="-14"/>
      <point x="219.007" y="-14" type="curve" smooth="yes"/>
      <point x="406.325" y="-14"/>
      <point x="512.057" y="149.719"/>
    </contour>
    <contour>
      <point x="47.3323" y="137.201" type="line"/>
      <point x="618.448" y="390.52" type="line"/>
      <point x="604.165" y="400.16" type="line"/>
      <point x="583.897" y="301.173" type="line" smooth="yes"/>
      <point x="581.882" y="291.368"/>
      <point x="580.869" y="282.409"/>
      <point x="580.869" y="274.28" type="curve" smooth="yes"/>
      <point x="580.869" y="232.838"/>
      <point x="606.972" y="213"/>
      <point x="650.164" y="213" type="curve" smooth="yes"/>
      <point x="711.463" y="213"/>
      <point x="752.83" y="252.957"/>
      <point x="765.135" y="319" type="curve"/>
      <point x="745.135" y="319" type="line"/>
      <point x="735.225" y="264.513"/>
      <point x="702.902" y="231.126"/>
      <point x="654.226" y="230.976" type="curve" smooth="yes"/>
      <point x="621.629" y="230.875"/>
      <point x="602.869" y="245.745"/>
      <point x="602.869" y="278.829" type="curve" smooth="yes"/>
      <point x="602.869" y="286.016"/>
      <point x="603.754" y="294.062"/>
      <point x="605.494" y="303" type="curve" smooth="yes"/>
      <point x="627.239" y="414.711" type="line"/>
      <point x="42.9406" y="155.269" type="line"/>
    </contour>
  </outline>
  <guideline angle="205.918" x="630" y="431.233"/>
  <guideline angle="90" x="596" y="0"/>
</glyph>
<glyph name="uni025F" format="2">
  <advance width="317"/>
  <unicode hex="025F"/>
  <outline>
    <contour>
      <point x="-105.169" y="-147" type="line"/>
      <point x="-76.5554" y="-185"/>
      <point x="-42.4711" y="-200"/>
      <point x="-1.47114" y="-200" type="curve" smooth="yes"/>
      <point x="57.5289" y="-200"/>
      <point x="100.943" y="-167"/>
      <point x="110.857" y="-116" type="curve" smooth="yes"/>
      <point x="230.595" y="500" type="line"/>
      <point x="210.595" y="500" type="line"/>
      <point x="92.8006" y="-106" type="line" smooth="yes"/>
      <point x="83.6647" y="-153"/>
      <point x="52.0277" y="-182"/>
      <point x="2.02771" y="-182" type="curve" smooth="yes"/>
      <point x="-32.9723" y="-182"/>
      <point x="-64.251" y="-168"/>
      <point x="-87.2533" y="-132" type="curve"/>
    </contour>
    <contour>
      <point x="35.2506" y="241" type="line"/>
      <point x="305.251" y="241" type="line"/>
      <point x="308.749" y="259" type="line"/>
      <point x="38.7494" y="259" type="line"/>
    </contour>
  </outline>
  <guideline angle="225" x="29" y="-90"/>
</glyph>
<glyph name="uni0260" format="2">
  <advance width="621"/>
  <unicode hex="0260"/>
  <outline>
    <component base="g" xOffset="93"/>
    <contour>
      <point x="563.745" y="400" type="line"/>
      <point x="583.745" y="400" type="line"/>
      <point x="611.922" y="544.958" type="line" smooth="yes"/>
      <point x="622.916" y="601.516"/>
      <point x="646.595" y="619.918"/>
      <point x="687.446" y="619.918" type="curve" smooth="yes"/>
      <point x="706.492" y="619.918"/>
      <point x="721.715" y="615.918"/>
      <point x="734.966" y="606.918" type="curve"/>
      <point x="738.092" y="623" type="line"/>
      <point x="725.035" y="633"/>
      <point x="709.633" y="638"/>
      <point x="687.127" y="638" type="curve" smooth="yes"/>
      <point x="625.295" y="638"/>
      <point x="602.671" y="600.259"/>
      <point x="590.367" y="536.958" type="curve" smooth="yes"/>
    </contour>
  </outline>
</glyph>
<glyph name="uni0262" format="2">
  <advance width="529"/>
  <unicode hex="0262"/>
  <outline>
    <contour>
      <point x="50.1129" y="163.138" type="curve" smooth="yes"/>
      <point x="50.1129" y="43.8705"/>
      <point x="114.153" y="-9.9986"/>
      <point x="249.296" y="-9.9986" type="curve" smooth="yes"/>
      <point x="310.079" y="-9.9986"/>
      <point x="356.932" y="1.18003"/>
      <point x="416.744" y="24.9346" type="curve"/>
      <point x="459.431" y="244.521" type="line"/>
      <point x="299.693" y="244.521" type="line"/>
      <point x="296.206" y="226.584" type="line"/>
      <point x="436.067" y="226.584" type="line"/>
      <point x="398.772" y="34.7375" type="line"/>
      <point x="352.519" y="13.7067"/>
      <point x="292.125" y="8.48389"/>
      <point x="252.468" y="8.48389" type="curve" smooth="yes"/>
      <point x="128.054" y="8.48389"/>
      <point x="70.6274" y="59.8902"/>
      <point x="70.6274" y="168.837" type="curve" smooth="yes"/>
      <point x="70.6274" y="328.962"/>
      <point x="147.839" y="492.215"/>
      <point x="331.495" y="492.055" type="curve" smooth="yes"/>
      <point x="411.427" y="491.985"/>
      <point x="458.559" y="446.458"/>
      <point x="458.559" y="387.298" type="curve" smooth="yes"/>
      <point x="458.559" y="379.879"/>
      <point x="457.818" y="372.245"/>
      <point x="456.307" y="364.459" type="curve"/>
      <point x="476.21" y="364.459" type="line"/>
      <point x="478.024" y="373.787"/>
      <point x="478.929" y="382.976"/>
      <point x="478.929" y="391.926" type="curve" smooth="yes"/>
      <point x="478.929" y="457.383"/>
      <point x="430.495" y="510"/>
      <point x="324.938" y="510" type="curve" smooth="yes"/>
      <point x="134.324" y="510"/>
      <point x="50.1128" y="338.42"/>
    </contour>
  </outline>
</glyph>
